<?xml version="1.0" encoding="utf-8"?>
<!-- Generator: Adobe Illustrator 19.0.1, SVG Export Plug-In . SVG Version: 6.00 Build 0)  -->
<svg version="1.1" id="Layer_1" xmlns="http://www.w3.org/2000/svg" xmlns:xlink="http://www.w3.org/1999/xlink" x="0px" y="0px"
	 viewBox="0 0 500 500" style="enable-background:new 0 0 500 500;" xml:space="preserve">
<style type="text/css">
	.st0{fill:#000B68;}
</style>
<g>
	<path class="st0" d="M101.1,373.1c-0.5-3-1-4.7-1-6.4c0.1-68.7-1.2-137.5,0.7-206.1c2.2-77.5,67.3-139.8,145-141.9
		c84.4-2.3,153.7,60.9,156.2,145.3c1.9,63.3,0.4,126.6,0.4,189.9c0,5.7,0,11.5,0,19.3c-4.3-2.2-7.7-3.6-10.9-5.4
		c-24.3-14-48.4-28.4-72.9-42c-3.6-2-9.8-2.3-13.4-0.5c-36.1,17.7-71.8,17.8-108,0.2c-3.9-1.9-10.5-1.5-14.4,0.7
		c-23.3,12.8-46.1,26.5-69.1,39.9C110,368.2,106,370.4,101.1,373.1z M152.9,186.1c0,11.2-0.3,24.5,0.1,37.7
		c1.1,45,29.9,82.1,72.4,93.9c42.1,11.7,86.9-5.7,110-44c6.7-11.1,10.3-24.1,15.3-36.3c-1-0.4-2-0.9-3.1-1.3
		c-0.8,0.6-1.8,1.1-2.4,1.9c-16.3,21.7-37.4,36.5-63.5,44.2c-2.9,0.9-5.5,4.1-7.2,6.9c-8.7,14.4-24.8,18.7-37.7,9.7
		c-12.6-8.8-15-26.5-5.1-37.9c10.3-11.9,26.8-11.9,39.1-0.2c2.1,2,5.3,4.3,7.7,4.1c26.9-2.8,62.5-40,66-69.4
		c-30.4-8.4-57.5-23.2-79.9-46.3c3.6-6.4,7.3-12.2,10.3-18.3c2.8-5.7,7-12.5-1.2-16.9c-8.3-4.5-12,1.5-15.3,8.3
		c-11,22.4-27.5,40.2-50.7,49.4C190.9,178.3,172.6,181,152.9,186.1z"/>
	<path class="st0" d="M449.7,480.5c-4.1,0.2-7.6,0.5-11.1,0.5c-124.5,0-249-0.1-373.4,0.3c-11.4,0-14.3-4-14.1-14.2
		c0.3-20.4,8.5-36.4,25.9-46.8c28-16.9,56.3-33.3,84.8-49.3c2.7-1.5,8.3-0.6,11.1,1.3c23.1,15.9,46.2,31.9,68.5,48.9
		c8.3,6.3,13.6,5.5,21.3-0.3c21.5-16.2,43.8-31.5,65.5-47.5c5.4-4,9.2-4.3,15.2-0.8c25.2,15.2,50.6,30.4,76.4,44.5
		C445,430.9,454.1,451.5,449.7,480.5z"/>
</g>
</svg>
