<?xml version="1.0" encoding="utf-8"?>
<!-- Generator: Adobe Illustrator 19.0.1, SVG Export Plug-In . SVG Version: 6.00 Build 0)  -->
<svg version="1.1" id="Layer_1" xmlns="http://www.w3.org/2000/svg" xmlns:xlink="http://www.w3.org/1999/xlink" x="0px" y="0px"
	 viewBox="0 0 500 500" style="enable-background:new 0 0 500 500;" xml:space="preserve">
<style type="text/css">
	.st0{fill:#000B68;}
	.st1{fill:#FFFFFF;}
</style>
<g>
	<path class="st0" d="M120.4,495.6C95.8,488,76.9,474,70.3,447.8c-2.1-8.2-2.2-17-2.2-25.5c-0.1-111,0.7-222.1-0.5-333.1
		c-0.4-38.6,13.5-66.5,55-78c85.4,0,170.8,0,256.2,0c42.7,14.7,55.6,33,55.6,78.9c0,110.8,0.1,221.6-0.2,332.5
		c0,9.9-1.1,20.2-4.1,29.6c-7.6,23.9-26.1,36.6-49.2,43.5C294.1,495.6,207.3,495.6,120.4,495.6z"/>
	<path class="st1" d="M250,160.4c-35.8,0-71.7,0-107.5,0c-13.6,0-15.4-1.9-15.5-15.7c-0.1-21.5,0.2-43-0.1-64.5
		c-0.2-10.2,4.5-14.3,14.2-14.3c73.1,0.1,146.2,0,219.3,0.1c11.7,0,14.3,2.9,14.3,15c0.1,21.9-0.2,43.7,0.1,65.6
		c0.2,10.2-4.2,14-14.2,14C323.8,160.2,286.9,160.4,250,160.4z M354.2,87.2c-69.1,0-137.7,0-206.6,0c0,17.9,0,35,0,52.4
		c69.2,0,137.8,0,206.6,0C354.2,121.7,354.2,104.7,354.2,87.2z"/>
	<path class="st1" d="M333.9,193.8c21.3-0.1,37.3,16,37.2,37.2c-0.1,20.8-15.8,36.7-36.5,37c-21.1,0.3-37.7-15.9-37.8-36.8
		C296.7,210.1,312.8,193.8,333.9,193.8z M334.6,207.1c-13.3-0.2-24.1,10.1-24.4,23.2c-0.3,13.2,10.1,24,23.3,24.3
		c13.5,0.3,24-9.8,24.2-23.2C357.9,217.7,348,207.3,334.6,207.1z"/>
	<path class="st1" d="M334.1,350c-21,0-37.4-16.5-37.3-37.4c0.1-20.9,16.7-37.2,37.7-37c20.7,0.2,36.5,16.1,36.6,36.9
		C371.3,333.6,355,350.1,334.1,350z M357.7,313c0.1-13.4-10.2-23.9-23.5-24c-13.1-0.1-23.9,10.5-24.1,23.6
		c-0.1,13.2,10.2,23.6,23.7,23.7C347.7,336.4,357.6,326.6,357.7,313z"/>
	<path class="st1" d="M251.6,357.5c20.8,0.3,37.1,17.3,36.6,38.2c-0.5,20.3-17,36.3-37.5,36.2c-20.8-0.1-37.6-17-37.3-37.7
		C213.7,373.6,230.7,357.3,251.6,357.5z M251.2,418.5c13.1-0.1,23.9-11,23.7-24c-0.2-12.9-11.3-23.7-24.3-23.6
		c-13,0.2-24.1,11.4-23.8,24.1C227.1,408.1,238,418.6,251.2,418.5z"/>
	<path class="st1" d="M288.3,312.7c0.1,20.8-16.6,37.4-37.5,37.3c-20.6,0-37.7-17.2-37.3-37.7c0.3-20.2,16.9-36.6,37.2-36.7
		C271.6,275.5,288.2,291.8,288.3,312.7z M251.2,289c-13.1-0.2-24.1,10.5-24.3,23.5c-0.2,13.3,10.3,23.8,23.7,23.9
		c13.4,0.1,24.1-10.2,24.3-23.3C275.2,300.1,264.3,289.1,251.2,289z"/>
	<path class="st1" d="M251.7,193.8c20.9,0.3,37.1,17.1,36.5,38.1c-0.5,20.4-17,36.3-37.5,36.1c-20.7-0.2-37.6-17.2-37.3-37.7
		C213.7,209.7,230.7,193.5,251.7,193.8z M251.1,254.6c13.1,0,24-11,23.9-23.9c-0.1-13.1-10.9-23.7-24.2-23.6
		c-13.2,0.1-24,10.8-23.9,23.9C227,244.1,237.8,254.7,251.1,254.6z"/>
	<path class="st1" d="M168.4,349.9c-21.3,0.2-37.7-15.8-37.8-36.9c-0.1-21,16.2-37.4,37.2-37.5c20.6,0,36.9,15.9,37.2,36.4
		C205.4,333.1,189.4,349.7,168.4,349.9z M168,289c-13.3-0.1-23.9,10.4-23.9,23.6c-0.1,13.4,10.1,23.6,23.7,23.7
		c13.6,0.1,23.9-10.1,24-23.4C191.7,299.6,181.2,289.1,168,289z"/>
	<path class="st1" d="M168.2,357.5c20.9,0.1,37.2,16.9,36.9,37.9c-0.3,20.6-16.4,36.4-37.1,36.5c-21.1,0.1-37.4-16.2-37.4-37.3
		C130.6,373.7,147.2,357.4,168.2,357.5z M191.7,394.3c-0.2-13.2-11-23.7-24.2-23.5c-13.2,0.2-23.6,11-23.4,24.2
		c0.2,13.3,10.8,23.5,24.2,23.4C181.5,418.3,191.9,407.7,191.7,394.3z"/>
	<path class="st1" d="M167.9,193.8c21.2,0,37.4,16.4,37.2,37.4c-0.2,21.1-16.7,37.1-37.9,36.8c-20.6-0.3-36.6-16.4-36.6-37
		C130.5,209.9,146.7,193.7,167.9,193.8z M191.6,231.1c0.2-13.2-10.3-23.9-23.5-24c-13.3-0.1-24,10.3-24.1,23.5
		c-0.1,13.3,10.3,23.9,23.5,24.1C180.9,254.7,191.5,244.5,191.6,231.1z"/>
	<path class="st1" d="M371.1,396c-0.6,21-17.5,36.7-38.6,35.9c-21-0.8-36.4-17.6-35.7-38.9c0.7-20.5,18.1-36.2,39.3-35.4
		C356.4,358.3,371.7,375.1,371.1,396z M357.7,394.4c-0.2-13.4-10.8-23.7-24-23.5c-13.1,0.2-23.7,11.1-23.5,24.2
		c0.2,13.1,10.9,23.5,24.2,23.4C347.8,418.4,357.9,407.9,357.7,394.4z"/>
</g>
</svg>
