<svg xmlns="http://www.w3.org/2000/svg" viewBox="0 0 501 501"><defs><style>.cls-1{fill:#fff;}.cls-2{fill:none;}</style></defs><title>calcula_bl</title><g id="Capa_2" data-name="Capa 2"><g id="Capa_1-2" data-name="Capa 1"><path class="cls-1" d="M250.7,286.05a24.1,24.1,0,0,0-24.3,23.5,23.479,23.479,0,0,0,23.7,23.9,23.741,23.741,0,0,0,24.3-23.3C274.7,297.15,263.8,286.15,250.7,286.05Z"/><path class="cls-1" d="M250.6,251.65a23.752,23.752,0,1,0-24.2-23.6A24.094,24.094,0,0,0,250.6,251.65Z"/><path class="cls-1" d="M167.3,333.35c13.6.1,23.9-10.1,24-23.4a23.878,23.878,0,0,0-23.8-23.9,23.52,23.52,0,0,0-23.9,23.6C143.5,323.05,153.7,333.25,167.3,333.35Z"/><path class="cls-1" d="M167,367.85a23.8,23.8,0,0,0,.8,47.6,23.463,23.463,0,0,0,23.4-24.1A23.817,23.817,0,0,0,167,367.85Z"/><path class="cls-1" d="M147.1,136.65H353.7V84.25H147.1Z"/><path class="cls-1" d="M433.9,87.15c0-45.9-12.9-64.2-55.6-78.9H122.1c-41.5,11.5-55.4,39.4-55,78,1.2,111,.4,222.1.5,333.1,0,8.5.1,17.3,2.2,25.5,6.6,26.2,25.5,40.2,50.1,47.8q130.35,0,260.5.1c23.1-6.9,41.6-19.6,49.2-43.5,3-9.4,4.1-19.7,4.1-29.6Q434.146,253.3,433.9,87.15ZM167.5,428.95c-21.1.1-37.4-16.2-37.4-37.3,0-20.9,16.6-37.2,37.6-37.1a36.912,36.912,0,0,1,36.9,37.9C204.3,413.05,188.2,428.85,167.5,428.95Zm-37.4-118.9a37.2,37.2,0,0,1,74.4-1.1c.4,21.2-15.6,37.8-36.6,38C146.6,347.15,130.2,331.15,130.1,310.05Zm36.6-45a36.64,36.64,0,0,1-36.6-37c-.1-21.1,16.1-37.3,37.3-37.2,21.2,0,37.4,16.4,37.2,37.4C204.4,249.35,187.9,265.35,166.7,265.05Zm83.5,163.9a37.322,37.322,0,0,1-37.3-37.7c.3-20.6,17.3-36.9,38.2-36.7a37.2,37.2,0,0,1-.9,74.4Zm.1-81.9c-20.6,0-37.7-17.2-37.3-37.7a37.418,37.418,0,0,1,37.2-36.7,37.2,37.2,0,1,1,.1,74.4Zm-37.4-119.7c.3-20.6,17.3-36.8,38.3-36.5a37.1,37.1,0,0,1-1,74.2C229.5,264.85,212.6,247.85,212.9,227.35Zm157.7,165.7c-.6,21-17.5,36.7-38.6,35.9-21-.8-36.4-17.6-35.7-38.9.7-20.5,18.1-36.2,39.3-35.4C355.9,355.35,371.2,372.15,370.6,393.05ZM334,272.65c20.7.2,36.5,16.1,36.6,36.9.2,21.1-16.1,37.6-37,37.5a37.2,37.2,0,1,1,.4-74.4Zm-37.7-44.4c-.1-21.1,16-37.4,37.1-37.4,21.3-.1,37.3,16,37.2,37.2-.1,20.8-15.8,36.7-36.5,37C313,265.35,296.4,249.15,296.3,228.25Zm63.8-70.6c-36.8-.4-73.7-.2-110.6-.2H142c-13.6,0-15.4-1.9-15.5-15.7-.1-21.5.2-43-.1-64.5-.2-10.2,4.5-14.3,14.2-14.3,73.1.1,146.2,0,219.3.1,11.7,0,14.3,2.9,14.3,15,.1,21.9-.2,43.7.1,65.6C374.5,153.85,370.1,157.65,360.1,157.65Z"/><path class="cls-1" d="M333.3,333.35c13.9.1,23.8-9.7,23.9-23.3a23.46,23.46,0,0,0-23.5-24,24.009,24.009,0,0,0-24.1,23.6C309.5,322.85,319.8,333.25,333.3,333.35Z"/><path class="cls-1" d="M250.1,367.95c-13,.2-24.1,11.4-23.8,24.1a24.187,24.187,0,0,0,24.4,23.5,23.942,23.942,0,0,0,23.7-24A24.386,24.386,0,0,0,250.1,367.95Z"/><path class="cls-1" d="M167.6,204.15a23.8,23.8,0,0,0-.6,47.6c13.4,0,24-10.2,24.1-23.6A23.583,23.583,0,0,0,167.6,204.15Z"/><path class="cls-1" d="M333.2,367.95a23.8,23.8,0,1,0,.7,47.6c13.4-.1,23.5-10.6,23.3-24.1A23.518,23.518,0,0,0,333.2,367.95Z"/><path class="cls-1" d="M333,251.65a23.2,23.2,0,0,0,24.2-23.2c.2-13.7-9.7-24.1-23.1-24.3a23.757,23.757,0,1,0-1.1,47.5Z"/><rect class="cls-2" width="501" height="501"/></g></g></svg>