<svg xmlns="http://www.w3.org/2000/svg" xmlns:xlink="http://www.w3.org/1999/xlink" viewBox="0 0 299 141.587"><defs><style>.cls-1,.cls-17{fill:none;}.cls-2{fill:#b0fade;}.cls-17,.cls-2{stroke:#444b56;stroke-miterlimit:10;stroke-width:3px;}.cls-3{fill:#3f6bc4;}.cls-4{fill:#31599d;}.cls-5{fill:#db365b;}.cls-6{fill:#f4e46c;}.cls-7{fill:#3d444b;}.cls-8{fill:#de8f52;}.cls-9{fill:#b3c0d1;}.cls-10{clip-path:url(#clip-path);}.cls-11{fill:#8be0fd;}.cls-12{fill:#9ee7fd;}.cls-13{fill:#a8edfe;}.cls-14{clip-path:url(#clip-path-2);}.cls-15{fill:#3d454c;}.cls-16{fill:#fcfcfd;}.cls-18{fill:#464e58;}.cls-19{fill:#ad3838;}.cls-20{fill:#ea5a47;}.cls-21{fill:#f3f3f3;}.cls-21,.cls-22{opacity:0.46;}.cls-22{fill:#acb7b9;}.cls-23{fill:#fefefe;}</style><clipPath id="clip-path"><path class="cls-1" d="M196.685,47.239h-63.78V22.877S167.8,16.786,196.685,47.239Z"/></clipPath><clipPath id="clip-path-2"><path class="cls-1" d="M129.295,22.877V47.239s-33.487-1.218-41.858-3.655C87.437,43.584,110.16,26.531,129.295,22.877Z"/></clipPath></defs><title>carro-lupa</title><g id="Capa_2" data-name="Capa 2"><g id="Capa_1-2" data-name="Capa 1"><rect class="cls-2" x="1.5" y="102.054" width="296" height="18.881" rx="6.5" ry="6.5"/><path class="cls-3" d="M52.352,70.3q.035,5.543.071,11.083c2-.013,4.012-.1,6.012-.024,6.605.261,12.447-.324,18.4-4.786,9.2-6.89,18.535-5.606,27.439,1.812A12.575,12.575,0,0,0,113,81.406q40.288-.175,80.579.008c5.761.036,10.641-.9,15.53-4.591,9.644-7.282,17.524-7.28,26.96.067a19.791,19.791,0,0,0,14.774,4.486c2.187-.187,4.406.014,6.611.038q-.359-6.061-.715-12.121c-4.216-1.032-8.628-1.554-12.039-4.7-4.309.24-5.671-2.845-6.581-6.2-.739-2.722,1.084-2.262,2.677-1.884l8.593-1.337c-6.143-5.495-13.821-6.441-21.408-6.494a56.934,56.934,0,0,1-34.962-11.944c-12.468-9.354-26.22-16.28-41.848-18.825a84.2,84.2,0,0,0-51.491,7.309C87.607,31.086,75.827,37.582,63.916,43.8c-.592,4.164-1.687,8.33-1.668,12.491C62.281,63.6,58.538,67.722,52.352,70.3Zm84.666-17.169c1.854.52,5.13-1.057,5.275,2.009.126,2.665-2.967,1.937-4.751,1.874-1.941-.069-5.175,1.156-5.32-1.89C132.092,52.41,135.192,53.5,137.018,53.128Z"/><path class="cls-4" d="M257.458,81.414c-2.205-.024-4.424-.225-6.611-.038a19.791,19.791,0,0,1-14.774-4.486c-9.436-7.347-17.316-7.349-26.96-.067-4.889,3.69-9.769,4.627-15.53,4.591q-40.289-.246-80.579-.008a12.575,12.575,0,0,1-8.727-3.024c-8.9-7.418-18.244-8.7-27.439-1.812-5.956,4.462-11.8,5.047-18.4,4.786-2-.079-4.008.011-6.012.024-.117,2.2-.307,4.4-.332,6.6-.037,3.2,1.61,4.794,4.779,4.8,4.369.014,8.738.051,13.108.077.3-.966.571-1.939.9-2.895,2.954-8.647,8.576-13.308,16.375-13.591,9.956-.362,16.054,3.442,19.834,12.358.544,1.284,1.126,2.552,1.691,3.827q47.289-.151,94.577-.3c3.812-11.335,9.3-15.885,19.157-15.893,9.893-.007,15.539,4.653,19.184,15.833,2.177.035,4.354.1,6.531.1C258.743,92.305,258.9,92.118,257.458,81.414Z"/><path class="cls-5" d="M52.352,70.3c6.186-2.575,9.929-6.694,9.9-14.007-.019-4.161,1.076-8.327,1.668-12.491l-7.163,1.418c.815,4.613,1.149,10.71-1.481,13.131-3.357,3.09-2.524,6.123-3.314,9.259Z"/><path class="cls-6" d="M249.393,55.172q-4.3.669-8.592,1.336c.3,3.19,2.677,5.352,3.9,8.085,3.411,3.146,7.823,3.668,12.039,4.7A23.128,23.128,0,0,0,249.393,55.172Z"/><path class="cls-6" d="M51.958,67.607c.79-3.136-.043-6.169,3.314-9.259,2.63-2.421,2.3-8.518,1.481-13.131-4.022-.781-5.456,1.141-5.3,4.994C51.69,56.007,51.8,61.808,51.958,67.607Z"/><path class="cls-7" d="M137.018,53.128c-1.826.376-4.926-.718-4.8,1.993.145,3.046,3.379,1.821,5.32,1.89,1.784.063,4.877.791,4.751-1.874C142.148,52.071,138.872,53.648,137.018,53.128Z"/><path class="cls-8" d="M244.7,64.593c-1.226-2.733-3.605-4.9-3.9-8.085-1.594-.377-3.417-.837-2.678,1.885C239.033,61.748,240.4,64.833,244.7,64.593Z"/><path class="cls-9" d="M210.024,93.5c1.5-1.035,3.045-2.062.727-3.838C209.042,90.661,209.78,92.13,210.024,93.5Z"/><g class="cls-10"><path class="cls-11" d="M170.518,29.584c-11.243-5.625-23.258-7.048-35.609-6.933-3.916.036-5.3,1.677-5.125,5.517.269,6.063-1.75,13.315.875,17.9,3.082,5.389,10.989,1.321,16.676,2.5a51.056,51.056,0,0,0,14.466.8C164.485,42.677,164.264,34.666,170.518,29.584Z"/><path class="cls-12" d="M168.659,49.409c11.568,2.393,23.307,1.105,35.247,1.375-9.748-6.764-18.524-14.883-29.682-19.336C173.219,37.705,169.065,42.961,168.659,49.409Z"/><path class="cls-13" d="M168.659,49.409c.406-6.448,4.56-11.7,5.565-17.961q-1.854-.931-3.707-1.863c-6.253,5.081-6.032,13.092-8.716,19.788Z"/></g><g class="cls-14"><path class="cls-11" d="M118.982,47.967c13.342,2.877,13.342,2.877,13.34-15.954,0-1.812-.009-3.635.019-5.433.093-5.855-2.159-6.824-7.232-3.565C123.939,32.817,119.5,37.876,118.982,47.967Z"/><path class="cls-12" d="M111.086,27.282C101.937,31.546,94.165,39.453,84.3,45.549c8.413,2.837,15.56,2.627,22.72,2.168C107.843,40.7,111.611,34.809,111.086,27.282Z"/><path class="cls-11" d="M111.086,27.282c.525,7.527-3.243,13.421-4.068,20.435l8.009.158c.641-8.963,4.058-16.826,5.3-25.549C116.832,22.493,113.974,24.941,111.086,27.282Z"/><path class="cls-13" d="M118.83,25.306c-1.246,8.724-3.162,13.606-3.8,22.569l3.955.093c.517-10.092,4.957-15.151,6.127-24.953C123.254,23.319,120.309,23.443,118.83,25.306Z"/></g><ellipse class="cls-15" cx="222.96" cy="94.136" rx="19.255" ry="19.49"/><ellipse class="cls-9" cx="222.96" cy="94.136" rx="13.839" ry="14.008"/><ellipse class="cls-16" cx="222.96" cy="94.136" rx="7.22" ry="7.309"/><ellipse class="cls-15" cx="89.382" cy="94.136" rx="19.255" ry="19.49"/><ellipse class="cls-9" cx="89.382" cy="94.136" rx="13.839" ry="14.008"/><ellipse class="cls-16" cx="89.382" cy="94.136" rx="7.22" ry="7.309"/><path class="cls-17" d="M257.458,81.414q-.359-6.061-.715-12.121a23.128,23.128,0,0,0-7.35-14.121c-6.143-5.495-13.821-6.441-21.408-6.494a56.934,56.934,0,0,1-34.962-11.944c-12.468-9.354-26.22-16.28-41.848-18.825a84.2,84.2,0,0,0-51.491,7.309C87.607,31.086,75.827,37.582,63.916,43.8l-7.163,1.418c-4.022-.781-5.456,1.141-5.3,4.994.236,5.8.342,11.6.5,17.4q.2,1.346.394,2.69l.071,11.083c-.117,2.2-.307,4.4-.332,6.6-.037,3.2,1.61,4.794,4.778,4.8,4.37.014,8.74.051,13.109.077.3-.966.571-1.94.9-2.895,2.954-8.647,8.576-13.308,16.375-13.591,9.956-.362,16.054,3.442,19.834,12.358.544,1.284,1.126,2.552,1.691,3.827q47.289-.151,94.577-.3c3.812-11.335,9.3-15.885,19.157-15.893,9.892-.007,15.539,4.653,19.184,15.833,2.177.035,4.354.1,6.531.1C258.743,92.305,258.9,92.118,257.458,81.414Z"/><path class="cls-18" d="M198.728,7.959l-3.5-2.158-1.311-.7-4.67-2.083-1-.386-4.335-1.286a2.977,2.977,0,0,1-1.673-.423l-5.117-.76A4.171,4.171,0,0,1,174.967,0l-5.412.113a6.511,6.511,0,0,1-2.541.222L160.4,1.605c-.7.547-1.593.489-2.375.774a61.406,61.406,0,0,0-9.746,4.606l-5.169,3.643a58.736,58.736,0,0,0-10.28,12.082l-2.714,5.54a64.762,64.762,0,0,0-2.914,9.916l-.437,2.961-.162,6.684a6.082,6.082,0,0,1,.194,2.524q.4,2.658.8,5.314a3.909,3.909,0,0,1,.522,2.069l1.617,4.874a2.865,2.865,0,0,1,.693,1.572l2.01,4.02.553.919,2.853,4.212.919,1.165,2.74,3.068,1,.955,3.733,3.25,1.109.821,3.789,2.508,1.294.734,4.285,2.035.856.35,5.048,1.687,1.01.214,4.747.877,2.077.253,5.436.218,2.1-.125,6.642-.992,2.486-.6,8.554-3.313c.925-.759,1.848-1.469,2.638.145l3.113,2.625,1.4,1.176a11.682,11.682,0,0,0,4.225,2.014l.923.115a7.812,7.812,0,0,0,3.848-1.291c1.184-1.006,2-.83,2.8.342a5.327,5.327,0,0,1,1.767,1.479l2.763,2.314c1.413.619.851,1.774.771,2.8l1.227,5.338c.423.267.466.727.592,1.145l2.395,3.369,1.342,1.337a16.411,16.411,0,0,1,3.123,2.622l1.4,1.174a15.99,15.99,0,0,1,3.128,2.618l1.4,1.175a16.013,16.013,0,0,1,3.127,2.618l1.4,1.174a15.989,15.989,0,0,1,3.127,2.619l1.4,1.174a15.984,15.984,0,0,1,3.127,2.618l1.4,1.175a16.019,16.019,0,0,1,3.128,2.618l1.4,1.174a16.03,16.03,0,0,1,3.128,2.619l1.4,1.174,3.137,2.593.9.608,5.038,2.195,1.047.173a26.992,26.992,0,0,0,5.474,0l2.368-.508A16.944,16.944,0,0,0,284.216,128q.045-1.212.088-2.424a27.316,27.316,0,0,0-.942-5.339l-.342-.985q-1.518-2.283-3.035-4.565l-.76-.779-3.1-2.63L274.72,110.1a16.015,16.015,0,0,1-3.123-2.615l-1.408-1.178a16.039,16.039,0,0,1-3.123-2.615l-1.407-1.178a16.039,16.039,0,0,1-3.123-2.615l-1.407-1.178a16.034,16.034,0,0,1-3.123-2.614L256.6,94.927a16.009,16.009,0,0,1-3.123-2.615l-1.407-1.178a15.98,15.98,0,0,1-3.123-2.615l-1.407-1.178a16.357,16.357,0,0,1-3.126-2.609l-1.563-1.084L239.1,81.892c-.43-.084-.908-.015-1.242-.394l-5.5-.285c-1.01.23-2.076.941-2.913-.327l-2.759-2.308a5.427,5.427,0,0,1-1.782-1.491c-1.1-.546-1.743-1.132-.876-2.49a7.534,7.534,0,0,0,.715-4.165l-.264-.862a11.516,11.516,0,0,0-2.716-3.806l-1.408-1.178-3.128-2.6c-1.74-.5-1.194-1.525-.587-2.561q.929-4.459,1.856-8.92l.183-2.531q-.063-3.33-.128-6.661l-.231-2.074q-.567-2.64-1.133-5.28l-.6-1.979-1.405-4.047c-.456-.352-.481-.9-.634-1.388L212,21.879q-.232-.383-.464-.764l-2.755-3.855-.945-1.138-3.129-3.291-1-.939-3.862-3.113Zm78.5,125.28a11.727,11.727,0,0,1-16.762,1.527c-11.419-9.439-22.743-18.991-34.093-28.513-2.695-2.261-4.484-5.294-4.155-8.671a5.581,5.581,0,0,0-2.837-5.91,19.584,19.584,0,0,1-1.768-1.462c-4-3.366-4-3.366-.307-7.143.83-1.024,1.7-2.018,2.478-3.08.6-.82,1.082-.81,1.832-.151,1.983,1.744,4.069,3.373,6.041,5.128a3.039,3.039,0,0,0,3.325.828,11.07,11.07,0,0,1,10.907,2.318q17.183,14.246,34.225,28.656A11.481,11.481,0,0,1,277.225,133.239ZM145.389,14.4a4.061,4.061,0,0,1,.531-.637c8.583-6.914,18.409-10.319,29.43-9.566a40.923,40.923,0,0,1,26.643,11.887c9.4,9.235,13.538,20.518,12.38,33.438-1.126,12.574-7.236,22.678-17.567,30.112a36.01,36.01,0,0,1-14.558,6.425,36.71,36.71,0,0,1-11.8,1.1,40.017,40.017,0,0,1-26.02-10.775C133.662,66.435,129.158,54,131.277,39.528A39,39,0,0,1,145.389,14.4Zm69.045,50.658c1.74,1.483,3.475,2.876,5.106,4.379a2.826,2.826,0,0,1,.268,4.262q-5.631,6.72-11.368,13.352c-1.4,1.608-2.9,1.667-4.6.341-1.207-.942-2.3-2.03-3.545-2.917-1.266-.905-1.453-1.422,0-2.478a40.031,40.031,0,0,0,9.98-10.281C211.685,69.579,212.987,67.379,214.434,65.053Z"/><path class="cls-19" d="M182.248,86.054a36.01,36.01,0,0,0,14.558-6.425c10.331-7.434,16.441-17.538,17.567-30.112,1.158-12.92-2.981-24.2-12.38-33.438A40.923,40.923,0,0,0,175.35,4.192c-11.021-.753-20.847,2.652-29.43,9.566a4.024,4.024,0,0,0-.531.638c.8.159,1.611.279,2.428.38,2.217.272,4.527.034,6.629,1.03a37.124,37.124,0,0,1,18.1-4.928,33.87,33.87,0,0,1,22.041,7.6c9.292,7.532,13.729,17.337,13.117,29.3a33.745,33.745,0,0,1-9.5,21.8,37.483,37.483,0,0,1-12.811,8.731c1.33.407.325,1.052.1,1.508C184.444,81.917,183.335,83.98,182.248,86.054Z"/><path class="cls-20" d="M217.3,83.067c-3.688,3.777-3.688,3.777.307,7.143a19.584,19.584,0,0,0,1.768,1.462,5.581,5.581,0,0,1,2.837,5.91c-.329,3.377,1.46,6.41,4.155,8.671,11.35,9.522,22.674,19.074,34.093,28.513a11.727,11.727,0,0,0,16.762-1.527c-2.661-2.19-5.3-4.407-7.938-6.623-4.378-3.683-8.74-7.381-13.161-11.015-1.75-1.44-3.475-2.927-5.217-4.388-4.071-3.416-8.087-6.895-12.165-10.3-3.435-2.87-7.02-5.569-10.366-8.535C224.765,89.176,221,86.159,217.3,83.067Z"/><path class="cls-19" d="M217.3,83.067c3.7,3.092,7.462,6.109,11.075,9.31,3.346,2.966,6.931,5.665,10.366,8.535,4.078,3.406,8.094,6.885,12.165,10.3,1.742,1.461,3.467,2.948,5.217,4.388,4.421,3.634,8.783,7.332,13.161,11.015,2.634,2.216,5.277,4.433,7.938,6.623a11.481,11.481,0,0,0-1.114-16.473q-17.024-14.432-34.225-28.656a11.07,11.07,0,0,0-10.907-2.318,3.039,3.039,0,0,1-3.325-.828c-1.972-1.755-4.058-3.384-6.041-5.128-.75-.659-1.231-.669-1.832.151C219,81.049,218.133,82.043,217.3,83.067Z"/><path class="cls-20" d="M154.446,15.806c-2.1-1-4.412-.758-6.629-1.03-.817-.1-1.624-.221-2.428-.38a38.991,38.991,0,0,0-14.112,25.132C129.158,54,133.662,66.435,144.429,76.382a40.017,40.017,0,0,0,26.02,10.775,36.71,36.71,0,0,0,11.8-1.1c1.087-2.074,2.2-4.137,3.242-6.232.227-.456,1.232-1.1-.1-1.508A39.288,39.288,0,0,1,170.6,80.533a34.857,34.857,0,0,1-32.678-40.078C139.63,29.73,145.446,21.721,154.446,15.806Z"/><path class="cls-20" d="M214.434,65.053c-1.447,2.326-2.749,4.526-4.158,6.658a40.031,40.031,0,0,1-9.98,10.281c-1.453,1.056-1.266,1.573,0,2.478,1.243.887,2.338,1.975,3.545,2.917,1.7,1.326,3.2,1.267,4.6-.341q5.746-6.623,11.368-13.352a2.826,2.826,0,0,0-.268-4.262C217.909,67.929,216.174,66.536,214.434,65.053Z"/><path class="cls-18" d="M154.446,15.806c-9,5.915-14.816,13.924-16.52,24.649A34.857,34.857,0,0,0,170.6,80.533a39.288,39.288,0,0,0,14.788-2.219A37.483,37.483,0,0,0,198.2,69.583a33.745,33.745,0,0,0,9.5-21.8c.612-11.967-3.825-21.772-13.117-29.3a33.87,33.87,0,0,0-22.041-7.6A37.124,37.124,0,0,0,154.446,15.806Zm-12.508,32.5c-.71-1.175-.278-2.43-.243-3.654.5-17.466,16.364-31.546,33.749-29.6,12.838,1.437,22.072,8.253,26.373,20.363,4.321,12.166,1.559,23.257-7.72,32.423a27.21,27.21,0,0,1-18.622,8.3C158.686,78.152,142.705,64.89,141.938,48.307Z"/><path class="cls-21" d="M141.938,48.307c.767,16.583,16.748,29.845,33.537,27.832.036-.635.547-.666,1-.859a25.978,25.978,0,0,0,9.276-6.234q9.894-10.8,6.408-24.949a25.358,25.358,0,0,0-27.027-19.334c-11.891,1.158-19.971,9.77-22.321,19.815C142.524,45.818,142.774,47.2,141.938,48.307ZM173.2,71.028a19.776,19.776,0,0,1-6.608-.522,28.565,28.565,0,0,1-8.967-4.269c-6.361-4.425-9.474-10.588-10.526-18a2.155,2.155,0,0,1,1.785-2.634c1.374-.255,1.981.909,2.27,1.985.266.99.476,2,.7,3.01,2.471,10.911,11.722,16.446,22.03,16.587,1.4.019,2.6.053,2.7,1.76.088,1.58-1.025,1.942-2.342,1.995C173.893,70.956,173.545,71,173.2,71.028Z"/><path class="cls-22" d="M192.162,44.1q3.513,14.17-6.408,24.949a25.978,25.978,0,0,1-9.276,6.234c-.456.193-.967.224-1,.859a27.21,27.21,0,0,0,18.622-8.3c9.279-9.166,12.041-20.257,7.72-32.423-4.3-12.11-13.535-18.926-26.373-20.363-17.385-1.945-33.253,12.135-33.749,29.6-.035,1.224-.467,2.479.243,3.654.836-1.111.586-2.489.876-3.729,2.35-10.045,10.43-18.657,22.321-19.815A25.358,25.358,0,0,1,192.162,44.1"/><path class="cls-23" d="M173.2,71.028c.348-.029.7-.072,1.044-.086,1.317-.053,2.43-.415,2.342-1.995-.1-1.707-1.3-1.741-2.7-1.76-10.308-.141-19.559-5.676-22.03-16.587-.228-1.005-.438-2.02-.7-3.01-.289-1.076-.9-2.24-2.27-1.985a2.155,2.155,0,0,0-1.785,2.634c1.052,7.41,4.165,13.573,10.526,18a28.565,28.565,0,0,0,8.967,4.269A19.776,19.776,0,0,0,173.2,71.028Z"/></g></g></svg>