<svg xmlns="http://www.w3.org/2000/svg" xmlns:xlink="http://www.w3.org/1999/xlink" viewBox="0 0 213.373 6.841"><defs><style>.cls-1{fill:url(#linear-gradient);}.cls-2{fill:url(#linear-gradient-2);}.cls-3{fill:#fff;}.cls-4{opacity:0.5;}.cls-5{fill:url(#linear-gradient-3);}.cls-6{fill:url(#linear-gradient-4);}</style><linearGradient id="linear-gradient" x1="213.373" y1="-5734.58" x2="90.725" y2="-5734.58" gradientTransform="matrix(1, 0, 0, -1, 0, -5731.159)" gradientUnits="userSpaceOnUse"><stop offset="0" stop-color="#120555"/><stop offset="0.21" stop-color="#120c59"/><stop offset="0.402" stop-color="#141763"/><stop offset="0.587" stop-color="#192774"/><stop offset="0.768" stop-color="#243d8c"/><stop offset="0.944" stop-color="#345bae"/><stop offset="1" stop-color="#3a67ba"/></linearGradient><linearGradient id="linear-gradient-2" y1="-5734.58" x2="100.271" y2="-5734.58" gradientTransform="matrix(1, 0, 0, -1, 0, -5731.159)" gradientUnits="userSpaceOnUse"><stop offset="0" stop-color="#801201"/><stop offset="0.13" stop-color="#861201"/><stop offset="0.342" stop-color="#9b1201"/><stop offset="0.4" stop-color="#a21201"/><stop offset="1" stop-color="#da2304"/></linearGradient><linearGradient id="linear-gradient-3" y1="-5734.58" x2="43.629" y2="-5734.58" gradientTransform="matrix(1, 0, 0, -1, 0, -5731.159)" gradientUnits="userSpaceOnUse"><stop offset="0.207" stop-color="#6d2204"/><stop offset="1" stop-color="#6d2204" stop-opacity="0"/></linearGradient><linearGradient id="linear-gradient-4" x1="170.413" y1="-5734.58" x2="213.373" y2="-5734.58" gradientTransform="matrix(1, 0, 0, -1, 0, -5731.159)" gradientUnits="userSpaceOnUse"><stop offset="0" stop-color="#000040" stop-opacity="0"/><stop offset="0.79" stop-color="#000040"/></linearGradient></defs><title>cinta_logo</title><g id="Capa_2" data-name="Capa 2"><g id="Capa_1-2" data-name="Capa 1"><polygon class="cls-1" points="90.725 6.841 213.373 6.841 208.889 0 90.725 0 90.725 6.841"/><polygon class="cls-2" points="100.271 0 2.493 0 0 6.841 97.824 6.841 100.271 0"/><polygon class="cls-3" points="94.783 2.28 92.442 2.28 93.263 0 95.62 0 94.783 2.28"/><polygon class="cls-3" points="99.466 2.28 97.125 2.28 97.961 0 100.302 0 99.466 2.28"/><polygon class="cls-3" points="96.319 4.561 93.947 4.561 94.783 2.28 97.125 2.28 96.319 4.561"/><polygon class="cls-3" points="91.546 4.561 89.204 4.561 90.025 2.28 92.382 2.28 91.546 4.561"/><polygon class="cls-3" points="97.839 6.841 95.468 6.841 96.288 4.561 98.645 4.561 97.839 6.841"/><polygon class="cls-3" points="93.126 6.841 90.785 6.841 91.622 4.561 93.963 4.561 93.126 6.841"/><polygon class="cls-3" points="101.077 4.561 98.63 4.561 99.466 2.28 101.898 2.28 101.077 4.561"/><polygon class="cls-3" points="104.254 2.28 101.913 2.28 102.749 0 105.09 0 104.254 2.28"/><polygon class="cls-3" points="105.774 4.561 103.433 4.561 104.254 2.28 106.595 2.28 105.774 4.561"/><polygon class="cls-3" points="102.612 6.841 100.271 6.841 101.092 4.561 103.433 4.561 102.612 6.841"/><g class="cls-4"><polygon class="cls-5" points="43.629 6.841 43.629 0 28.002 0 2.493 0 0 6.841 43.629 6.841"/></g><g class="cls-4"><polygon class="cls-6" points="213.373 6.841 208.889 0 198.262 0 170.413 0 170.413 6.841 213.373 6.841"/></g></g></g></svg>