<svg xmlns="http://www.w3.org/2000/svg" viewBox="0 0 501 501"><defs><style>.cls-1,.cls-2,.cls-4{fill:none;}.cls-2,.cls-3,.cls-4,.cls-5{stroke:#001366;stroke-miterlimit:10;}.cls-2,.cls-3{stroke-width:4px;}.cls-3,.cls-5{fill:#001366;}.cls-4{stroke-width:6px;}</style></defs><title>comparar</title><g id="Capa_2" data-name="Capa 2"><g id="Capa_1-2" data-name="Capa 1"><path class="cls-1" d="M146.123,96.025c-7.179,1.653-16.7,5.86-19.5,11.624-13.02,26.766-24.056,54.5-35.65,81.524H250.5V86.414C215.519,86.034,180.653,88.076,146.123,96.025Z"/><path class="cls-1" d="M409.012,189.173c-7.044-19.4-14.641-39.356-21.54-59.553-8.2-24.02-24.27-36.69-49.932-37.563-10.471-.356-20.854-2.92-31.334-3.516-18.578-1.057-37.157-1.926-55.706-2.127V189.173Z"/><path class="cls-1" d="M101.171,242.465A34.412,34.412,0,0,0,67.819,276.3c-.1,18.958,15.243,34.09,34.493,34.011,19.319-.079,34.061-15.085,33.8-34.405A33.823,33.823,0,0,0,101.171,242.465Z"/><path class="cls-1" d="M400.291,242.479c-18.985-.14-34.7,15.295-34.666,34.036a33.889,33.889,0,0,0,33.242,33.793c19.449.51,34.732-13.959,35.049-33.184C434.236,257.75,419.552,242.619,400.291,242.479Z"/><path class="cls-2" d="M489.256,157.771c-8.57-9.815-23.324-5.339-34.463,1.994-7.328,4.826-14.116,10.47-18.38,13.671-10.484-22.93-22.06-49.314-34.563-75.251C391.428,76.566,372.882,65.833,349.6,62.5a648.916,648.916,0,0,0-76.443-6.186V86.98c11.014.395,53.621,2.091,64.384,5.077,24.743,6.864,41.727,13.543,49.932,37.563,6.9,20.2,14.5,40.156,21.54,59.553H273.156v221.71c48.747.017,90.448,0,90.505-.116h18.67c0,6.532-1.22,13.3.37,19.328,1.368,5.192,5.539,13.23,9.157,13.617a215.084,215.084,0,0,0,44.664.084c3.555-.366,7.762-8.5,9.006-13.7,1.592-6.644.048-13.977.715-20.93a24.35,24.35,0,0,1,4.033-10.267c6.245-9.71,16.683-18.441,18.661-28.849,5.3-27.867,7.969-56.345,9.918-84.7,1.871-27.258-8.564-50.913-26.328-71.4-3.154-3.638-6.383-7.21-11.269-12.723,13.669,0,25.158,1.1,36.276-.446,5.9-.821,15.548-5.856,15.875-9.647C494.378,179.91,495.5,164.916,489.256,157.771ZM398.867,310.308a33.889,33.889,0,0,1-33.242-33.793c-.039-18.741,15.681-34.176,34.666-34.036,19.261.14,33.945,15.271,33.625,34.645C433.6,296.349,418.316,310.818,398.867,310.308Z"/><path class="cls-3" d="M228,189.173H90.972c11.594-27.027,22.63-54.758,35.65-81.524,2.8-5.764,12.322-9.971,19.5-11.624,27.119-6.244,54.45-8.813,81.877-9.457V56.5c-22.38.7-44.772,2.235-67.176,4.367-30.75,2.927-52.656,17.912-65.269,45.856-8.405,18.618-15.784,37.7-23.465,56.638-2.1,5.166-3.628,10.561-5.957,17.446-10.267-15.689-20.507-27.624-39.067-27.4-15.244.188-19.914,4.837-20.2,21.1-.379,21.3,3.034,26.264,19.012,26.668,11.142.283,22.3.055,36.33.055C36.99,225.723,23.19,251.819,23.87,283.686c.48,22.491,1.515,45.147,4.895,67.335,2.129,13.988,5.2,31.988,14.721,39.7C57.2,401.837,55.56,413.637,57.108,427.02c.7,6.047,5.428,16.208,9.062,16.543,15.641,1.439,32.322,2.486,46.957-1.9,5.124-1.535,5.442-19.072,8.007-29.29a4.717,4.717,0,0,1,.8-1.609c2.322,0,52.216.056,106.07.092ZM102.312,310.31c-19.25.079-34.594-15.053-34.493-34.011a34.412,34.412,0,0,1,33.352-33.834A33.823,33.823,0,0,1,136.11,275.9C136.373,295.225,121.631,310.231,102.312,310.31Z"/><line class="cls-4" x1="250.5" y1="56.083" x2="250.5" y2="410.873"/><path class="cls-5" d="M398.867,310.308a33.889,33.889,0,0,1-33.242-33.793c-.039-18.741,15.681-34.176,34.666-34.036,19.261.14,33.945,15.271,33.625,34.645C433.6,296.349,418.316,310.818,398.867,310.308Z"/><rect class="cls-1" width="501" height="501"/></g></g></svg>