<?xml version="1.0" encoding="utf-8"?>
<!-- Generator: Adobe Illustrator 19.0.1, SVG Export Plug-In . SVG Version: 6.00 Build 0)  -->
<svg version="1.1" id="Layer_1" xmlns="http://www.w3.org/2000/svg" xmlns:xlink="http://www.w3.org/1999/xlink" x="0px" y="0px"
	 viewBox="0 0 500 500" style="enable-background:new 0 0 500 500;" xml:space="preserve">
<style type="text/css">
	.st0{fill:#000B68;}
	.st1{fill:#FFFFFF;}
</style>
<g>
	<path class="st0" d="M383.2,399.4c-88.2,0-174.1,0-260.6,0c0-0.1-0.6,0.7-0.8,1.6c-2.6,10.2-2.9,27.8-8,29.3
		c-14.6,4.4-31.3,3.3-47,1.9c-3.6-0.3-8.4-10.5-9.1-16.6c-1.5-13.4,0.1-25.2-13.6-36.3c-9.5-7.7-12.6-25.7-14.7-39.7
		c-3.4-22.2-4.4-44.9-4.9-67.4c-0.7-31.9,13.1-58,38.4-82.5c-14,0-25.2,0.2-36.4-0.1c-16-0.4-19.4-5.4-19-26.7
		c0.3-16.3,5-20.9,20.2-21.1c18.6-0.2,28.8,11.7,39.1,27.4c2.3-6.9,3.9-12.3,6-17.5c7.7-19,15.1-38.1,23.5-56.7
		c12.6-28,34.6-43,65.3-45.9c63.1-6,126-7.4,189,1.6c23.3,3.3,41.9,14.1,52.3,35.7c12.5,26,24.1,52.4,34.6,75.3
		c4.3-3.2,11.1-8.9,18.4-13.7c11.1-7.3,25.9-11.8,34.5-2c6.2,7.2,5.1,22.2,4.2,33.4c-0.3,3.8-10,8.8-15.9,9.7
		c-11.1,1.5-22.6,0.4-36.3,0.4c4.9,5.5,8.1,9.1,11.3,12.7c17.8,20.5,28.2,44.2,26.4,71.5c-1.9,28.4-4.6,56.9-9.9,84.8
		c-2,10.4-12.4,19.2-18.7,28.9c-2,3.1-3.7,6.7-4,10.3c-0.7,7,0.9,14.3-0.7,20.9c-1.2,5.2-5.5,13.3-9,13.7
		c-14.8,1.5-29.9,1.5-44.7-0.1c-3.6-0.4-7.8-8.4-9.2-13.6C382,412.7,383.2,406,383.2,399.4z M409.9,177.6
		c-7.1-19.4-14.7-39.4-21.6-59.6c-8.2-24-24.3-36.7-50-37.6c-10.5-0.4-20.9-2.9-31.4-3.5c-53.7-3.1-107.3-4.7-160.2,7.5
		c-7.2,1.7-16.7,5.9-19.5,11.6c-13,26.8-24.1,54.5-35.7,81.6C199.2,177.6,303.3,177.6,409.9,177.6z M136.8,264.4
		c-0.3-19-15.8-34-35-33.5c-18.3,0.5-33.3,15.7-33.4,33.9c-0.1,19,15.3,34.1,34.5,34C122.3,298.8,137.1,283.8,136.8,264.4z
		 M434.9,265.7c0.3-19.4-14.4-34.5-33.7-34.7c-19-0.1-34.7,15.3-34.7,34.1c0,18.4,14.7,33.3,33.3,33.8
		C419.3,299.4,434.6,284.9,434.9,265.7z"/>
	<g>
		<path class="st0" d="M379.6,355.9c-2.2,8.1-4,16.5-6.8,24.4c-17.9,50.3-53.6,80.6-106.3,86.8c-51.7,6.1-94.5-13-122.7-57.4
			c-39.8-62.6-20.8-141.5,41.1-179.3c77.7-47.4,179.9,0.7,192.6,90.6c0.2,1.6,1.4,3.1,2.1,4.6C379.6,335.7,379.6,345.8,379.6,355.9z
			 M250.1,438.5c50.9,2.9,99.8-41.8,99.6-97c-0.1-55.2-43.5-99.8-98.1-100.3c-53.7-0.5-99,44.4-99.1,98.2
			C152.4,394.5,195.7,438.5,250.1,438.5z"/>
		<g>
			<path class="st1" d="M250.1,438.5c50.9,2.9,99.8-41.8,99.6-97c-0.1-55.2-43.5-99.8-98.1-100.3c-53.7-0.5-99,44.4-99.1,98.2
				C152.4,394.5,195.7,438.5,250.1,438.5z"/>
			<path class="st0" d="M247.9,408.8c-1.6-2.8-4.6-5.6-4.6-8.3c0.1-7.5-3.5-10.2-10.3-10.7c-2.8-0.2-6.2-0.7-8.1-2.4
				c-2.6-2.3-5.7-6-5.5-8.9c0.3-5.6,4-8.8,10.5-6.9c6.1,1.8,12.4,3.5,18.7,4.2c7.7,0.9,14.6-2.9,15.3-10.3c0.4-4.7-4-10.9-8-14.5
				c-4.3-3.9-10.7-5.5-16.3-8c-11.5-5.2-20.2-12.6-20.2-26.4c0-13.1,7.1-21,18.6-26.3c2.8-1.3,3.7-6.4,5.9-9.4
				c2.1-2.9,4.9-5.4,7.3-8.1c2.5,2.5,7.4,5.2,7.2,7.6c-0.4,10.2,7.6,9.3,13.1,10.6c7.2,1.7,10.9,4.6,6.3,11.6
				c-1.5,2.3-5.7,4.1-8.7,4c-5.6-0.1-11.4-3.2-16.7-2.3c-4.8,0.8-11.9,4.6-12.7,8.2c-0.9,3.7,3.7,10.2,7.6,13.2
				c5.9,4.4,13.4,6.5,20.1,10c11.1,5.8,17.2,15,16.6,27.8c-0.6,12.3-7.2,20.9-18.5,25.3c-5.5,2.2-7.6,4.9-7.7,10.9
				c0,3.2-3.6,6.3-5.6,9.5C251,409,249.5,408.9,247.9,408.8z"/>
		</g>
	</g>
</g>
</svg>
