<svg xmlns="http://www.w3.org/2000/svg" viewBox="0 0 501 501"><defs><style>.cls-1{fill:#fff;}.cls-2{fill:none;}</style></defs><title>financia_bl</title><g id="Capa_2" data-name="Capa 2"><g id="Capa_1-2" data-name="Capa 1"><path class="cls-1" d="M482.712,371.419c-5.961,13.457-17.067,22.129-29.092,29.249-24.47,14.487-49.6,27.849-74.143,42.224-18.9,11.07-38.971,11.761-59.651,8.371-43.943-7.2-87.877-14.474-131.747-22.1-11.342-1.973-20.851.73-29.773,7.482-2.993,2.265-6.545,3.791-12.088,6.924.928-18.8,1.6-34.775,2.534-50.738,1.28-21.9,3.079-43.786,3.99-65.7.351-8.439,3.465-12.324,11.932-13.32,19.379-2.278,38.644-6.915,58.027-7.35a200.966,200.966,0,0,1,51.76,6.023c28.214,6.917,56,15.756,83.58,24.932,4.962,1.65,10.9,8.6,11.276,13.491.373,4.909-4.431,12.489-9.092,15.091-16.135,9.008-34.029,5.66-51.324,3.9-13.188-1.345-26.242-4-39.355-6.079q-.858,1.764-1.717,3.527c4.361,3,8.347,6.948,13.143,8.86,35.326,14.09,71.523,15.585,107.6,4.008,22.439-7.2,44.259-16.445,66.051-25.509,14.433-6,18.762-5.564,28.094,6.408Z"/><path class="cls-1" d="M482.712,185.65c-2.136,7.786-3.782,15.748-6.487,23.331-17.155,48.087-51.217,77.034-101.672,83.024-49.434,5.869-90.384-12.456-117.317-54.876-38.02-59.884-19.912-135.323,39.313-171.452,74.26-45.3,172.029.715,184.169,86.641.218,1.541,1.31,2.959,1.994,4.434ZM358.9,264.669c48.671,2.749,95.386-40.009,95.288-92.772-.1-52.83-41.631-95.43-93.809-95.913-51.355-.475-94.664,42.439-94.81,93.945C265.423,222.573,306.861,264.637,358.9,264.669Z"/><path class="cls-1" d="M18.288,431.278c2.165-16.441,4.49-32.863,6.454-49.328,2.389-20.026,4.421-40.095,6.716-60.133.918-8.018,5.435-12.521,13.694-12.122C68.04,310.8,90.91,312.3,113.8,313.277c9.345.4,11.642,5.707,11.041,13.638-2.662,35.129-5.528,70.244-7.968,105.388-.676,9.749-5.667,14.533-14.822,14.639-24.032.277-48.074.342-72.1-.143-3.922-.079-7.78-3.385-11.667-5.2ZM93.016,411.45c.088-11.291-7.869-19.532-19.045-19.723-10.652-.183-19.909,8.39-20.355,18.85-.444,10.386,9.591,20.713,20.074,20.659C84.147,431.182,92.932,422.188,93.016,411.45Z"/><path class="cls-1" d="M356.8,236.307c-1.549-2.654-4.429-5.328-4.39-7.959.105-7.209-3.348-9.731-9.833-10.271-2.683-.223-5.933-.668-7.77-2.307-2.464-2.2-5.448-5.75-5.281-8.547.318-5.356,3.825-8.43,10.086-6.608a111.76,111.76,0,0,0,17.856,4.047c7.356.874,13.982-2.806,14.593-9.83.389-4.469-3.8-10.461-7.633-13.871-4.158-3.7-10.242-5.282-15.547-7.651-11.033-4.927-19.275-12.037-19.282-25.244-.006-12.49,6.756-20.071,17.8-25.165,2.672-1.233,3.5-6.13,5.606-9.023a94.318,94.318,0,0,1,7.026-7.78c2.435,2.434,7.031,4.961,6.93,7.286-.421,9.758,7.267,8.855,12.538,10.135,6.843,1.662,10.393,4.444,6,11.062-1.468,2.213-5.479,3.888-8.281,3.823-5.373-.126-10.944-3.062-16-2.22-4.6.766-11.341,4.376-12.138,7.872-.813,3.568,3.533,9.772,7.3,12.579,5.642,4.209,12.853,6.254,19.2,9.591,10.615,5.58,16.48,14.339,15.9,26.565-.556,11.787-6.894,19.949-17.648,24.179-5.231,2.058-7.278,4.649-7.342,10.422-.034,3.054-3.452,6.071-5.342,9.105Z"/><rect class="cls-2" width="501" height="501"/></g></g></svg>