<?xml version="1.0" encoding="utf-8"?>
<!-- Generator: Adobe Illustrator 19.0.1, SVG Export Plug-In . SVG Version: 6.00 Build 0)  -->
<svg version="1.1" id="Layer_1" xmlns="http://www.w3.org/2000/svg" xmlns:xlink="http://www.w3.org/1999/xlink" x="0px" y="0px"
	 viewBox="0 0 500 500" style="enable-background:new 0 0 500 500;" xml:space="preserve">
<style type="text/css">
	.st0{fill:#000B68;}
</style>
<g>
	<path class="st0" d="M493.9,379.1c-6.3,14.2-18,23.3-30.6,30.8c-25.8,15.3-52.2,29.3-78.1,44.5c-19.9,11.7-41,12.4-62.8,8.8
		c-46.3-7.6-92.5-15.2-138.7-23.3c-11.9-2.1-22,0.8-31.3,7.9c-3.2,2.4-6.9,4-12.7,7.3c1-19.8,1.7-36.6,2.7-53.4
		c1.3-23.1,3.2-46.1,4.2-69.2c0.4-8.9,3.6-13,12.6-14c20.4-2.4,40.7-7.3,61.1-7.7c18.1-0.4,36.8,2,54.5,6.3
		c29.7,7.3,59,16.6,88,26.2c5.2,1.7,11.5,9.1,11.9,14.2c0.4,5.2-4.7,13.1-9.6,15.9c-17,9.5-35.8,6-54,4.1
		c-13.9-1.4-27.6-4.2-41.4-6.4c-0.6,1.2-1.2,2.5-1.8,3.7c4.6,3.2,8.8,7.3,13.8,9.3c37.2,14.8,75.3,16.4,113.3,4.2
		c23.6-7.6,46.6-17.3,69.5-26.9c15.2-6.3,19.8-5.9,29.6,6.7C493.9,371.9,493.9,375.5,493.9,379.1z"/>
	<path class="st0" d="M493.9,183.5c-2.2,8.2-4,16.6-6.8,24.6c-18.1,50.6-53.9,81.1-107,87.4c-52,6.2-95.2-13.1-123.5-57.8
		c-40-63.1-21-142.5,41.4-180.5c78.2-47.7,181.1,0.8,193.9,91.2c0.2,1.6,1.4,3.1,2.1,4.7C493.9,163.2,493.9,173.4,493.9,183.5z
		 M363.6,266.7c51.2,2.9,100.4-42.1,100.3-97.7c-0.1-55.6-43.8-100.5-98.8-101c-54.1-0.5-99.7,44.7-99.8,98.9
		C265.2,222.4,308.8,266.7,363.6,266.7z"/>
	<path class="st0" d="M5,442.1c2.3-17.3,4.7-34.6,6.8-51.9c2.5-21.1,4.7-42.2,7.1-63.3c1-8.4,5.7-13.2,14.4-12.8
		c24.1,1.2,48.2,2.7,72.3,3.8c9.8,0.4,12.3,6,11.6,14.4c-2.8,37-5.8,74-8.4,111c-0.7,10.3-6,15.3-15.6,15.4
		c-25.3,0.3-50.6,0.4-75.9-0.2c-4.1-0.1-8.2-3.6-12.3-5.5C5,449.4,5,445.8,5,442.1z M83.6,421.3c0.1-11.9-8.3-20.6-20.1-20.8
		c-11.2-0.2-21,8.8-21.4,19.8c-0.5,10.9,10.1,21.8,21.1,21.8C74.3,442,83.6,432.6,83.6,421.3z"/>
	<path class="st0" d="M361.4,236.9c-1.6-2.8-4.7-5.6-4.6-8.4c0.1-7.6-3.5-10.2-10.4-10.8c-2.8-0.2-6.2-0.7-8.2-2.4
		c-2.6-2.3-5.7-6.1-5.6-9c0.3-5.6,4-8.9,10.6-7c6.2,1.8,12.4,3.5,18.8,4.3c7.7,0.9,14.7-3,15.4-10.3c0.4-4.7-4-11-8-14.6
		c-4.4-3.9-10.8-5.6-16.4-8.1c-11.6-5.2-20.3-12.7-20.3-26.6c0-13.2,7.1-21.1,18.7-26.5c2.8-1.3,3.7-6.5,5.9-9.5
		c2.2-3,4.9-5.5,7.4-8.2c2.6,2.6,7.4,5.2,7.3,7.7c-0.4,10.3,7.7,9.3,13.2,10.7c7.2,1.7,10.9,4.7,6.3,11.6c-1.5,2.3-5.8,4.1-8.7,4
		c-5.7-0.1-11.5-3.2-16.8-2.3c-4.8,0.8-11.9,4.6-12.8,8.3c-0.9,3.8,3.7,10.3,7.7,13.2c5.9,4.4,13.5,6.6,20.2,10.1
		c11.2,5.9,17.4,15.1,16.7,28c-0.6,12.4-7.3,21-18.6,25.5c-5.5,2.2-7.7,4.9-7.7,11c0,3.2-3.6,6.4-5.6,9.6
		C364.4,237,362.9,236.9,361.4,236.9z"/>
</g>
</svg>
