<?xml version="1.0" encoding="utf-8"?>
<!-- Generator: Adobe Illustrator 23.0.1, SVG Export Plug-In . SVG Version: 6.00 Build 0)  -->
<svg version="1.1" id="Capa_1" xmlns="http://www.w3.org/2000/svg" xmlns:xlink="http://www.w3.org/1999/xlink" x="0px" y="0px"
	 viewBox="0 0 180.4 177.3" style="enable-background:new 0 0 180.4 177.3;" xml:space="preserve">
<style type="text/css">
	.st0{opacity:0.73;}
	.st1{fill:#F2F2F2;stroke:#CCCCCC;stroke-miterlimit:10;}
	.st2{fill:#FEFEFE;}
	.st3{fill:#7C7C7C;}
	.st4{fill:#AFAFAF;}
	.st5{fill:#6F6F6F;}
	.st6{fill:#6D6D6D;}
	.st7{fill:#515151;}
	.st8{fill:#8C8C8C;}
	.st9{fill:#BCBCBC;}
	.st10{fill:#E7E7E7;}
	.st11{fill:#4D4D4D;}
	.st12{fill:#393939;}
	.st13{fill:#4B4B4B;}
	.st14{fill:#E5E5E5;}
	.st15{fill:#C8C8C8;}
	.st16{fill:#F7F7F7;}
	.st17{fill:#001366;}
	.st18{font-family:'Roboto-Regular';}
	.st19{font-size:18px;}
	.st20{opacity:0;fill:#FFFFFF;stroke:#CCCCCC;stroke-miterlimit:10;enable-background:new    ;}
</style>
<title>foto-prin</title>
<g>
	<g id="Capa_1-2">
		<g class="st0">
			<path class="st1" d="M12.5,0.5h155.4c6.6,0,12,5.4,12,12v122c0,6.6-5.4,12-12,12H12.5c-6.6,0-12-5.4-12-12v-122
				C0.5,5.9,5.9,0.5,12.5,0.5z"/>
			<path class="st2" d="M90.6,1.5l-1-1C90.5,0.4,90.8,0.7,90.6,1.5z"/>
			<path class="st3" d="M22.4,85.7c0.1-2.9,0.1-5.8,1.1-8.7c1.8,1.3,3.6,2.4,5.9,1.6c7.4,5.7,23.1,4.9,26.9-1.7
				c-9.1-0.1-18,0.6-26.8-0.8c0-0.9,0-1.7,0-2.6c10.8,3.5,21.6,2.2,32.4-0.1c-0.1,0.6-0.2,1.3-0.4,1.9c-1.7,4.4-1.3,5,3.5,4.4
				c4.4-0.5,8.7-1.6,12.7-3.3c2.8-1.2,6.4-2.5,5.9-6.2c-0.7-4.8-4.8-1.3-7.2-2.2c1.1-1.3,2.7-1.5,4.2-2c3.8-1.5,8-2.2,11.5-4.6
				c8.1-2.3,11.5-9.1,16.6-15.8c-13.8-0.5-26.6-2.3-39.1,1.9L67,47.4c7.2-5.2,15.8-4.7,23.9-5.3c11-0.8,22.1-1.1,33.1,0.7
				c8.8,1.4,16.8,4.8,22.6,12.2c1.7,2.2,3.9,4,6.3,5.2c-8,1-15.2,4.6-23,6.6c-5.5,1.5-10.9,3.4-16.3,5.2c3.6,0.3,7.2,0.1,10.8-0.5
				c8.4-1.2,16.7-1.9,24.9,1.4c4.3,1.7,6.9,4.1,6.4,9c-0.2,1.9-0.6,3.9,0.8,5.7l-0.6,1.2c-2.2-1.7-1.1-4.5-2.1-6.7
				c-1-2.4-2.2-4.3-5.1-4.3c-3-0.1-4.3,1.8-5.1,4.3c-0.6,1.8-1,3.7-1.5,5.6c-6,2.5-12.3,3.6-18.6,5c-4.3,0.9-9,0.4-12.7,3.4
				c-2.2,0.1-4.5,0.2-6.7,0.3c-0.3-4.1,0.5-8.4-1.9-12.3c-3.5-5.7-10.4-5.9-14-0.3c-3.3,1-6.6,1.8-9.7,3.1c-2.3,0.9-5.4-0.2-6.9,2.7
				l-2.8,0.3l-9,0l-24.4-0.2c0-0.3,0-0.6-0.1-0.9c3.6,0,7.1,0,10.7,0.1c1.8,0,3.1-0.1,3.1-2.5s-1.3-2.6-3.1-2.6
				c-3.2,0.1-6.5,0.1-9.7-0.1c-4.4-0.4-5.2,1.5-3.8,5.1c-1.5,0.8-3.1,0.1-4.6,0.2C25.5,88.7,24.3,86.6,22.4,85.7z M110.7,49.5
				L110.7,49.5c-1.2,0.5-1.9,1.6-2,2.9h0c-2.7,1.9-3.8,5.1-5.9,7.5c-2.6,3-1.3,4.1,2,4.2c0.2,2.2,1,4.2,2.7,1.2c1.6-2.8,3.6-3,6.2-3
				c2.3,1.3,4.7,0,7-0.2c5.6-0.3,6-1,4.8-6.5c-0.7-3.1-1.2-6.3-2.9-9.1c-4.1-2.3-7.5-0.6-10.8,1.9l0,0L110.7,49.5z M135.2,60.4
				c2.1-0.2,4.2-0.4,6.2-0.7c3.9-0.7,4.5-2.1,1.9-5.3c-2.2-2.9-5.3-4.7-8.5-6.3c-2.7-1.4-6.3-3.3-8.6-1.7c-2.3,1.7,0.7,4.9,1.1,7.5
				C128.1,58.3,129.4,62,135.2,60.4L135.2,60.4z"/>
			<path class="st4" d="M104,96.4l6.7-0.3c9.3-0.6,18.5-0.8,27.8-0.5c1.3,3.4,3.9,4.8,7.4,4.7c3.8,0.9,6.5-0.8,8.6-3.7
				c2.8,0.9,5.6,1.7,8.3,2.7c1.7,0.6,3.4,1.6,3.4,3.7c0,2-1.9,2.5-3.4,3.2c-5.6,2.4-11.6,3.2-17.5,4.1c-27.2,4.2-54.5,3.4-81.8,2.8
				c-14.2-0.3-28.5-1.8-42.4-5.5c-0.3,0-0.6-0.1-1-0.2c-2.4-1.1-6.2-1.1-6.1-4.5c0-3,3.4-3.5,5.8-4.4c1.3-0.5,2.9-0.7,3.9-1.9
				c1.7,0.4,3.6,0.2,5.1,1.2c1.8,6.5,3.6,7.9,9.5,7.9c6,1.2,8.2-0.4,10.7-7.9c10.8-0.6,21.5,1.2,32.3,0.9c2.2,7,3.8,8.5,9.8,8.8
				C97.1,110,103.1,105,104,96.4z"/>
			<path class="st5" d="M92,61.4c-3.5,2.4-7.6,3.1-11.5,4.6c-1.5,0.6-3.1,0.8-4.2,2l-1.6,0.2c-1.2-0.1-2.3-0.2-3.2,0.8l-6.6,2.1
				l-1.8-0.1c-10.9,1.5-21.9,1.5-32.8,0.1l3.8-5.3h0c0.8,0.2,1.6-0.2,2-1c0.8,0.2,1.6-0.2,2-1c0.8,0.2,1.7-0.2,2.1-0.9
				c0.1-0.2,0.3-0.2,0.6-0.2c0.9,0.3,1.9,0,2.4-0.8c0.1-0.2,0.4-0.2,0.6-0.2c0.9,0.3,1.8,0,2.4-0.7c0.2-0.1,0.4-0.2,0.6-0.2l3.4,0.1
				L92,61.4z"/>
			<path class="st6" d="M81.3,98.5C70.5,98.8,59.8,97,49,97.6l-14.7-0.1l-5.5,0c-1.5-1-3.4-0.9-5.1-1.2c-1.4-3.4-1.8-7-1.3-10.6
				c1.9,0.9,3,3,5.3,3.2c-0.1,4.5,2.3,6.4,6.6,6.4c6.5,0,12.9,0.1,19.4,0.3c4.3,0.1,6.5-1.5,6-6l9,0c-1.1,1.9-2.1,3.9,0.5,5.3
				c1.6,0.9,3.6,0.8,4.7-1c1.4-2.5-0.1-3.8-2.4-4.6c1.5-2.9,4.6-1.7,6.9-2.7c3.1-1.3,6.5-2.1,9.7-3.1c-0.6,1.7-1.1,3.4-1.7,5.1
				c-0.5,1.7-0.8,3.3-1.4,5C84.2,95.7,84.3,98.3,81.3,98.5z"/>
			<path class="st5" d="M156.6,87.7c-1.3-1.7-1-3.8-0.8-5.7c0.5-5-2.2-7.3-6.4-9c-8.2-3.3-16.5-2.7-24.9-1.4
				c-3.6,0.6-7.2,0.8-10.8,0.5c5.4-1.7,10.8-3.7,16.3-5.2c7.7-2,15-5.6,23-6.6c1.3,0,2.5,0.4,3,1.8c-3.4,3.6-2.8,5.6,1.8,7
				C159.5,75.2,159.1,81.8,156.6,87.7z"/>
			<path class="st7" d="M154.5,96.5c-2.2,2.9-4.8,4.6-8.6,3.7l-3.8-6.6c0-2,0-4-0.1-5.9c0.5-1.9,0.9-3.8,1.5-5.6
				c0.8-2.4,2.1-4.3,5.1-4.3c3,0,4.1,2,5.1,4.3c1,2.2-0.1,4.9,2.1,6.7C156.1,91.5,155.3,94,154.5,96.5z M153,89.4
				c-0.1-3.1-0.7-6.4-4.4-6.3c-3.4,0.1-3.8,3.6-3.9,6.3c0,3,0.5,6.5,4.2,6.5C152.5,95.9,152.8,92.4,153,89.4z"/>
			<path class="st8" d="M50.1,61.1L46.6,61C53,55.9,59.4,50.7,67,47.4l2.5,0.2C62.8,51.8,56,55.9,50.1,61.1z"/>
			<path class="st9" d="M29.4,78.7c-2.3,0.7-4.1-0.4-5.9-1.6c-0.2-2.8,0-5.4,2.5-7.3c1.7,0.6,2.1,2.3,3.3,3.4
				c0.1,0.2,0.1,0.3,0.1,0.5c0,0.9,0,1.7,0,2.6C29.5,77,29.5,77.9,29.4,78.7z"/>
			<path class="st9" d="M157.7,69.1c-4.6-1.4-5.1-3.4-1.8-7C157.3,64.1,158,66.6,157.7,69.1z"/>
			<path class="st8" d="M29.4,73.1c-1.2-1-1.6-2.8-3.3-3.4c2.5-1.6,5.2-2.9,8-3.9l-3.8,5.3C30,71.9,29.7,72.5,29.4,73.1z"/>
			<path class="st8" d="M36.1,64.9c-0.3,0.8-1.1,1.2-1.9,1C34.8,65.6,35.4,65.3,36.1,64.9z"/>
			<path class="st8" d="M38,64c-0.3,0.8-1.1,1.2-2,1L38,64z"/>
			<path class="st8" d="M40.2,63.1c-0.4,0.7-1.3,1.1-2.1,0.9C38.5,63.3,39.3,63,40.2,63.1z"/>
			<path class="st8" d="M43.1,62.1c-0.5,0.8-1.5,1.1-2.4,0.8C41.5,62.6,42.3,62.3,43.1,62.1z"/>
			<path class="st8" d="M46,61.2c-0.6,0.7-1.5,1-2.4,0.7C44.4,61.6,45.2,61.4,46,61.2z"/>
			<path class="st10" d="M50.1,61.1c6-5.3,12.8-9.3,19.4-13.5c12.5-4.2,25.3-2.4,39.1-1.9c-5,6.7-8.5,13.5-16.6,15.8L50.1,61.1z
				 M68.2,54.8c-0.1-1.3-0.7-2.1-1.4-1.9c-2.2,0.6-3.9,2.2-4.6,4.4c-0.2,0.6,0.5,1.5,1,1.3C65.1,57.8,66.8,56.5,68.2,54.8z
				 M96.5,48.8c-1.5,1.9-2.7,3.3-3.8,4.9c-0.4,0.5-0.4,1.2,0.1,1.7c0,0,0.1,0,0.1,0.1c0.3,0.2,1.1,0.4,1.3,0.2
				C96.1,53.9,98.3,52.4,96.5,48.8L96.5,48.8z"/>
			<path class="st11" d="M86.4,88.8c0.6-1.7,1.1-3.4,1.7-5.1c3.7-5.6,10.5-5.4,14,0.3c2.4,3.9,1.6,8.2,1.9,12.3
				c-0.9,8.6-6.9,13.6-12.9,10.9c-1.7-4.1-4.2-7.8-4.4-12.5C86.6,92.8,88.2,90.7,86.4,88.8z M100.9,94.8c0-5.6-2.3-9.3-5.5-9.2
				c-3,0.1-5.4,4.1-5.3,8.7c0,1,0.1,1.9,0.4,2.9c0.9,2.5,1.9,5.1,5.1,5c2.9-0.1,4-2.5,4.8-4.9C100.7,96.6,100.8,95.7,100.9,94.8z"/>
			<path class="st10" d="M135.2,60.4c-5.8,1.6-7.1-2.2-7.8-6.5c-0.4-2.6-3.4-5.8-1.1-7.5c2.3-1.7,5.9,0.3,8.6,1.7
				c3.2,1.6,6.3,3.5,8.5,6.3c2.5,3.2,2,4.6-1.9,5.3C139.4,60.1,137.3,60.2,135.2,60.4z"/>
			<path class="st9" d="M64.9,71.2l6.6-2.1c1.1,0.2,2.3-0.1,3.2-0.8l1.6-0.2c2.4,0.9,6.5-2.5,7.2,2.2c0.5,3.7-3.1,5-5.9,6.2
				c-4.1,1.7-8.3,2.8-12.7,3.3c-4.8,0.6-5.2,0-3.5-4.4c0.2-0.6,0.3-1.2,0.4-1.9c0.5-0.5,1-0.9,1.5-1.4L64.9,71.2z"/>
			<path class="st12" d="M59.7,89.7c0.5,4.5-1.7,6.1-6,6c-6.5-0.2-12.9-0.3-19.4-0.3c-4.3,0-6.7-1.9-6.6-6.4
				c1.5-0.1,3.1,0.5,4.6-0.2l-0.1,0c0.7,1.3,1.9,0.9,3,0.8L59.7,89.7z"/>
			<path class="st10" d="M122.4,46.6c1.7,2.8,2.2,6,2.9,9.1c1.2,5.5,0.8,6.1-4.8,6.5c-2.3,0.1-4.6,1.5-7,0.2
				c0.5-1.4,2.3-2.6,0.9-4.3c-1.9-2.3-4.4-1.3-6.8-1.1l0.9-4.5h0c1.8-0.2,2.1-1.4,2-2.9l0,0l1-1l0,0
				C115.3,48.3,118.7,46.3,122.4,46.6z M123.1,55.8c-0.2-0.8-0.8-1.5-1.7-1.1c-1.9,1-3.1,2.7-3.4,4.8c-0.1,0.5,0.3,1,0.9,1.1
				c0.1,0,0.3,0,0.4,0C121.3,59.7,122.3,57.9,123.1,55.8L123.1,55.8z"/>
			<path class="st13" d="M29.4,78.7c0-0.8,0.1-1.7,0.1-2.5c8.8,1.4,17.7,0.7,26.8,0.8C52.5,83.6,36.8,84.4,29.4,78.7z"/>
			<path class="st5" d="M142,87.7c0,2,0,4,0.1,5.9c-0.5,1.9-2.2,1.7-3.6,1.9c-9.3-0.3-18.5,0-27.8,0.5c3.7-3.1,8.4-2.5,12.7-3.4
				C129.7,91.3,136.1,90.2,142,87.7z"/>
			<path class="st13" d="M63.4,72.1c-0.5,0.5-1,1-1.5,1.4c-10.8,2.3-21.6,3.5-32.4,0.1c0-0.2-0.1-0.3-0.1-0.5l0.9-1.9
				c10.9,1.4,21.9,1.4,32.8-0.1C63.2,71.5,63.3,71.8,63.4,72.1z"/>
			<path class="st14" d="M32.4,88.7c-1.4-3.6-0.6-5.5,3.8-5.1c3.2,0.2,6.5,0.2,9.7,0.1c1.8,0,3.1,0.2,3.1,2.5s-1.3,2.6-3.1,2.5
				c-3.6-0.1-7.1-0.1-10.7-0.1L32.4,88.7L32.4,88.7z"/>
			<path class="st5" d="M107.7,56.9c2.4-0.3,4.9-1.2,6.8,1.1c1.4,1.7-0.4,2.9-0.9,4.3c-2.5,0-4.6,0.2-6.2,3c-1.7,3.1-2.5,1-2.7-1.2
				C106.7,62.1,105.3,58.7,107.7,56.9z"/>
			<path class="st12" d="M71.5,89.5c2.2,0.8,3.8,2.2,2.4,4.6c-1,1.8-3,1.9-4.7,1c-2.5-1.4-1.6-3.4-0.5-5.3L71.5,89.5z"/>
			<path class="st15" d="M107.7,56.9c-2.4,1.8-1.1,5.2-2.9,7.2c-3.3-0.1-4.7-1.2-2-4.2c2.1-2.4,3.2-5.5,5.9-7.5L107.7,56.9z"/>
			<path class="st15" d="M122.4,46.6c-3.8-0.3-7.1,1.7-10.8,1.9C114.9,46,118.3,44.3,122.4,46.6z"/>
			<path class="st15" d="M110.7,49.5c0.1,1.5-0.2,2.7-2,2.9C108.7,51.1,109.5,50,110.7,49.5z"/>
			<path class="st6" d="M32.3,88.7l2.9-0.1c0,0.3,0,0.6,0.1,0.9C34.2,89.6,33,89.9,32.3,88.7z"/>
			<path class="st15" d="M111.6,48.5l-1,1L111.6,48.5z"/>
			<path class="st12" d="M34.3,97.5L49,97.6c-2.5,7.4-4.7,9.1-10.7,7.9C36.7,103,34,101,34.3,97.5z"/>
			<path class="st12" d="M86.4,88.8c1.8,1.9,0.2,4,0.3,6c0.2,4.7,2.7,8.4,4.4,12.5c-6-0.3-7.6-1.8-9.8-8.8c3-0.2,2.9-2.8,3.7-4.8
				C85.6,92.1,85.9,90.5,86.4,88.8z"/>
			<path class="st11" d="M34.3,97.5c-0.3,3.5,2.4,5.4,4,7.9c-5.9,0-7.6-1.4-9.5-7.9L34.3,97.5z"/>
			<path class="st12" d="M138.5,95.6c1.4-0.2,3.1,0,3.6-1.9l3.8,6.6C142.4,100.3,139.8,99,138.5,95.6z"/>
			<path class="st3" d="M74.7,68.3c-0.9,0.7-2.1,1-3.2,0.8C72.4,68.1,73.5,68.1,74.7,68.3z"/>
			<path class="st3" d="M63.4,72.1c-0.1-0.3-0.2-0.7-0.3-1l1.8,0.1C64.4,71.5,63.9,71.8,63.4,72.1z"/>
			<path class="st14" d="M153,89.4c-0.1,3-0.5,6.5-4.1,6.5c-3.6,0-4.2-3.6-4.2-6.5c0-2.8,0.5-6.2,3.9-6.3
				C152.3,82.9,152.8,86.3,153,89.4z"/>
			<path class="st16" d="M68.2,54.8c-1.3,1.7-3,3-5,3.8c-0.6,0.2-1.3-0.7-1-1.3c0.7-2.2,2.4-3.8,4.6-4.4
				C67.5,52.7,68.1,53.5,68.2,54.8z"/>
			<path class="st16" d="M96.5,48.8c1.8,3.6-0.4,5.2-2.3,6.8c-0.2,0.2-1,0-1.3-0.2c-0.5-0.4-0.7-1.1-0.3-1.6c0,0,0-0.1,0.1-0.1
				C93.8,52.1,95,50.6,96.5,48.8z"/>
			<path class="st14" d="M100.9,94.8c-0.1,0.9-0.2,1.8-0.5,2.6c-0.8,2.4-1.9,4.8-4.8,4.9c-3.2,0.1-4.3-2.5-5.1-5
				c-0.3-0.9-0.4-1.9-0.4-2.9c-0.2-4.6,2.3-8.6,5.3-8.7C98.6,85.6,100.9,89.2,100.9,94.8z"/>
			<path class="st16" d="M123.1,55.8c-0.7,2.1-1.8,3.9-3.8,4.8c-0.5,0.2-1.1-0.1-1.2-0.6c0-0.1-0.1-0.3,0-0.4
				c0.3-2.1,1.6-3.8,3.4-4.8C122.3,54.3,122.8,55,123.1,55.8z"/>
			<text transform="matrix(1 0 0 1 36.095 172.465)" class="st17 st18 st19">F</text>
			<text transform="matrix(1 0 0 1 45.86 172.465)" class="st17 st18 st19">o</text>
			<text transform="matrix(1 0 0 1 56.125 172.465)" class="st17 st18 st19">t</text>
			<text transform="matrix(1 0 0 1 61.829 172.465)" class="st17 st18 st19">o principal</text>
			<path class="st20" d="M12.5,0.5h155.4c6.6,0,12,5.4,12,12v122c0,6.6-5.4,12-12,12H12.5c-6.6,0-12-5.4-12-12v-122
				C0.5,5.9,5.9,0.5,12.5,0.5z"/>
		</g>
	</g>
</g>
</svg>
