<svg xmlns="http://www.w3.org/2000/svg" width="23.384" height="23.418" viewBox="0 0 23.384 23.418">
  <g id="phone-call" transform="translate(-0.344 0)">
    <g id="Grupo_3" data-name="Grupo 3" transform="translate(0.344 0)">
      <path id="Trazado_4" data-name="Trazado 4" d="M18.835,40.558a2.3,2.3,0,0,0-1.671-.766,2.382,2.382,0,0,0-1.69.761L13.912,42.11c-.129-.069-.257-.133-.381-.2-.178-.089-.346-.173-.489-.262a16.975,16.975,0,0,1-4.068-3.707A10.015,10.015,0,0,1,7.64,35.838c.405-.371.781-.756,1.147-1.127.138-.138.277-.282.415-.42a2.268,2.268,0,0,0,0-3.42L7.853,29.521c-.153-.153-.311-.311-.46-.47-.3-.306-.608-.623-.929-.919a2.34,2.34,0,0,0-1.656-.727,2.421,2.421,0,0,0-1.68.727l-.01.01-1.68,1.7a3.616,3.616,0,0,0-1.073,2.3A8.664,8.664,0,0,0,1,35.8,21.281,21.281,0,0,0,4.778,42.11a23.259,23.259,0,0,0,7.745,6.064,12.067,12.067,0,0,0,4.349,1.285c.1,0,.213.01.311.01a3.724,3.724,0,0,0,2.852-1.226c0-.01.015-.015.02-.025a11.236,11.236,0,0,1,.865-.895c.213-.2.43-.415.643-.638a2.466,2.466,0,0,0,.746-1.71,2.375,2.375,0,0,0-.761-1.7Zm1.769,5.2s0,0,0,0c-.193.208-.39.4-.6.6a13,13,0,0,0-.954.989,2.383,2.383,0,0,1-1.858.786c-.074,0-.153,0-.227,0a10.72,10.72,0,0,1-3.855-1.157,21.955,21.955,0,0,1-7.3-5.714,20.066,20.066,0,0,1-3.559-5.926A7.057,7.057,0,0,1,1.7,32.245a2.269,2.269,0,0,1,.682-1.468l1.685-1.685a1.124,1.124,0,0,1,.751-.351,1.057,1.057,0,0,1,.722.346l.015.015c.3.282.588.573.89.885.153.158.311.316.47.479l1.349,1.349a.943.943,0,0,1,0,1.532c-.143.143-.282.287-.425.425-.415.425-.811.82-1.241,1.206-.01.01-.02.015-.025.025a1.008,1.008,0,0,0-.257,1.122l.015.044a10.833,10.833,0,0,0,1.6,2.6l0,0a18.141,18.141,0,0,0,4.389,3.994,6.748,6.748,0,0,0,.608.331c.178.089.346.173.489.262.02.01.04.025.059.035a1.071,1.071,0,0,0,.489.124,1.057,1.057,0,0,0,.751-.341l1.69-1.69a1.118,1.118,0,0,1,.746-.371,1.007,1.007,0,0,1,.712.361l.01.01L20.6,44.215A.977.977,0,0,1,20.6,45.762Z" transform="translate(-0.344 -26.051)" fill="#ba0000"/>
      <path id="Trazado_5" data-name="Trazado 5" d="M245.493,87.249a6.361,6.361,0,0,1,5.18,5.18.663.663,0,0,0,.657.554.882.882,0,0,0,.114-.01.668.668,0,0,0,.549-.771,7.691,7.691,0,0,0-6.267-6.267.671.671,0,0,0-.771.544A.66.66,0,0,0,245.493,87.249Z" transform="translate(-232.854 -81.678)" fill="#ba0000"/>
      <path id="Trazado_6" data-name="Trazado 6" d="M259.87,10.33A12.665,12.665,0,0,0,249.55.01a.666.666,0,1,0-.217,1.315,11.312,11.312,0,0,1,9.223,9.223.663.663,0,0,0,.657.554.883.883,0,0,0,.114-.01A.655.655,0,0,0,259.87,10.33Z" transform="translate(-236.497 0)" fill="#ba0000"/>
    </g>
  </g>
</svg>
