<svg xmlns="http://www.w3.org/2000/svg" width="25.188" height="25.188" viewBox="0 0 25.188 25.188">
  <path id="user" d="M25.188,12.594a12.594,12.594,0,1,0-21.1,9.277l-.012.011.408.344c.027.022.055.041.082.063.217.18.442.351.671.516.074.054.148.107.224.159q.367.253.752.48l.169.1c.281.16.567.31.861.449l.065.029a12.48,12.48,0,0,0,3.046.964l.084.015c.332.057.667.1,1.006.134l.124.01c.338.028.68.046,1.026.046s.681-.018,1.018-.045l.128-.01q.5-.046,1-.131l.086-.016a12.48,12.48,0,0,0,3-.941l.1-.048q.424-.2.829-.429l.2-.116c.246-.145.489-.3.724-.458.085-.058.168-.119.251-.179.2-.145.4-.294.59-.45.043-.034.088-.064.13-.1l.419-.35-.012-.011A12.561,12.561,0,0,0,25.188,12.594Zm-24.272,0a11.678,11.678,0,1,1,19.422,8.73,3.432,3.432,0,0,0-.409-.246l-3.878-1.939a1.015,1.015,0,0,1-.564-.913V16.872c.09-.111.185-.236.283-.374a9.332,9.332,0,0,0,1.2-2.346,1.662,1.662,0,0,0,.955-1.506V11.023a1.666,1.666,0,0,0-.406-1.085V7.8a3.694,3.694,0,0,0-.862-2.685,5.155,5.155,0,0,0-4.061-1.451A5.156,5.156,0,0,0,8.533,5.114,3.694,3.694,0,0,0,7.671,7.8V9.937a1.669,1.669,0,0,0-.406,1.085v1.623a1.666,1.666,0,0,0,.614,1.292,8.605,8.605,0,0,0,1.416,2.926v1.325a1.022,1.022,0,0,1-.532.9L5.141,21.06a3.31,3.31,0,0,0-.344.218A11.65,11.65,0,0,1,.916,12.594Zm18.528,9.449q-.24.174-.489.337c-.076.049-.152.1-.229.147-.216.134-.436.261-.66.38l-.149.076a11.669,11.669,0,0,1-1.6.676l-.058.02q-.431.143-.872.253h0c-.3.073-.6.134-.9.184l-.025,0c-.284.046-.571.08-.859.1l-.153.011c-.284.022-.57.035-.857.035s-.58-.014-.868-.036l-.149-.011c-.29-.026-.579-.06-.866-.107l-.038-.007a11.635,11.635,0,0,1-1.781-.445l-.054-.018q-.432-.147-.853-.327l-.006,0c-.265-.114-.524-.24-.781-.374l-.1-.052c-.234-.125-.463-.26-.689-.4l-.2-.128C6,22.228,5.8,22.087,5.6,21.937l-.061-.048.044-.025L9.2,19.889a1.937,1.937,0,0,0,1.01-1.7v-1.65l-.105-.127A7.646,7.646,0,0,1,8.73,13.565l-.042-.181-.156-.1a.759.759,0,0,1-.352-.637V11.022a.748.748,0,0,1,.255-.56l.151-.136V7.774l0-.06a2.758,2.758,0,0,1,.639-2A4.315,4.315,0,0,1,12.594,4.58a4.326,4.326,0,0,1,3.364,1.129A2.8,2.8,0,0,1,16.6,7.715l0,2.611.151.136a.749.749,0,0,1,.255.56v1.623a.765.765,0,0,1-.541.721l-.228.07-.073.227a8.472,8.472,0,0,1-1.143,2.3c-.12.169-.237.32-.337.435l-.114.13v1.694a1.925,1.925,0,0,0,1.071,1.732L19.52,21.9l.073.038C19.544,21.972,19.494,22.007,19.444,22.042Z" fill="#fff"/>
</svg>
