<svg xmlns="http://www.w3.org/2000/svg" width="20.293" height="17.252" viewBox="0 0 20.293 17.252">
  <g id="danger_1_" data-name="danger (1)" transform="translate(0 -38.365)">
    <g id="Grupo_6" data-name="Grupo 6" transform="translate(0 38.365)">
      <path id="Trazado_8" data-name="Trazado 8" d="M20.114,53.731l-8.9-14.765a1.243,1.243,0,0,0-2.13,0L.179,53.731a1.243,1.243,0,0,0,1.065,1.885H19.05a1.243,1.243,0,0,0,1.065-1.885ZM10.153,43.472a.843.843,0,0,1,.944.8c0,1.56-.184,3.8-.184,5.362,0,.406-.446.577-.76.577-.419,0-.774-.17-.774-.577,0-1.56-.184-3.8-.184-5.362C9.2,43.761,9.616,43.472,10.153,43.472Zm.013,9.663a1.01,1.01,0,1,1,1-1.009A1.025,1.025,0,0,1,10.166,53.135Z" transform="translate(0 -38.365)" fill="#d89d1a"/>
    </g>
  </g>
</svg>
