<svg xmlns="http://www.w3.org/2000/svg" xmlns:xlink="http://www.w3.org/1999/xlink" width="118" height="101" viewBox="0 0 118 101">
  <defs>
    <clipPath id="clip-path">
      <rect id="Rectángulo_63" data-name="Rectángulo 63" width="118" height="101" transform="translate(204 371)" fill="#fff" stroke="#e5e5e5" stroke-width="1"/>
    </clipPath>
  </defs>
  <g id="Enmascarar_grupo_12" data-name="Enmascarar grupo 12" transform="translate(-204 -371)" clip-path="url(#clip-path)">
    <g id="f1" transform="translate(261 373.721)">
      <g id="Capa_1-2" transform="translate(-35.72 -25.73)">
        <g id="Grupo_241" data-name="Grupo 241" transform="translate(-25 16)" opacity="0.73">
          <path id="Trazado_950" data-name="Trazado 950" d="M50.867.986l-.7-.7C50.8.212,51.008.423,50.867.986Z" transform="translate(12.478 -0.27)" fill="#fefefe"/>
          <path id="Trazado_951" data-name="Trazado 951" d="M12.541,54.314a20.3,20.3,0,0,1,.773-6.117c1.265.914,2.531,1.687,4.148,1.125,5.2,4.007,16.241,3.445,18.912-1.2-6.4-.07-12.655.422-18.842-.562V45.737c7.593,2.461,15.186,1.547,22.779-.07A9.041,9.041,0,0,1,40.03,47c-1.2,3.093-.914,3.515,2.461,3.093a32.138,32.138,0,0,0,8.929-2.32c1.969-.844,4.5-1.758,4.148-4.359-.492-3.375-3.375-.914-5.062-1.547.773-.914,1.9-1.055,2.953-1.406,2.672-1.055,5.624-1.547,8.085-3.234,5.695-1.617,8.085-6.4,11.671-11.108-9.7-.352-18.7-1.617-27.489,1.336l-1.828-.07c5.062-3.656,11.108-3.3,16.8-3.726,7.734-.562,15.538-.773,23.271.492,6.187.984,11.811,3.375,15.889,8.577a13.011,13.011,0,0,0,4.429,3.656c-5.624.7-10.686,3.234-16.17,4.64-3.867,1.055-7.663,2.39-11.46,3.656a30.588,30.588,0,0,0,7.593-.352c5.906-.844,11.741-1.336,17.506.984,3.023,1.2,4.851,2.883,4.5,6.327-.141,1.336-.422,2.742.562,4.007l-.422.844c-1.547-1.2-.773-3.164-1.476-4.71-.7-1.687-1.547-3.023-3.586-3.023-2.109-.07-3.023,1.265-3.586,3.023-.422,1.265-.7,2.6-1.055,3.937-4.218,1.758-8.648,2.531-13.077,3.515-3.023.633-6.327.281-8.929,2.39-1.547.07-3.164.141-4.71.211-.211-2.883.352-5.906-1.336-8.648-2.461-4.007-7.312-4.148-9.843-.211a70.149,70.149,0,0,0-6.82,2.179c-1.617.633-3.8-.141-4.851,1.9l-1.969.211H38.835l-17.155-.141a1.947,1.947,0,0,0-.07-.633c2.531,0,4.992,0,7.523.07,1.266,0,2.179-.07,2.179-1.758s-.914-1.828-2.179-1.828c-2.25.07-4.57.07-6.82-.07-3.093-.281-3.656,1.055-2.672,3.586-1.055.562-2.179.07-3.234.141C14.72,56.423,13.877,54.947,12.541,54.314Zm62.08-25.451h0A2.318,2.318,0,0,0,73.215,30.9h0c-1.9,1.336-2.672,3.586-4.148,5.273-1.828,2.109-.914,2.883,1.406,2.953.141,1.547.7,2.953,1.9.844C73.5,38,74.9,37.862,76.73,37.862c1.617.914,3.3,0,4.921-.141,3.937-.211,4.218-.7,3.375-4.57a20.617,20.617,0,0,0-2.039-6.4c-2.883-1.617-5.273-.422-7.593,1.336h0Zm17.225,7.663c1.476-.141,2.953-.281,4.359-.492,2.742-.492,3.164-1.476,1.336-3.726a16.213,16.213,0,0,0-5.976-4.429c-1.9-.984-4.429-2.32-6.046-1.2-1.617,1.2.492,3.445.773,5.273.562,3.093,1.476,5.695,5.554,4.57Z" transform="translate(2.856 5.599)" fill="#7c7c7c"/>
          <path id="Trazado_952" data-name="Trazado 952" d="M71.113,54.105l4.71-.211c6.538-.422,13.007-.562,19.545-.352a4.9,4.9,0,0,0,5.2,3.3c2.672.633,4.57-.562,6.046-2.6,1.969.633,3.937,1.2,5.835,1.9,1.2.422,2.39,1.125,2.39,2.6,0,1.406-1.336,1.758-2.39,2.25-3.937,1.687-8.155,2.25-12.3,2.883-19.123,2.953-38.317,2.39-57.51,1.969A126.066,126.066,0,0,1,12.83,61.98a3.094,3.094,0,0,1-.7-.141c-1.687-.773-4.359-.773-4.289-3.164,0-2.109,2.39-2.461,4.078-3.093.914-.352,2.039-.492,2.742-1.336,1.2.281,2.531.141,3.586.844,1.265,4.57,2.531,5.554,6.679,5.554,4.218.844,5.765-.281,7.523-5.554,7.593-.422,15.116.844,22.709.633,1.547,4.921,2.672,5.976,6.89,6.187C66.262,63.667,70.481,60.152,71.113,54.105Z" transform="translate(1.653 13.331)" fill="#afafaf"/>
          <path id="Trazado_953" data-name="Trazado 953" d="M60.342,34.462C57.882,36.149,55,36.641,52.257,37.7c-1.055.422-2.179.562-2.953,1.406l-1.125.141a2.387,2.387,0,0,0-2.25.562l-4.64,1.476-1.265-.07a87.323,87.323,0,0,1-23.06.07l2.672-3.726h0a1.232,1.232,0,0,0,1.406-.7,1.232,1.232,0,0,0,1.406-.7,1.372,1.372,0,0,0,1.476-.633c.07-.141.211-.141.422-.141a1.436,1.436,0,0,0,1.687-.562c.07-.141.281-.141.422-.141a1.541,1.541,0,0,0,1.687-.492,1,1,0,0,1,.422-.141l2.39.07Z" transform="translate(3.987 8.367)" fill="#6f6f6f"/>
          <path id="Trazado_954" data-name="Trazado 954" d="M53.981,57.295c-7.593.211-15.116-1.055-22.709-.633l-10.335-.07H17.07c-1.055-.7-2.39-.633-3.586-.844a14.244,14.244,0,0,1-.914-7.452c1.336.633,2.109,2.109,3.726,2.25-.07,3.164,1.617,4.5,4.64,4.5,4.57,0,9.069.07,13.639.211,3.023.07,4.57-1.055,4.218-4.218h6.327c-.773,1.336-1.476,2.742.352,3.726a2.333,2.333,0,0,0,3.3-.7c.984-1.758-.07-2.672-1.687-3.234,1.055-2.039,3.234-1.2,4.851-1.9,2.179-.914,4.57-1.476,6.82-2.179-.422,1.2-.773,2.39-1.2,3.586-.352,1.2-.562,2.32-.984,3.515C56.019,55.326,56.09,57.154,53.981,57.295Z" transform="translate(2.826 11.618)" fill="#6d6d6d"/>
          <path id="Trazado_955" data-name="Trazado 955" d="M93.818,53.024c-.914-1.2-.7-2.672-.562-4.007.352-3.515-1.547-5.132-4.5-6.327-5.765-2.32-11.6-1.9-17.506-.984a30.588,30.588,0,0,1-7.593.352c3.8-1.2,7.593-2.6,11.46-3.656,5.414-1.406,10.546-3.937,16.17-4.64A1.992,1.992,0,0,1,93.4,35.025c-2.39,2.531-1.969,3.937,1.265,4.921A19.919,19.919,0,0,1,93.818,53.024Z" transform="translate(15.929 8.296)" fill="#6f6f6f"/>
          <path id="Trazado_956" data-name="Trazado 956" d="M88.289,56.7c-1.547,2.039-3.375,3.234-6.046,2.6l-2.672-4.64c0-1.406,0-2.812-.07-4.148.352-1.336.633-2.672,1.055-3.937.562-1.687,1.476-3.023,3.586-3.023s2.883,1.406,3.586,3.023c.7,1.547-.07,3.445,1.476,4.71A12.93,12.93,0,0,1,88.289,56.7Zm-1.055-4.992c-.07-2.179-.492-4.5-3.093-4.429-2.39.07-2.672,2.531-2.742,4.429,0,2.109.352,4.57,2.953,4.57C86.883,56.283,87.094,53.822,87.235,51.713Z" transform="translate(19.981 10.802)" fill="#515151"/>
          <path id="Trazado_957" data-name="Trazado 957" d="M28.55,36.17,26.09,36.1c4.5-3.586,9-7.241,14.342-9.562l1.758.141C37.479,29.631,32.7,32.514,28.55,36.17Z" transform="translate(6.321 6.449)" fill="#8c8c8c"/>
          <path id="Trazado_958" data-name="Trazado 958" d="M17.313,45.336c-1.617.492-2.883-.281-4.148-1.125-.141-1.969,0-3.8,1.758-5.132,1.2.422,1.476,1.617,2.32,2.39a.634.634,0,0,1,.07.352v1.828A6.769,6.769,0,0,1,17.313,45.336Z" transform="translate(3.005 9.656)" fill="#bcbcbc"/>
          <path id="Trazado_959" data-name="Trazado 959" d="M88.853,39.689c-3.234-.984-3.586-2.39-1.265-4.921A7.146,7.146,0,0,1,88.853,39.689Z" transform="translate(21.667 8.554)" fill="#bcbcbc"/>
          <path id="Trazado_960" data-name="Trazado 960" d="M16.933,41.972c-.844-.7-1.125-1.969-2.32-2.39a27.762,27.762,0,0,1,5.624-2.742l-2.672,3.726A13.69,13.69,0,0,1,16.933,41.972Z" transform="translate(3.386 9.083)" fill="#8c8c8c"/>
          <path id="Trazado_961" data-name="Trazado 961" d="M20.483,36.335a1.114,1.114,0,0,1-1.336.7C19.569,36.828,19.991,36.617,20.483,36.335Z" transform="translate(4.546 8.954)" fill="#8c8c8c"/>
          <path id="Trazado_962" data-name="Trazado 962" d="M21.561,35.831a1.16,1.16,0,0,1-1.406.7Z" transform="translate(4.803 8.826)" fill="#8c8c8c"/>
          <path id="Trazado_963" data-name="Trazado 963" d="M22.807,35.33a1.372,1.372,0,0,1-1.476.633A1.433,1.433,0,0,1,22.807,35.33Z" transform="translate(5.104 8.694)" fill="#8c8c8c"/>
          <path id="Trazado_964" data-name="Trazado 964" d="M24.474,34.768a1.436,1.436,0,0,1-1.687.562A15.822,15.822,0,0,1,24.474,34.768Z" transform="translate(5.476 8.554)" fill="#8c8c8c"/>
          <path id="Trazado_965" data-name="Trazado 965" d="M26.1,34.264a1.541,1.541,0,0,1-1.687.492A15.269,15.269,0,0,1,26.1,34.264Z" transform="translate(5.891 8.425)" fill="#8c8c8c"/>
          <path id="Trazado_966" data-name="Trazado 966" d="M28.049,36.529c4.218-3.726,9-6.538,13.639-9.491,8.788-2.953,17.787-1.687,27.489-1.336-3.515,4.71-5.976,9.491-11.671,11.108ZM40.775,32.1c-.07-.914-.492-1.476-.984-1.336a4.619,4.619,0,0,0-3.234,3.093c-.141.422.352,1.055.7.914A9.2,9.2,0,0,0,40.775,32.1Zm19.9-4.218c-1.055,1.336-1.9,2.32-2.672,3.445a.875.875,0,0,0,.07,1.2.069.069,0,0,1,.07.07c.211.141.773.281.914.141,1.336-1.265,2.883-2.32,1.617-4.851Z" transform="translate(6.822 6.089)" fill="#e7e7e7"/>
          <path id="Trazado_967" data-name="Trazado 967" d="M48.373,51.032c.422-1.2.773-2.39,1.2-3.586,2.6-3.937,7.382-3.8,9.843.211C61.1,50.4,60.535,53.422,60.746,56.3c-.633,6.046-4.851,9.562-9.069,7.663-1.2-2.883-2.953-5.484-3.093-8.788C48.513,53.844,49.638,52.368,48.373,51.032ZM58.567,55.25c0-3.937-1.617-6.538-3.867-6.468-2.109.07-3.8,2.883-3.726,6.117a6.8,6.8,0,0,0,.281,2.039c.633,1.758,1.336,3.586,3.586,3.515,2.039-.07,2.812-1.758,3.375-3.445A6.49,6.49,0,0,0,58.567,55.25Z" transform="translate(12.02 11.061)" fill="#4d4d4d"/>
          <path id="Trazado_968" data-name="Trazado 968" d="M77.091,35.914c-4.078,1.125-4.992-1.547-5.484-4.57-.281-1.828-2.39-4.078-.773-5.273s4.148.211,6.046,1.2A17.026,17.026,0,0,1,82.857,31.7c1.758,2.25,1.406,3.234-1.336,3.726C80.044,35.7,78.568,35.773,77.091,35.914Z" transform="translate(17.61 6.212)" fill="#e7e7e7"/>
          <path id="Trazado_969" data-name="Trazado 969" d="M36.968,40.357l4.64-1.476a2.888,2.888,0,0,0,2.25-.562l1.125-.141c1.687.633,4.57-1.758,5.062,1.547.352,2.6-2.179,3.515-4.148,4.359a32.786,32.786,0,0,1-8.929,2.32c-3.375.422-3.656,0-2.461-3.093a7.468,7.468,0,0,0,.281-1.336c.352-.352.7-.633,1.055-.984Z" transform="translate(8.309 9.362)" fill="#bcbcbc"/>
          <path id="Trazado_970" data-name="Trazado 970" d="M38.007,50.349c.352,3.164-1.2,4.289-4.218,4.218-4.57-.141-9.069-.211-13.639-.211-3.023,0-4.71-1.336-4.64-4.5,1.055-.07,2.179.352,3.234-.141h-.07c.492.914,1.336.633,2.109.562Z" transform="translate(3.614 12.377)" fill="#393939"/>
          <path id="Trazado_971" data-name="Trazado 971" d="M70.647,26.094a20.617,20.617,0,0,1,2.039,6.4c.844,3.867.562,4.289-3.375,4.57-1.617.07-3.234,1.055-4.921.141.352-.984,1.617-1.828.633-3.023-1.336-1.617-3.093-.914-4.781-.773l.633-3.164h0c1.266-.141,1.476-.984,1.406-2.039h0l.7-.7h0C65.655,27.289,68.046,25.883,70.647,26.094Zm.492,6.468c-.141-.562-.562-1.055-1.2-.773a4.432,4.432,0,0,0-2.39,3.375.7.7,0,0,0,.633.773h.281a5.43,5.43,0,0,0,2.672-3.375Z" transform="translate(15.056 6.33)" fill="#e7e7e7"/>
          <path id="Trazado_972" data-name="Trazado 972" d="M16.46,44.419c0-.562.07-1.2.07-1.758,6.187.984,12.444.492,18.842.562C32.7,47.864,21.663,48.427,16.46,44.419Z" transform="translate(3.858 10.572)" fill="#4b4b4b"/>
          <path id="Trazado_973" data-name="Trazado 973" d="M83.983,49.1c0,1.406,0,2.812.07,4.148-.352,1.336-1.547,1.2-2.531,1.336-6.538-.211-13.007,0-19.545.352,2.6-2.179,5.906-1.758,8.929-2.39C75.335,51.631,79.835,50.858,83.983,49.1Z" transform="translate(15.499 12.219)" fill="#6f6f6f"/>
          <path id="Trazado_974" data-name="Trazado 974" d="M40.364,40.51a13.5,13.5,0,0,1-1.055.984c-7.593,1.617-15.186,2.461-22.779.07,0-.141-.07-.211-.07-.352l.633-1.336a87.323,87.323,0,0,0,23.06-.07C40.223,40.088,40.294,40.3,40.364,40.51Z" transform="translate(3.858 9.842)" fill="#4b4b4b"/>
          <path id="Trazado_975" data-name="Trazado 975" d="M18.23,50.4c-.984-2.531-.422-3.867,2.672-3.586,2.25.141,4.57.141,6.82.07,1.265,0,2.179.141,2.179,1.758s-.914,1.828-2.179,1.758c-2.531-.07-4.992-.07-7.523-.07l-1.969.07Z" transform="translate(4.198 11.625)" fill="#e5e5e5"/>
          <path id="Trazado_976" data-name="Trazado 976" d="M60.727,31.917c1.687-.211,3.445-.844,4.781.773.984,1.2-.281,2.039-.633,3.023-1.758,0-3.234.141-4.359,2.109-1.2,2.179-1.758.7-1.9-.844C60.024,35.573,59.04,33.183,60.727,31.917Z" transform="translate(14.64 7.748)" fill="#6f6f6f"/>
          <path id="Trazado_977" data-name="Trazado 977" d="M40.59,50.108c1.547.562,2.672,1.547,1.687,3.234a2.309,2.309,0,0,1-3.3.7c-1.758-.984-1.125-2.39-.352-3.726Z" transform="translate(9.327 12.477)" fill="#393939"/>
          <path id="Trazado_978" data-name="Trazado 978" d="M61.2,32.5c-1.687,1.265-.773,3.656-2.039,5.062-2.32-.07-3.3-.844-1.406-2.953,1.476-1.687,2.25-3.867,4.148-5.273Z" transform="translate(14.164 7.165)" fill="#c8c8c8"/>
          <path id="Trazado_979" data-name="Trazado 979" d="M70.074,26.245c-2.672-.211-4.992,1.2-7.593,1.336C64.8,25.823,67.192,24.628,70.074,26.245Z" transform="translate(15.628 6.179)" fill="#c8c8c8"/>
          <path id="Trazado_980" data-name="Trazado 980" d="M62.264,27.713c.07,1.055-.141,1.9-1.406,2.039A2.207,2.207,0,0,1,62.264,27.713Z" transform="translate(15.213 6.749)" fill="#c8c8c8"/>
          <path id="Trazado_981" data-name="Trazado 981" d="M18.084,49.675l2.039-.07a1.946,1.946,0,0,0,.07.633C19.42,50.307,18.576,50.518,18.084,49.675Z" transform="translate(4.273 12.348)" fill="#6d6d6d"/>
          <path id="Trazado_982" data-name="Trazado 982" d="M62.624,27.154l-.7.7Z" transform="translate(15.485 6.606)" fill="#c8c8c8"/>
          <path id="Trazado_983" data-name="Trazado 983" d="M19.207,54.587l10.335.07c-1.758,5.2-3.3,6.4-7.523,5.554C20.894,58.454,19,57.048,19.207,54.587Z" transform="translate(4.557 13.622)" fill="#393939"/>
          <path id="Trazado_984" data-name="Trazado 984" d="M49.1,49.716c1.266,1.336.141,2.812.211,4.218.141,3.3,1.9,5.906,3.093,8.788-4.218-.211-5.343-1.266-6.89-6.187,2.109-.141,2.039-1.969,2.6-3.375C48.54,52.036,48.751,50.911,49.1,49.716Z" transform="translate(11.29 12.377)" fill="#393939"/>
          <path id="Trazado_985" data-name="Trazado 985" d="M19.991,54.587c-.211,2.461,1.687,3.8,2.812,5.554-4.148,0-5.343-.984-6.679-5.554Z" transform="translate(3.772 13.622)" fill="#4d4d4d"/>
          <path id="Trazado_986" data-name="Trazado 986" d="M77.542,53.8c.984-.141,2.179,0,2.531-1.336l2.672,4.64C80.283,57.1,78.456,56.186,77.542,53.8Z" transform="translate(19.48 13.078)" fill="#393939"/>
          <path id="Trazado_987" data-name="Trazado 987" d="M42.28,38.254a2.888,2.888,0,0,1-2.25.562A2.224,2.224,0,0,1,42.28,38.254Z" transform="translate(9.886 9.426)" fill="#7c7c7c"/>
          <path id="Trazado_988" data-name="Trazado 988" d="M35.539,40.51c-.07-.211-.141-.492-.211-.7l1.265.07Z" transform="translate(8.684 9.842)" fill="#7c7c7c"/>
          <path id="Trazado_989" data-name="Trazado 989" d="M86.848,50.955c-.07,2.109-.352,4.57-2.883,4.57s-2.953-2.531-2.953-4.57c0-1.969.352-4.359,2.742-4.429C86.356,46.386,86.708,48.776,86.848,50.955Z" transform="translate(20.368 11.559)" fill="#e5e5e5"/>
          <path id="Trazado_990" data-name="Trazado 990" d="M39.052,30.957a8.257,8.257,0,0,1-3.515,2.672c-.422.141-.914-.492-.7-.914a4.619,4.619,0,0,1,3.234-3.093C38.56,29.481,38.982,30.043,39.052,30.957Z" transform="translate(8.545 7.232)" fill="#f7f7f7"/>
          <path id="Trazado_991" data-name="Trazado 991" d="M54.616,27.322c1.266,2.531-.281,3.656-1.617,4.781-.141.141-.7,0-.914-.141a.806.806,0,0,1-.211-1.125.069.069,0,0,1,.07-.07C52.718,29.642,53.561,28.587,54.616,27.322Z" transform="translate(12.877 6.649)" fill="#f7f7f7"/>
          <path id="Trazado_992" data-name="Trazado 992" d="M58.039,54.379a7.657,7.657,0,0,1-.352,1.828c-.562,1.687-1.336,3.375-3.375,3.445-2.25.07-3.023-1.758-3.586-3.515a6.5,6.5,0,0,1-.281-2.039c-.141-3.234,1.617-6.046,3.726-6.117C56.422,47.911,58.039,50.442,58.039,54.379Z" transform="translate(12.548 11.932)" fill="#e5e5e5"/>
          <path id="Trazado_993" data-name="Trazado 993" d="M69.642,31.408a5.21,5.21,0,0,1-2.672,3.375.63.63,0,0,1-.844-.422c0-.07-.07-.211,0-.281a4.6,4.6,0,0,1,2.39-3.375C69.079,30.353,69.431,30.845,69.642,31.408Z" transform="translate(16.553 7.484)" fill="#f7f7f7"/>
          <text id="F" transform="translate(25.025 120.356)" fill="#001366" font-size="11" font-family="Roboto-Regular, Roboto"><tspan x="0" y="0">F</tspan></text>
          <text id="o" transform="translate(31.891 120.356)" fill="#001366" font-size="11" font-family="Roboto-Regular, Roboto"><tspan x="0" y="0">o</tspan></text>
          <text id="t" transform="translate(39.107 118.356)" fill="#001366" font-size="10" font-family="Roboto-Regular, Roboto"><tspan x="0" y="0">t</tspan></text>
          <text id="o_principal" data-name="o principal" transform="translate(43.118 120.356)" fill="#001366" font-size="11" font-family="Roboto-Regular, Roboto"><tspan x="0" y="0">o principal</tspan></text>
        </g>
      </g>
    </g>
  </g>
</svg>
