<?xml version="1.0" encoding="utf-8"?>
<!-- Generator: Adobe Illustrator 21.1.0, SVG Export Plug-In . SVG Version: 6.00 Build 0)  -->
<svg version="1.1" id="Capa_1" xmlns="http://www.w3.org/2000/svg" xmlns:xlink="http://www.w3.org/1999/xlink" x="0px" y="0px"
	 viewBox="0 0 1403.6 229" style="enable-background:new 0 0 1403.6 229;" xml:space="preserve">
<style type="text/css">
	.st0{fill:#FFFFFF;}
	.st1{opacity:0.5;}
</style>
<g>
	<g>
		<polygon class="st0" points="596.8,229 1403.6,229 1374.1,184 596.8,184 		"/>
		<polygon class="st0" points="659.6,184 16.4,184 0,229 643.5,229 		"/>
		<g>
			<polygon class="st0" points="623.5,199 608.1,199 613.5,184 629,184 			"/>
			<polygon class="st0" points="654.3,199 638.9,199 644.4,184 659.8,184 			"/>
			<polygon class="st0" points="633.6,214 618,214 623.5,199 638.9,199 			"/>
			<polygon class="st0" points="602.2,214 586.8,214 592.2,199 607.7,199 			"/>
			<polygon class="st0" points="643.6,229 628,229 633.4,214 648.9,214 			"/>
			<polygon class="st0" points="612.6,229 597.2,229 602.7,214 618.1,214 			"/>
			<polygon class="st0" points="664.9,214 648.8,214 654.3,199 670.3,199 			"/>
			<polygon class="st0" points="685.8,199 670.4,199 675.9,184 691.3,184 			"/>
			<polygon class="st0" points="695.8,214 680.4,214 685.8,199 701.2,199 			"/>
			<polygon class="st0" points="675,229 659.6,229 665,214 680.4,214 			"/>
		</g>
		<g class="st1">
			<polygon class="st0" points="287,229 287,184 184.2,184 16.4,184 0,229 			"/>
		</g>
		<polygon class="st0" points="123.9,46 140.6,0 83.5,0 66.8,46 		"/>
		<polygon class="st0" points="374.9,46 391.5,0 337.2,0 320.6,46 		"/>
		<polygon class="st0" points="318.5,51 297,110.1 270.5,51 142.6,51 101.3,165 155.8,165 196.2,54.2 245.8,165 331.5,165 372.9,51 
					"/>
		<polygon class="st0" points="268,46 247.5,0 161.3,0 144.7,46 		"/>
		<path class="st0" d="M608.6,46c5.4-16,5.1-26.6-0.9-34.4C601.6,3.7,589.1,0,570.2,0H412.6l-16.7,46H608.6z"/>
		<path class="st0" d="M555.9,51l-23.1,63.7c-1.3,3.4-5.2,5.3-11.7,5.3h-98.4l25.2-69h-54l-41.5,114H510c18.9,0,34.3-4.1,46.1-12
			s20.6-19.8,26.3-35.4L606.6,51H555.9z"/>
		<polygon class="st0" points="687,46 703.7,0 646.6,0 629.9,46 		"/>
		<polygon class="st0" points="627.8,51 586.3,165 643.4,165 685,51 		"/>
		<path class="st0" d="M901.9,46l16.5-46H778.8c-18.9,0-34.2,3.7-46,11.7C721.3,19.4,712.7,31,707,46H901.9z"/>
		<path class="st0" d="M732.9,113.2c0.7-1.9,1.4-4,2.1-6.3c0.7-2.3,1.4-4.4,1.9-6.3l13.6-37.4l4.8-12.2h-50.5l-24.1,66.2
			c-5.7,15.8-5.6,27.8,0.4,35.7c6,8,18.4,12.1,37.3,12.1H858l16.8-46H741C734.3,119,731.6,116.9,732.9,113.2z"/>
		<polygon class="st0" points="1106.7,46 1098.5,0 1030.4,0 988.6,46 		"/>
		<path class="st0" d="M983.4,51L879.2,165h64.6l100.8-113c0.8,4.2,1.5,8.1,2.1,11.8s1.2,7.2,1.9,10.6c0.6,3.4,1.3,7.3,1.9,10.9
			c0.7,3.5,1.4,7.8,2.1,11.8h-28.1l-37.2,41h72.1l4.5,27h63.9l-20.3-114H983.4V51z"/>
		<g class="st1">
			<polygon class="st0" points="1403.6,229 1374.1,184 1304.2,184 1121,184 1121,229 			"/>
		</g>
		<path class="st0" d="M1324.2,108c8.3-0.6,15.7-2.2,22.1-4.5c6.5-2.3,12.2-5.8,17.3-10.2c5.1-4.4,9.5-10.1,13.5-16.8
			c3.9-6.7,7.6-15,11.1-24.5c0.1-0.3,0.2,0,0.3-1h-55.7c1.2,2,1.2,4.5,0.2,7.4c-1.5,4.1-4.1,7.2-7.9,9.3c-3.8,2.2-7.6,3.3-11.5,3.3
			h-73.3l7.4-20h-57.1L1149,165h57.1l31.6-87l95.9,151h69.9L1324.2,108z"/>
		<path class="st0" d="M1390.3,46c2.3-8,3.6-14.3,3.8-19.6c0.3-6.8-1.3-12.3-4.9-16.3c-3.5-4-9-6.4-16.5-8c-7.4-1.6-17-2.1-28.7-2.1
			h-134.7l-16.7,46H1390.3z"/>
		<polygon class="st0" points="64.8,51 0,229 57,229 121.9,51 		"/>
	</g>
</g>
</svg>
