<svg version="1.1" id="prefix__Capa_1" xmlns="http://www.w3.org/2000/svg" x="0" y="0" viewBox="0 0 1403.6 229" xml:space="preserve"><style>.prefix__st2{fill:#fff}.prefix__st3{opacity:.5}.prefix__st5{fill:#ff1e00}.prefix__st9{fill:#0067bf}</style><linearGradient id="prefix__SVGID_1_" gradientUnits="userSpaceOnUse" x1="1403.576" y1="206.5" x2="596.787" y2="206.5"><stop offset="0" stop-color="#0c0256"/><stop offset=".21" stop-color="#0c055a"/><stop offset=".402" stop-color="#0a1065"/><stop offset=".587" stop-color="#082277"/><stop offset=".768" stop-color="#053b91"/><stop offset=".944" stop-color="#015bb3"/><stop offset="1" stop-color="#0067bf"/></linearGradient><path fill="url(#prefix__SVGID_1_)" d="M596.8 229h806.8l-29.5-45H596.8z"/><linearGradient id="prefix__SVGID_2_" gradientUnits="userSpaceOnUse" x1="0" y1="206.5" x2="659.599" y2="206.5"><stop offset="0" stop-color="#960a00"/><stop offset=".13" stop-color="#9f0a00"/><stop offset=".342" stop-color="#b70a00"/><stop offset=".4" stop-color="#bf0a00"/><stop offset="1" stop-color="#ff1e00"/></linearGradient><path fill="url(#prefix__SVGID_2_)" d="M659.6 184H16.4L0 229h643.5z"/><path class="prefix__st2" d="M623.5 199h-15.4l5.4-15H629zM654.3 199h-15.4l5.5-15h15.4zM633.6 214H618l5.5-15h15.4zM602.2 214h-15.4l5.4-15h15.5zM643.6 229H628l5.4-15h15.5zM612.6 229h-15.4l5.5-15h15.4zM664.9 214h-16.1l5.5-15h16zM685.8 199h-15.4l5.5-15h15.4zM695.8 214h-15.4l5.4-15h15.4zM675 229h-15.4l5.4-15h15.4z"/><g class="prefix__st3"><linearGradient id="prefix__SVGID_3_" gradientUnits="userSpaceOnUse" x1="0" y1="206.5" x2="287" y2="206.5"><stop offset=".207" stop-color="#7f1c00"/><stop offset="1" stop-color="#7f1c00" stop-opacity="0"/></linearGradient><path fill="url(#prefix__SVGID_3_)" d="M287 229v-45H16.4L0 229z"/></g><path class="prefix__st5" d="M123.9 46l16.7-46H83.5L66.8 46zM374.9 46l16.6-46h-54.3l-16.6 46z"/><linearGradient id="prefix__SVGID_4_" gradientUnits="userSpaceOnUse" x1="237.065" y1="165" x2="237.065" y2="51"><stop offset="0" stop-color="#960a00"/><stop offset=".13" stop-color="#9f0a00"/><stop offset=".342" stop-color="#b70a00"/><stop offset=".4" stop-color="#bf0a00"/><stop offset="1" stop-color="#ff1e00"/></linearGradient><path fill="url(#prefix__SVGID_4_)" d="M318.5 51L297 110.1 270.5 51H142.6l-41.3 114h54.5l40.4-110.8L245.8 165h85.7l41.4-114z"/><path class="prefix__st5" d="M268 46L247.5 0h-86.2l-16.6 46zM608.6 46c5.4-16 5.1-26.6-.9-34.4C601.6 3.7 589.1 0 570.2 0H412.6l-16.7 46h212.7z"/><linearGradient id="prefix__SVGID_5_" gradientUnits="userSpaceOnUse" x1="479.457" y1="165" x2="479.457" y2="51"><stop offset="0" stop-color="#960a00"/><stop offset=".13" stop-color="#9f0a00"/><stop offset=".342" stop-color="#b70a00"/><stop offset=".4" stop-color="#bf0a00"/><stop offset="1" stop-color="#ff1e00"/></linearGradient><path d="M555.9 51l-23.1 63.7c-1.3 3.4-5.2 5.3-11.7 5.3h-98.4l25.2-69h-54l-41.5 114H510c18.9 0 34.3-4.1 46.1-12 11.8-7.9 20.6-19.8 26.3-35.4L606.6 51h-50.7z" fill="url(#prefix__SVGID_5_)"/><path class="prefix__st5" d="M687 46l16.7-46h-57.1l-16.7 46z"/><linearGradient id="prefix__SVGID_6_" gradientUnits="userSpaceOnUse" x1="635.639" y1="165" x2="635.639" y2="51"><stop offset="0" stop-color="#960a00"/><stop offset=".13" stop-color="#9f0a00"/><stop offset=".342" stop-color="#b70a00"/><stop offset=".4" stop-color="#bf0a00"/><stop offset="1" stop-color="#ff1e00"/></linearGradient><path fill="url(#prefix__SVGID_6_)" d="M627.8 51l-41.5 114h57.1L685 51z"/><path class="prefix__st9" d="M901.9 46l16.5-46H778.8c-18.9 0-34.2 3.7-46 11.7C721.3 19.4 712.7 31 707 46h194.9z"/><linearGradient id="prefix__SVGID_7_" gradientUnits="userSpaceOnUse" x1="775.774" y1="165" x2="775.774" y2="51"><stop offset="0" stop-color="#0c0246"/><stop offset=".4" stop-color="#00186a"/><stop offset="1" stop-color="#0067bf"/></linearGradient><path d="M732.9 113.2c.7-1.9 1.4-4 2.1-6.3.7-2.3 1.4-4.4 1.9-6.3l13.6-37.4 4.8-12.2h-50.5l-24.1 66.2c-5.7 15.8-5.6 27.8.4 35.7 6 8 18.4 12.1 37.3 12.1H858l16.8-46H741c-6.7 0-9.4-2.1-8.1-5.8z" fill="url(#prefix__SVGID_7_)"/><path class="prefix__st9" d="M1106.7 46l-8.2-46h-68.1l-41.8 46z"/><linearGradient id="prefix__SVGID_8_" gradientUnits="userSpaceOnUse" x1="1003.588" y1="165" x2="1003.588" y2="51"><stop offset="0" stop-color="#0c0246"/><stop offset=".4" stop-color="#00186a"/><stop offset="1" stop-color="#0067bf"/></linearGradient><path d="M983.4 51L879.2 165h64.6l100.8-113c.8 4.2 1.5 8.1 2.1 11.8.6 3.7 1.2 7.2 1.9 10.6.6 3.4 1.3 7.3 1.9 10.9.7 3.5 1.4 7.8 2.1 11.8h-28.1l-37.2 41h72.1l4.5 27h63.9l-20.3-114H983.4z" fill="url(#prefix__SVGID_8_)"/><g class="prefix__st3"><linearGradient id="prefix__SVGID_9_" gradientUnits="userSpaceOnUse" x1="1121" y1="206.5" x2="1403.576" y2="206.5"><stop offset="0" stop-color="#00003f" stop-opacity="0"/><stop offset=".79" stop-color="#00003f"/></linearGradient><path fill="url(#prefix__SVGID_9_)" d="M1403.6 229l-29.5-45H1121v45z"/></g><linearGradient id="prefix__SVGID_10_" gradientUnits="userSpaceOnUse" x1="1276.305" y1="229" x2="1276.305" y2="51"><stop offset="0" stop-color="#0c0246"/><stop offset=".4" stop-color="#00186a"/><stop offset="1" stop-color="#0067bf"/></linearGradient><path d="M1324.2 108c8.3-.6 15.7-2.2 22.1-4.5 6.5-2.3 12.2-5.8 17.3-10.2 5.1-4.4 9.5-10.1 13.5-16.8 3.9-6.7 7.6-15 11.1-24.5.1-.3.2 0 .3-1h-55.7c1.2 2 1.2 4.5.2 7.4-1.5 4.1-4.1 7.2-7.9 9.3-3.8 2.2-7.6 3.3-11.5 3.3h-73.3l7.4-20h-57.1L1149 165h57.1l31.6-87 95.9 151h69.9l-79.3-121z" fill="url(#prefix__SVGID_10_)"/><path class="prefix__st9" d="M1390.3 46c2.3-8 3.6-14.3 3.8-19.6.3-6.8-1.3-12.3-4.9-16.3-3.5-4-9-6.4-16.5-8-7.4-1.6-17-2.1-28.7-2.1h-134.7l-16.7 46h197.7z"/><linearGradient id="prefix__SVGID_11_" gradientUnits="userSpaceOnUse" x1="60.949" y1="229" x2="60.949" y2="51"><stop offset="0" stop-color="#960a00"/><stop offset=".13" stop-color="#9f0a00"/><stop offset=".342" stop-color="#b70a00"/><stop offset=".4" stop-color="#bf0a00"/><stop offset="1" stop-color="#ff1e00"/></linearGradient><path fill="url(#prefix__SVGID_11_)" d="M64.8 51L0 229h57l64.9-178z"/></svg>