<svg xmlns="http://www.w3.org/2000/svg" viewBox="0 0 501 501"><defs><style>.cls-1{fill:#001366;}.cls-2{fill:none;}</style></defs><title>libro_azul</title><g id="Capa_2" data-name="Capa 2"><g id="Capa_1-2" data-name="Capa 1"><g id="lLcZx8.tif"><path class="cls-1" d="M454.945,371.352Q410.684,209.073,365.9,46.94c-7.116-25.857-22.558-35.3-48.965-28.294-71.589,19.005-143.026,38.585-214.451,58.2-16.095,4.421-26.446,15.226-27.293,32.218-.532,10.624.747,21.3,17.409,17.958,17.3-3.472,30.163,4.576,34.671,21.489,4.814,18.063-3.381,30.852-21.158,36.405-8,2.5-10.46,6.2-7.886,14.226,2.408,7.51,4.473,13.2,14.742,10.475,18.473-4.906,31.283,3.916,36.935,20.709,6.171,18.326-3.822,30.492-20.431,36.8-8.96,3.4-10.183,8.058-7.885,16.386,2.56,9.28,7.228,9.663,15.958,8.037,17.1-3.186,29.9,4.663,34.651,21.388,4.465,15.717-1.064,28.536-16.731,35.553-7.232,3.239-16.161,2.979-11.869,16.593,3.978,12.617,9.844,9.8,18.977,8.532,15.552-2.151,27.23,5.9,32.013,20.425,4.745,14.411,1.561,30.037-13.562,34.847-20.237,6.436-16.118,17.462-11,31.009,7.944,21.029,22.506,26.876,44.821,24.026,37.713-4.817,72.495-24.44,110.034-30.742.28-.745,61.609-16.1,62.406-15.586,11.8-3.425,23.6-6.87,35.429-10.2C456.975,417.764,464.3,405.659,454.945,371.352Zm-262.6-93.514c-1.474-6.54,1.691-9.815,7.625-11.4,55.738-14.862,111.5-29.648,167.169-44.757,6.746-1.831,8.925.058,11.131,6.4,3.548,10.19-3.7,11.212-9.7,12.851-36.673,10.013-73.46,19.608-110.135,29.609-18.322,5-36.49,10.556-54.729,15.861C196.876,287.171,193.7,283.879,192.341,277.838Zm8.921,31.241c-3.1-9.336,5.458-9.453,10.135-10.769,44.034-12.389,88.206-24.292,132.346-36.3,8.838-2.406,17.663-4.9,26.588-6.947,6.556-1.5,13.866-5.726,17.266,5.287,3.547,11.486-4.945,11.451-11.566,13.281Q314.639,290.6,253.19,307.386c-13.878,3.775-27.877,7.108-41.822,10.644C203.372,320.191,202.807,313.737,201.262,309.079Zm22.659,40.109c-6.19,1.681-10.638,3.515-13.587-4.934-3.356-9.61,2.018-11.232,8.942-13.127q81.479-22.308,162.9-44.806c8.437-2.322,14.536-1.006,14.546,7.4,1,9.377-4.148,10.268-9.5,11.69Q305.517,327.1,223.921,349.188Zm180.172,44.44c-11.421,2.641-22.706,5.876-34.03,8.93-20.393,5.5-25.7,1.491-26.923-20.455-2.048-7.349,2.755-8.7,8.308-10.091,14.539-3.64,29.376-6.6,43.364-11.794,14.465-5.371,20.308-1.946,24.459,13.2C423.619,389.286,415.031,391.1,404.093,393.628ZM311.809,194.265,234.6,214.649a1.427,1.427,0,0,0-.109.54c.039,3.23,1.317,8.455-.082,9.311-4,2.446-9.024,3.441-13.776,4.239-1.1.185-3.3-2.458-3.981-4.2-1.507-3.847-1.945-7.474-6.88-9.7-3.428-1.543-5.747-6.64-7.474-10.62a160.127,160.127,0,0,1-6.722-19.583c-2.7-9.4-.647-18.214,4.912-27.449-4.161,1.1-7.451,2.039-10.777,2.827-4.769,1.131-6.17-.073-7.724-6.419-1.188-4.846-.167-6.59,4.339-7.839,5.485-1.52,9.456,1.217,13.728,5.065.152-2.223.183-3.943.4-5.639.8-6.217,1.49-12.453,2.525-18.631,1.552-9.273,6.875-15.431,15.763-18.706,18.214-6.71,36.76-12.044,56.1-14.293,7.165-.833,13.5.9,18.287,6.492,5.738,6.712,11.235,13.629,16.139,19.607,1.014-1.283,2.585-3.488,4.38-5.492,2.729-3.047,6.753-5.529,10.062-3.289,2.41,1.63,3.252,6.163,3.844,9.567.2,1.15-2.268,3.4-3.952,4.1-3.176,1.329-6.669,1.9-10.722,2.972,1.881,1.252,3.118,2.059,4.337,2.891,6.872,4.684,11.817,10.882,13.4,19.11a220.022,220.022,0,0,1,3.69,25.892c.228,3.241-2.184,6.647-3.275,10.015a7.457,7.457,0,0,0-.392,3.36c.346,2.114,1.378,4.167,1.426,6.262.038,1.639-.572,4.38-1.6,4.767a66.019,66.019,0,0,1-13.25,3.471c-1.1.168-2.969-1.889-3.782-3.321C312.489,198.3,312.32,196.2,311.809,194.265Zm-9.435-67.795c-3.608-5.2-7.422-10.523-11.049-15.972-4.313-6.48-10.068-8.979-17.746-7.229-3.133.714-6.412.766-9.566,1.41-16.136,3.293-32.166,7.007-46.881,14.751-2,1.052-4.492,3.044-4.872,4.973-1.766,8.956-2.868,18.042-4.19,26.964Zm-74.13,47.08a10.374,10.374,0,0,0-12.978-7.18,10.553,10.553,0,0,0-7.24,12.643,10.4,10.4,0,0,0,12.889,7.385A10.24,10.24,0,0,0,228.244,173.55Zm88.4-22.95a10.259,10.259,0,0,0-12.682-7.641,10.543,10.543,0,0,0-7.615,12.806,10.394,10.394,0,0,0,12.5,7.418A10.245,10.245,0,0,0,316.643,150.6Z"/><path class="cls-1" d="M358.191,451.346a129.625,129.625,0,0,1,22.517,2.989c15.364,3.439,33.4-3.037,50.126-5.46,10.318-1.5,20.525-3.873,26.41-16.349C435.2,430.182,370.114,449.021,358.191,451.346Z"/><path class="cls-1" d="M430.58,252.99,367.306,25.048c20.884.421,34.065,9.577,37,29.109,9.941,66.078,18.964,132.294,28.338,198.457Z"/><path class="cls-1" d="M135.147,431.155c-15.528,1.556-22.492-4.133-24.9-14.058-2.314-9.535,2.732-17.18,11.689-20.14a323.759,323.759,0,0,1,41.873-11.01c9.269-1.734,16.9,3.074,19.622,12.543,2.644,9.194.129,17.952-9.22,21.321C160.076,424.905,145.319,428.276,135.147,431.155Z"/><path class="cls-1" d="M67.559,183.287c-15.335,1.026-22.266-3.223-24.586-12.733-2.3-9.432,1.546-17.565,10.638-20.535A339.457,339.457,0,0,1,97.082,139c9.5-1.76,16.631,3.652,19.1,13,2.526,9.559-1.9,17.514-10.655,20.611C91.458,177.6,76.749,180.778,67.559,183.287Z"/><path class="cls-1" d="M88.064,266.384c-13.229-.029-20.335-3.777-22.271-13.7-1.834-9.394,1.372-17.488,10.7-20.555a352.486,352.486,0,0,1,41.53-10.986c10.406-2.06,17.727,3.537,20.556,13.682,2.736,9.81-2.206,17.3-10.773,20.349C113.761,260.173,99.074,263.366,88.064,266.384Z"/><path class="cls-1" d="M110.305,349.065c-12.754-.179-19.942-3.722-21.715-13.948-1.654-9.539,1.65-17.566,11.007-20.607a333.4,333.4,0,0,1,41.884-10.9c9.356-1.74,16.929,2.932,19.042,12.871,1.939,9.115-.19,18.083-9.634,21.357C136.7,342.76,121.9,345.939,110.305,349.065Z"/></g><rect class="cls-2" width="501" height="501"/></g></g></svg>