<?xml version="1.0" encoding="utf-8"?>
<!-- Generator: Adobe Illustrator 19.2.1, SVG Export Plug-In . SVG Version: 6.00 Build 0)  -->
<svg version="1.1" id="Capa_1" xmlns="http://www.w3.org/2000/svg" xmlns:xlink="http://www.w3.org/1999/xlink" x="0px" y="0px"
	 viewBox="0 0 1267 736.7" style="enable-background:new 0 0 1267 736.7;" xml:space="preserve">
<style type="text/css">
	.st0{fill:#333333;}
</style>
<g>
	<g>
		<g>
			<circle class="st0" cx="1028.5" cy="529.3" r="32.5"/>
			<circle class="st0" cx="258.3" cy="529.3" r="32.5"/>
		</g>
		<path class="st0" d="M1220.2,371.6c-66.3-84.5-182.1-119.9-187-121.3l-76.8-4C834.8,154.5,723,111.4,718.3,109.6l-3.3-0.8
			c-13.4-1.8-330.6-41.9-464.2,34.8C117.1,220.2,80.3,304.5,78.8,308l-2.5,6l2.7,5.9c6.9,14.9,11.2,34.5,9,38.4
			c-26.1,8-34.9,27.8-36,39.6v137.3l69.3,64.1h26.4c-0.2-0.2-0.3-0.5-0.4-0.7c23.1,37,64.1,61.6,110.9,61.6
			c46.5,0,87.3-24.3,110.5-60.9H918c23.2,36.5,64,60.9,110.5,60.9c48.3,0,90.3-26.2,113-65c-0.8,1.4-1.5,2.8-2.3,4.2h99.5V416.3
			C1238.6,391.5,1224.7,376,1220.2,371.6z M258.3,611.7c-47.4,0-85.8-38.4-85.8-85.8c0-47.4,38.4-85.8,85.8-85.8
			s85.8,38.4,85.8,85.8C344.2,573.3,305.8,611.7,258.3,611.7z M1028.5,615.2c-47.4,0-85.8-38.4-85.8-85.8
			c0-47.4,38.4-85.8,85.8-85.8c47.4,0,85.8,38.4,85.8,85.8C1114.3,576.7,1075.9,615.2,1028.5,615.2z M1209.3,570.1h-56.2
			c-1,2.9-2.2,5.6-3.4,8.4c6.2-15.2,9.6-31.7,9.6-49.1c0-72.3-58.6-130.9-130.9-130.9S897.6,457,897.6,529.3
			c0,14.2,2.3,27.9,6.6,40.8H382.7c4.2-12.8,6.6-26.5,6.6-40.8c0-72.3-58.6-130.9-130.9-130.9s-131,58.6-131,130.9
			c0,15.7,2.9,30.6,8,44.6c-0.5-1.3-1.1-2.5-1.5-3.8h-1l-51.5-47.6V399.3c0.6-2.2,3.3-9.3,15.3-13c8.1-2.5,14.3-8,17.7-15.8
			c0.4-1,0.6-2.1,1-3.1h15.3c0,0,38.3-3,57.1-78.4l-63.8,0.3c3.2-4.2,10.3-13.1,14.3-17.8h54.3l85.4-89.9l1.7-20
			c128-59.2,405.2-27.1,429.9-24.1c14.2,5.6,120.9,49.5,232.8,134.7l3.6,2.8l80.5,3.8c8,2.6,44.9,15.2,85.5,39.3
			c0.1,0.2,17.8,46.1,47.5,80.3c0,0,2.3,4.6,9.6,4.4c6.2-0.2,20.6,1.3,37.7,0.6c1.5,3.6,2.6,7.9,2.6,12.9L1209.3,570.1L1209.3,570.1
			z M1144.7,589.4c1.4-2.7,2.8-5.4,4-8.3C1147.5,584,1146.1,586.7,1144.7,589.4z M141,587.2c-0.6-1.3-1.2-2.5-1.8-3.8
			C139.8,584.6,140.4,585.9,141,587.2z"/>
		<path class="st0" d="M820.1,247.4"/>
		<g>
			<path class="st0" d="M822.4,248.9h-0.8c0,0,0,0-0.1,0s-0.1,0-0.1,0s0,0,0.1,0h-0.1c-2.1-0.1-9.8,0.3-18.1,7.2
				c-1.4,1.1-2.7,2.3-3.9,3.7c-0.1,0.1-0.1,0.1-0.2,0.2h0.1c-0.8,1-1.6,2.1-2.2,3.3c-2.8,5.5-3.5,13,0.4,23.3l4.9,16.7l-0.3,0.2
				c57.8,12.2,75.1,0,75.1,0v-28.1C846.8,254.2,830.8,249.2,822.4,248.9z"/>
			<path class="st0" d="M802.1,303.6L802.1,303.6L802.1,303.6z"/>
		</g>
	</g>
	<g>
		<path class="st0" d="M311.9,173.5L239.8,278l250.1,3.2L468,159.6C381.4,163.5,311.9,173.5,311.9,173.5z"/>
		<path class="st0" d="M690.2,172.5c-55.5-12.7-124.2-15.4-187.7-14.1l24.7,123.3l259.7,3.4c0,0-17-29.7,21.2-39.2
			C832,240.1,690.2,172.5,690.2,172.5z"/>
	</g>
	<polygon class="st0" points="607.5,345.6 536.5,345.6 545.1,322.2 616,322.2 	"/>
</g>
</svg>
