<?xml version="1.0" encoding="utf-8"?>
<!-- Generator: Adobe Illustrator 19.2.1, SVG Export Plug-In . SVG Version: 6.00 Build 0)  -->
<svg version="1.1" id="Capa_1" xmlns="http://www.w3.org/2000/svg" xmlns:xlink="http://www.w3.org/1999/xlink" x="0px" y="0px"
	 viewBox="0 0 1267 736.7" style="enable-background:new 0 0 1267 736.7;" xml:space="preserve">
<style type="text/css">
	.st0{fill:#333333;}
</style>
<path class="st0" d="M257.6,312.3"/>
<g>
	<g>
		<g>
			<path class="st0" d="M817.1,310.4c0,0-0.8,0-0.7,0c0,0,0,0-0.1,0s0,0-0.1,0c0,0,0,0,0.1,0h-0.1c-1.9,0-9.1,0.3-16.7,6.6
				c-1.3,1-2.5,2.1-3.6,3.5c-0.1,0.1-0.1,0.1-0.2,0.2h0.1c-0.8,1-1.5,1.9-2.1,3.1c-2.6,5.1-3.2,12,0.4,21.6l4.6,15.5l-0.3,0.2
				c53.5,11.3,69.4,0,69.4,0v-26C839.6,315.3,824.8,310.7,817.1,310.4z"/>
			<path class="st0" d="M798.3,361L798.3,361L798.3,361z"/>
		</g>
		<polygon class="st0" points="396.6,382.6 342.5,382.6 349,364.7 403.1,364.7 		"/>
		<polygon class="st0" points="671,382.6 616.9,382.6 623.4,364.7 677.5,364.7 		"/>
		<polygon class="st0" points="447.3,484.7 447.3,509 859.6,509 		"/>
		<g>
			<path class="st0" d="M290.6,417.4c-56.4,0-102.2,45.8-102.2,102.2s45.8,102.2,102.2,102.2S392.8,576,392.8,519.6
				S347.1,417.4,290.6,417.4z M290.6,591.2c-39.6,0-71.6-32.1-71.6-71.6c0-39.6,32.1-71.6,71.6-71.6c39.6,0,71.6,32.1,71.6,71.6
				C362.2,559.2,330.2,591.2,290.6,591.2z"/>
			<circle class="st0" cx="290.6" cy="519.6" r="25.8"/>
		</g>
		<g>
			<path class="st0" d="M1023.6,417.4c-56.4,0-102.2,45.8-102.2,102.2s45.8,102.2,102.2,102.2s102.2-45.8,102.2-102.2
				C1125.8,463.2,1080.1,417.4,1023.6,417.4z M1023.6,591.2c-39.6,0-71.6-32.1-71.6-71.6c0-39.6,32.1-71.6,71.6-71.6
				c39.6,0,71.6,32.1,71.6,71.6C1095.2,559.2,1063.2,591.2,1023.6,591.2z"/>
			<circle class="st0" cx="1023.6" cy="519.6" r="25.8"/>
		</g>
		<g>
			<path class="st0" d="M385.6,549.2l541.4,0.1c-1.7-5.7-2.9-11.5-3.6-17.6H389.7C388.8,537.8,387.4,543.6,385.6,549.2z"/>
			<path class="st0" d="M1228,410.2c-97.7-76.8-250.5-82.7-295-82.7c-17.4,0-30.3-7.3-30.3-7.3l0,0
				C780.6,237.8,674.6,216.8,670.2,216l-272.1-0.2l-2.1,0.3c-57.7,14.4-181,65.6-186.6,79.8c-1.2,1.4-7.1,3.3-11.1,3.7H63V505
				l3.1,2.6c29.1,24.5,90.5,40.8,93.1,41.5h32.5c-1.9-5.6-3.2-11.4-4.1-17.4h-25c-7.8-2.1-56.7-16-82-35.1v-82.3
				c66-2.5,58.8-48.4,58.8-48.4H80.6v-48.7H199c4.8-0.4,20.4-2.6,25.8-12.8c11.2-9.2,106.6-53.8,174.4-71h268.4
				c9.9,2.1,111.7,24.8,225.6,101.6c0.7,0.4,17.1,10.1,39.8,10.1c40.8,0,175.6,5.2,268.9,68h-64.6c4.8,35.3,23.9,35.6,23.9,35.6
				h52.5v48.2h-14.3c-3.7-8.5-14.1-14.7-20.9-14.7c-8.4,0-15.2,9.3-15.2,20.8s6.8,20.8,15.2,20.8c6.8,0,17.2-6.2,20.9-14.7h14.3
				v22.8h-87.6c-0.7,6-1.9,11.9-3.6,17.6h108.9V412.9L1228,410.2z"/>
		</g>
	</g>
	<g>
		<path class="st0" d="M433.4,245.9c0,0-70.8,7.8-168.6,93.6h33.4h237.5l-16.9-93.6H433.4L433.4,245.9z"/>
		<path class="st0" d="M796.4,311.3c0,0-19.8-30.9-124.9-65.4H542.8l16.9,93.6h226.4C786.1,339.5,779.5,320.1,796.4,311.3z"/>
	</g>
</g>
</svg>
