<?xml version="1.0" encoding="utf-8"?>
<!-- Generator: Adobe Illustrator 19.2.1, SVG Export Plug-In . SVG Version: 6.00 Build 0)  -->
<svg version="1.1" id="Capa_1" xmlns="http://www.w3.org/2000/svg" xmlns:xlink="http://www.w3.org/1999/xlink" x="0px" y="0px"
	 viewBox="0 0 1267 736.7" style="enable-background:new 0 0 1267 736.7;" xml:space="preserve">
<style type="text/css">
	.st0{fill:#333333;}
</style>
<g>
	<g>
		<g>
			<path class="st0" d="M792.8,259.1c0,0-0.9,0-0.8,0c0,0,0,0-0.1,0s-0.1,0-0.1,0s0,0,0.1,0h-0.1c-2.2-0.1-10.4,0.3-19.1,7.6
				c-1.5,1.1-2.9,2.4-4.1,3.9c-0.1,0.1-0.2,0.1-0.2,0.2h0.1c-0.9,1.1-1.7,2.2-2.4,3.5c-3,5.8-3.7,13.7,0.4,24.6l5.2,17.6l-0.3,0.2
				c61,12.8,79.2,0,79.2,0v-29.6C818.6,264.7,801.7,259.4,792.8,259.1z"/>
			<path class="st0" d="M771.4,316.8L771.4,316.8L771.4,316.8z"/>
		</g>
		<g>
			<path class="st0" d="M266,363.9c-58.5,0-105.9,47.4-105.9,105.9S207.5,575.7,266,575.7s105.9-47.4,105.9-105.9
				C371.9,411.4,324.5,363.9,266,363.9z M266,547.9c-43.1,0-78.1-35-78.1-78.1s35-78.1,78.1-78.1s78.1,35,78.1,78.1
				C344.1,513,309.1,547.9,266,547.9z"/>
			<circle class="st0" cx="266" cy="469.9" r="21.3"/>
		</g>
		<g>
			<path class="st0" d="M971.6,363.9c-58.5,0-105.9,47.4-105.9,105.9s47.4,105.9,105.9,105.9s105.9-47.4,105.9-105.9
				C1077.5,411.4,1030.1,363.9,971.6,363.9z M971.6,547.9c-43.1,0-78.1-35-78.1-78.1s35-78.1,78.1-78.1s78.1,35,78.1,78.1
				C1049.7,513,1014.7,547.9,971.6,547.9z"/>
			<circle class="st0" cx="971.6" cy="469.9" r="21.3"/>
		</g>
		<polygon class="st0" points="416.8,435.4 416.8,459.9 726.4,459.9 		"/>
		<polygon class="st0" points="321.9,327 260.3,327 267.7,306.6 329.3,306.6 		"/>
		<polygon class="st0" points="585.9,332.7 524.3,332.7 531.7,312.3 593.3,312.3 		"/>
		<g>
			<path class="st0" d="M1183,360.9c-90.9-69.7-209.8-85.4-244.2-85.4c-19.3,0-35.9-6.5-39.1-7.8C719.1,159.3,662.2,155,659.1,154.8
				c-66.6,0.8-399.7,4.8-417.5,9.6c-17.9,4.8-23.4,21.7-24,34.7c-21.1,15.5-99.4,72.9-113,83.7c-16.7,13.3-18,23.9-16.7,29.8
				l2.7,70.9l-19.6,12V447c0,23.4,14.9,47.9,15.6,49l2.1,3.4l39.5,16h43c-3.8-7.7-6.8-15.8-8.7-24.4H133l-27.5-11.1
				c-3.9-7.3-10.1-21.3-10.1-32.8v-37.8l20.1-12.3l-1.3-33.2c12.3,1,29,1.6,34.6-1.3c9.2-4.8,27.5-42.5,27.5-42.5h-63.8l-0.4-9.6
				v-0.5c0.7-1.2,2.7-3.8,7.7-7.8c4.8-3.8,18.6-14.1,35.1-26.3h61.2L266,222l7.6-35.6c68.9-2.8,255.5-5.7,384.9-7.2
				c0.5,0,56.1,5.8,229.3,109.8l1.2,0.7c0.9,0.4,23,10.3,49.7,10.3c27.2,0,110.7,10.6,187.2,53h-38.5l32.6,37.3h52.5V447h-26.3
				c-3.8-4.8-9.9-8-13.4-8c-5.3,0-9.6,7.4-9.6,16.6c0,9.1,4.3,16.6,9.6,16.6c4.2,0,12.2-4.7,15.4-11.2h24.3v30h-96.9
				c-1.9,8.6-4.8,16.8-8.7,24.4h130V390.2C1197,372.8,1184.8,362.3,1183,360.9z"/>
			<path class="st0" d="M877.4,515.4c-3.8-7.7-6.8-15.8-8.7-24.4H369.4c-1.9,8.6-4.8,16.8-8.7,24.4H877.4z"/>
		</g>
	</g>
	<g>
		<path class="st0" d="M769.2,255.6l-110-53.5H513.5l16,88.6h226C755.5,290.8,750.9,260.2,769.2,255.6z"/>
		<polygon class="st0" points="344.1,202.2 266,290.8 502.1,290.8 486.1,202.2 		"/>
	</g>
</g>
</svg>
