<?xml version="1.0" encoding="utf-8"?>
<!-- Generator: Adobe Illustrator 19.2.1, SVG Export Plug-In . SVG Version: 6.00 Build 0)  -->
<svg version="1.1" id="Capa_1" xmlns="http://www.w3.org/2000/svg" xmlns:xlink="http://www.w3.org/1999/xlink" x="0px" y="0px"
	 viewBox="0 0 1267 736.7" style="enable-background:new 0 0 1267 736.7;" xml:space="preserve">
<style type="text/css">
	.st0{fill:#333333;}
</style>
<g>
	<g>
		<polygon class="st0" points="939.4,383 996.4,383 1003.3,364.2 946.3,364.2 		"/>
		<path class="st0" d="M296.6,504.1c-14.6-3.5-27.5,9.3-23.9,23.9c1.7,6.9,7.3,12.5,14.2,14.2c14.6,3.5,27.5-9.3,23.9-23.9
			C309.1,511.4,303.4,505.7,296.6,504.1z"/>
		<path class="st0" d="M1035,504.1c-14.6-3.5-27.5,9.3-23.9,23.9c1.7,6.9,7.3,12.5,14.2,14.2c14.6,3.5,27.5-9.3,23.9-23.9
			C1047.5,511.4,1041.8,505.7,1035,504.1z"/>
		<polygon class="st0" points="939.4,174 939.4,341.3 1024.5,341.2 1067.4,381.7 1128,381.7 1125.1,174 1022.8,174 		"/>
		<path class="st0" d="M1199,436.6c0-19.6,0.6-33.6,0.7-35.7c0.4-3.6-5.6-192.2-7.7-258c-0.4-13.9-10-22.3-25.9-22.3
			c-88.7,0.4-384,1.8-435.9,0.4c-60.7-1.5-601,0-606,0c-1.2,0-11.5-0.3-18.1,9.3c-2.9,3.9-32.8,45.5-30.4,112.7
			c2.3,65.8,3.9,173.9,3.9,174.5c0,1-0.7,9.7-10.1,10.5l-8.5,0.7v75.2l1.1,2.1c0.6,1.1,15,26.9,47.7,42l1.9,0.9h89.2
			c11.3,39.6,47.6,68.7,90.8,68.7s79.6-29,90.8-68.7h556.7c11.3,39.6,47.6,68.7,90.8,68.7s79.6-29,90.8-68.7h69.3l1.3-0.4
			c1-0.3,25.5-7.8,24.5-40.7v-34.6l-2.5-2.7C1213.5,470.4,1199,454.2,1199,436.6z M354.7,535.7c-4.8,25.3-25.2,45.6-50.4,50.4
			c-45.2,8.6-84.1-30.3-75.6-75.6c4.8-25.3,25.2-45.6,50.4-50.4C324.3,451.6,363.3,490.5,354.7,535.7z M1093.1,535.7
			c-4.8,25.3-25.2,45.6-50.4,50.4c-45.2,8.6-84.1-30.3-75.6-75.6c4.8-25.3,25.2-45.6,50.4-50.4
			C1062.7,451.6,1101.6,490.5,1093.1,535.7z M1197.5,496.8h-9.3c-3.9-6.3-12.3-10.8-18.3-10.8c-8.1,0-14.7,7.8-14.7,17.4
			c0,9.6,6.6,17.4,14.7,17.4c6.2,0,14.8-4.4,18.6-10.8h8.9c-0.3,14-7.5,18.9-10.2,20.2h-63c0.2-2.4,0.4-4.8,0.4-7.3
			c0-52.2-42.3-94.5-94.5-94.5s-94.5,42.3-94.5,94.5c0,4.2,0.4,8.4,0.9,12.5c-0.3-1.7-0.8-3.4-1-5.2H385.8c0.2-2.4,0.4-4.8,0.4-7.3
			c0-52.2-42.3-94.5-94.5-94.5s-94.5,42.3-94.5,94.5c0,2.4,0.2,4.9,0.4,7.3h-81.7c-21.1-10.3-32.7-26-36.2-31.3v-54.3
			c13.8-5.1,18.3-18.9,18.6-26.9c0-0.3-0.1-8.7-0.3-22.1c18.6-2.5,22.1-12.2,22.1-12.2V253.3H94.7c-0.1-3.7-0.2-7.4-0.4-10.9
			c-2.2-62.2,26.5-100.6,26.8-101l0.3-0.5c0.8-1.1,1.8-1.3,2.4-1.3c5.4,0,545.5-1.5,606,0c54.5,1.4,68.2,9.7,68.2,9.7
			c1.7,1.3,355.6-5.6,360-4.6c0.8,14.3,4.8,189.8,3.7,269c-0.2,12.3,10.4,6,18.8,7.3c-0.1,4.6-0.1,9.7-0.1,15.4
			c0,19.9,11.8,37,17.1,43.7V496.8z"/>
	</g>
	<polyline class="st0" points="415.4,454.9 415.4,490.6 900.7,490.6 424.4,454.9 	"/>
	<g>
		<path class="st0" d="M555,186.2c-31.6,0.1-65.4,0.2-99.2,0.3l27.5,136.8h127.1l-27-137.4C573.9,186,564.5,186.1,555,186.2z"/>
		<path class="st0" d="M188.1,187.2c0,0-33.1-5.5-32.6,12.8c0.6,22.1,0,87.2,0,87.2l55.8,36.1H301L274.4,187
			C222.8,187.1,188.1,187.2,188.1,187.2z"/>
		<path class="st0" d="M299.7,186.9l27.4,136.4h26.1h104l-26.9-136.7C384,186.7,338.5,186.8,299.7,186.9z"/>
		<path class="st0" d="M860.2,185.3c-9.9,0.2-50.5,0.1-105.7,0.1l27.8,138h94.2c0,0,17.4-2.4,17.4-14s0-11.6,0-11.6v-88.4
			C894,209.3,899.8,184.5,860.2,185.3z"/>
		<path class="st0" d="M730,185.3c-2.8,0-5.6,0-8.4,0c-1.1,0-2.1-0.1-3.2-0.1c-1.2,0-2.9,0-4.9,0.1c-32.6,0-68.4,0.1-104.7,0.4
			l27.7,137.6h98.2h21.7l-27.1-137.9L730,185.3z"/>
	</g>
</g>
</svg>
