<?xml version="1.0" encoding="utf-8"?>
<!-- Generator: Adobe Illustrator 19.2.1, SVG Export Plug-In . SVG Version: 6.00 Build 0)  -->
<svg version="1.1" id="Capa_1" xmlns="http://www.w3.org/2000/svg" xmlns:xlink="http://www.w3.org/1999/xlink" x="0px" y="0px"
	 viewBox="0 0 1267 736.7" style="enable-background:new 0 0 1267 736.7;" xml:space="preserve">
<style type="text/css">
	.st0{fill:#333333;}
</style>
<g>
	<polygon class="st0" points="861.3,367.9 913.9,367.9 920.3,350.4 867.6,350.4 	"/>
	<path class="st0" d="M260.7,479c-13.5-3.3-25.4,8.6-22.1,22.1c1.5,6.4,6.7,11.6,13.1,13.1c13.5,3.3,25.4-8.6,22.1-22.1
		C272.3,485.7,267.1,480.5,260.7,479z"/>
	<path class="st0" d="M943.3,479c-13.5-3.3-25.4,8.6-22.1,22.1c1.5,6.4,6.7,11.6,13.1,13.1c13.5,3.3,25.4-8.6,22.1-22.1
		C954.9,485.7,949.7,480.5,943.3,479z"/>
	<polygon class="st0" points="938.8,173.8 861.7,173.8 861.7,328.5 940.4,328.4 981.1,365.8 1036.1,365.8 1033.4,173.8 	"/>
	<path class="st0" d="M1246.8,379.6c-0.6-24.8-33.4-51.8-46.7-52.2c-66.3-2-106-1.9-106-2.6c-1.9-58.2-4.3-141.2-5.6-179.7
		c-0.4-12.9-9.2-20.6-23.9-20.6c-82,0.4-355,1.6-403,0.4c-56.1-1.4-555.6,0-560.2,0c-1.1,0-10.7-0.3-16.8,8.6
		c-2.7,3.6-30.3,42-28.1,104.2c2.1,60.8,3.6,160.8,3.6,161.3c0,0.9-0.6,9-9.4,9.7l-7.9,0.7V479l1.1,1.9c0.6,1,13.9,24.9,44.1,38.8
		l1.7,0.8h82.4c10.4,36.6,44,63.5,84,63.5s73.6-26.9,84-63.5h514.6c10.4,36.6,44,63.5,84,63.5s73.6-26.9,84-63.5
		c0,0,168.5,0.3,220.2,0C1246.4,520.4,1248.1,432.8,1246.8,379.6z M314.4,508.2c-4.4,23.4-23.3,42.2-46.6,46.6
		c-41.8,7.9-77.8-28-69.8-69.9c4.4-23.4,23.3-42.2,46.6-46.6C286.4,430.4,322.4,466.4,314.4,508.2z M997,508.2
		c-4.4,23.4-23.3,42.2-46.6,46.6c-41.8,7.9-77.8-28-69.8-69.9c4.4-23.4,23.3-42.2,46.6-46.6C969,430.4,1005,466.4,997,508.2z
		 M1025.8,503.3c0.2-2.2,0.3-4.4,0.3-6.7c0-48.3-39.1-87.4-87.4-87.4s-87.4,39.1-87.4,87.4c0,3.9,0.3,7.7,0.8,11.5
		c-0.3-1.6-0.7-3.2-0.9-4.8h-508c0.2-2.2,0.3-4.4,0.3-6.7c0-48.3-39.1-87.4-87.4-87.4s-87.4,39.1-87.4,87.4c0,2.3,0.2,4.5,0.3,6.7
		H93.6c-19.5-9.5-30.2-24-33.5-29v-50.2c12.8-4.7,16.9-17.4,17.2-24.9c0-0.3-0.1-8.1-0.3-20.5c17.2-2.3,20.4-11.3,20.4-11.3V247.2
		H74.1c-0.1-3.4-0.2-6.8-0.3-10.1c-2-57.5,24.5-93,24.7-93.4l0.3-0.4c0.7-1,1.7-1.2,2.2-1.2c5,0,504.3-1.4,560.2,0
		c50.4,1.3,63.1,9,63.1,9c1.6,1.2,328.7-5.1,332.8-4.2c0.7,13.3,2.8,125.2,3.5,198.4c0,2.2,41.4,3,82.8,3.4
		c6.7,0.1,13.6,1.5,20.2,3.8v30.1c0,0,11.4,21.1,58,29.4c1.6,4.9,2.8,9.9,3.3,14.8c0,0,0,0,0,0.1c0,1.9,0.2,3.8,0.4,5.7
		c0.1,11.3,0.1,24.4,0.1,36.4h-7.9c-3.6-5.8-11.4-9.9-17-9.9c-7.5,0-13.6,7.2-13.6,16.1c0,8.9,6.1,16.1,13.6,16.1
		c5.7,0,13.7-4.1,17.2-9.9h7.7c0,12,0,20.9,0,21.9L1025.8,503.3z"/>
	<polygon class="st0" points="370.6,433.5 370.6,466.5 819.2,466.5 378.9,433.5 	"/>
	<path class="st0" d="M550.8,311.9l-24.9-127c-8.8,0.1-17.5,0.1-26.3,0.2c-29.2,0.1-60.5,0.2-91.7,0.3l25.4,126.5H550.8z"/>
	<path class="st0" d="M160.5,186.1c0,0-30.6-5.1-30.1,11.8c0.6,20.4,0,80.6,0,80.6l51.6,33.4h83l-24.7-126
		C192.5,186,160.5,186.1,160.5,186.1z"/>
	<path class="st0" d="M384.5,185.5c-43,0.1-85,0.2-120.9,0.3L289,311.9h24.1h96.2L384.5,185.5z"/>
	<path class="st0" d="M796.9,311.9c0,0,16.1-2.2,16.1-12.9s0-10.7,0-10.7v-81.7c0,0,5.4-22.9-31.2-22.2c-9.2,0.2-46.7,0.1-97.7,0.1
		l25.7,127.6h87.1V311.9z"/>
	<path class="st0" d="M665.7,311.9h20l-25-127.5h0.7c-2.6,0-5.1,0-7.8,0c-1,0-1.9-0.1-3-0.1s-2.7,0-4.6,0.1
		c-30.2,0-63.2,0.1-96.8,0.3l25.6,127.2H665.7z"/>
</g>
</svg>
