<?xml version="1.0" encoding="utf-8"?>
<!-- Generator: Adobe Illustrator 19.2.1, SVG Export Plug-In . SVG Version: 6.00 Build 0)  -->
<svg version="1.1" id="Capa_1" xmlns="http://www.w3.org/2000/svg" xmlns:xlink="http://www.w3.org/1999/xlink" x="0px" y="0px"
	 viewBox="0 0 1266 1266" style="enable-background:new 0 0 1266 1266;" xml:space="preserve">
<style type="text/css">
	.st0{fill:#333333;}
</style>
<g>
	<g>
		<g>
			<g>
				<path class="st0" d="M913.4,633.2c0,0-0.7,0-0.7,0c0,0,0,0-0.1,0c-0.1,0,0,0-0.1,0c0,0,0,0,0,0c0,0-0.1,0-0.1,0
					c-1.9,0-8.8,0.3-16.2,6.4c-1.3,1-2.4,2.1-3.5,3.4c-0.1,0.1-0.1,0.1-0.2,0.2l0.1,0c-0.7,0.9-1.4,1.9-2,3
					c-2.5,4.9-3.1,11.7,0.4,20.9l4.4,15l-0.3,0.2c51.8,10.9,67.3,0,67.3,0V657C935.3,637.9,920.9,633.5,913.4,633.2z"/>
				<polygon class="st0" points="986.9,687.1 986.9,687.1 986.9,687.1 				"/>
			</g>
			<polygon class="st0" points="731.4,698.3 663.6,698.3 671.8,675.9 739.5,675.9 			"/>
			<polygon class="st0" points="404.6,787 404.6,826.6 809.9,826.6 			"/>
			<g>
				<path class="st0" d="M264.9,719.7c-63.3,0-114.7,51.3-114.7,114.7c0,63.3,51.3,114.7,114.7,114.7s114.7-51.3,114.7-114.7
					C379.5,771,328.2,719.7,264.9,719.7z M264.9,912.2c-43,0-77.9-34.9-77.9-77.9c0-43,34.9-77.9,77.9-77.9s77.9,34.9,77.9,77.9
					C342.7,877.3,307.9,912.2,264.9,912.2z"/>
				<circle class="st0" cx="264.9" cy="834.3" r="23.8"/>
			</g>
			<g>
				<path class="st0" d="M983.6,719.7c-63.3,0-114.7,51.3-114.7,114.7c0,63.3,51.3,114.7,114.7,114.7s114.7-51.3,114.7-114.7
					C1098.2,771,1046.9,719.7,983.6,719.7z M983.6,912.2c-43,0-77.9-34.9-77.9-77.9c0-43,34.9-77.9,77.9-77.9
					c43,0,77.9,34.9,77.9,77.9C1061.4,877.3,1026.6,912.2,983.6,912.2z"/>
				<circle class="st0" cx="983.6" cy="834.3" r="23.8"/>
			</g>
			<g>
				<path class="st0" d="M375.9,846.9c-1.2,7.7-3,15.1-5.4,22.1h514.9c-2.4-7-4.2-14.4-5.4-22.1H375.9z"/>
				<path class="st0" d="M1089.6,844.8c-0.3,7.7-0.8,15.1-1.5,22.1h143.5c-0.7-7-1.2-14.4-1.5-22.1H1089.6z"/>
				<path class="st0" d="M1230.2,710.1c-0.5-1.5,6.8-62.7-62.9-68c-87.6-6.7-160.3-4.7-161-5.7c-2.1-5-89.6-68.3-171.6-130.3
					l-224.4,2.3v102.4l-308.8-2.1l0.2,22.1L634,631V526l195.9,1.7c79.9,59.2,153.4,120.6,160.6,128.8c6,0.6,127.4-2.6,187,7.8
					c23.1,4,23.6,24.4,24,24.7l-85.9-6.3c25.8,27.7,32,39.8,32,39.8l56.4,4.5l3,138.4l24.4,0.4L1230.2,710.1z"/>
				<g>
					<path class="st0" d="M40.3,607.2l0.5,107.5c-1.4,0.9-4.1,2-9,2.2L21,717.2v96.2l51.9,55h85.4c-2.8-7-5-14.4-6.4-22.1H82.4
						l-39.3-41.7v-67.1c14-3.7,18.4-13.2,18.9-14.5l0.9-2.1l-0.1-11.2c105.5-12.7,85.6-71.7,85.6-71.7H62.5l0-8.6l246.3,1.7V609
						L40.3,607.2z"/>
				</g>
			</g>
		</g>
	</g>
	<path class="st0" d="M631.2,304.6H40.3v302.6l506.7,3.1L634,631V508.2L631.2,304.6z M546.9,610.3l-484.6-3l-0.7-279.6h544.9
		l3.7,180.6l-63.4-0.1L546.9,610.3z"/>
	<g>
		<path class="st0" d="M917.8,621.4L819.3,545c0,0-123.9-0.6-153.3-1.4l-2.3,111.2l210.3,3.1c0,0-4-13.2,5.8-22.2
			C888.6,627.6,904.9,622.3,917.8,621.4z"/>
	</g>
	<path class="st0" d="M87.5,327.7V501c0,0-0.6,15.9-3.6,20c-1.9,2.7-8.4,7.1-13.9,10.7c-4.6,2.9-8.5,5.2-8.5,5.2V327.7H87.5z"/>
	<path class="st0" d="M607.3,353.7H434c0,0-15.9-0.6-20-3.6c-2.7-1.9-7.1-8.4-10.7-13.9c-2.9-4.6-5.2-8.5-5.2-8.5h209.2V353.7z"/>
	<path class="st0" d="M548.1,584.4H374.8c0,0-15.9,0.6-20,3.6c-2.7,1.9-7.1,8.4-10.7,13.9c-2.9,4.6-5.2,8.5-5.2,8.5h209.2V584.4z"/>
	<rect x="105" y="376.7" class="st0" width="484.7" height="39.6"/>
	<rect x="108.7" y="448.5" class="st0" width="481.1" height="39.6"/>
	<rect x="108.7" y="519.2" class="st0" width="419.1" height="39.6"/>
	<path class="st0" d="M1197.9,800.5c-3.6-7.9-13.6-13.4-19.1-13.4c-6.7,0-19,8.8-19,19.7s12.4,19.7,19,19.7
		c5.4,0,15.6-6.3,19.1-14.5h12.4v-11.5H1197.9z"/>
</g>
</svg>
