<?xml version="1.0" encoding="utf-8"?>
<!-- Generator: Adobe Illustrator 19.2.1, SVG Export Plug-In . SVG Version: 6.00 Build 0)  -->
<svg version="1.1" id="Capa_1" xmlns="http://www.w3.org/2000/svg" xmlns:xlink="http://www.w3.org/1999/xlink" x="0px" y="0px"
	 viewBox="0 0 1267 736.7" style="enable-background:new 0 0 1267 736.7;" xml:space="preserve">
<style type="text/css">
	.st0{fill:#333333;}
</style>
<g>
	<g>
		<g>
			<path class="st0" d="M810.6,269.8h-0.7c0,0,0,0-0.1,0s0,0-0.1,0l0,0c0,0,0,0-0.1,0c-1.7,0-8.1,0.2-14.9,5.9
				c-1.2,0.9-2.2,1.9-3.2,3.1c-0.1,0.1-0.1,0.1-0.2,0.2h0.1c-0.7,0.8-1.3,1.7-1.8,2.7c-2.3,4.5-2.9,10.8,0.3,19.3l4.1,13.8l-0.2,0.2
				c47.8,10.1,62.1,0,62.1,0v-23.2C830.7,274.1,817.5,270,810.6,269.8z"/>
			<path class="st0" d="M815.3,329L815.3,329L815.3,329z"/>
		</g>
		<polygon class="st0" points="667,336.3 604.6,336.3 612.1,315.7 674.5,315.7 		"/>
		<polygon class="st0" points="504.4,420.1 504.4,456.6 878,456.6 		"/>
		<g>
			<path class="st0" d="M272.6,358c-58.4,0-105.7,47.3-105.7,105.7s47.3,105.7,105.7,105.7s105.7-47.3,105.7-105.7
				C378.3,405.4,331,358,272.6,358z M272.6,535.5c-39.6,0-71.8-32.1-71.8-71.8c0-39.6,32.1-71.8,71.8-71.8s71.8,32.1,71.8,71.8
				C344.4,503.4,312.3,535.5,272.6,535.5z"/>
			<circle class="st0" cx="272.6" cy="463.7" r="22"/>
		</g>
		<g>
			<path class="st0" d="M1025.8,358c-58.4,0-105.7,47.3-105.7,105.7s47.3,105.7,105.7,105.7s105.7-47.3,105.7-105.7
				C1131.5,405.4,1084.2,358,1025.8,358z M1025.8,535.5c-39.6,0-71.8-32.1-71.8-71.8c0-39.6,32.1-71.8,71.8-71.8
				c39.7,0,71.8,32.1,71.8,71.8C1097.6,503.4,1065.4,535.5,1025.8,535.5z"/>
			<circle class="st0" cx="1025.8" cy="463.7" r="22"/>
		</g>
		<g>
			<path class="st0" d="M376.5,476.2c-1.3,7.1-3.3,13.9-5.9,20.4h558c-2.6-6.5-4.6-13.3-5.9-20.4H376.5z"/>
			<path class="st0" d="M1215.4,372.2c-0.5-1.4-12.3-33.8-65.4-56.9c-60.3-26.3-144.3-35.6-257-28.5c-4.9-2.2-9.8-5.3-10.9-6.9
				C876.7,271,775.8,191.7,675,162l-185-0.4l-47.1,96.8l-377.1-2.6l0.5,99.1c-1.3,0.8-3.8,1.9-8.3,2l-9.9,0.3v88.7l47.8,50.7h78.8
				c-2.6-6.5-4.6-13.3-5.9-20.4h-64.1l-36.2-38.4v-61.9c12.9-3.4,17-12.2,17.5-13.3l0.8-1.9v-10.3c97.3-11.7,78.9-66.1,78.9-66.1
				H86.3v-7.9l369.3,2.5l47.1-96.8h167.9c93.8,28.1,187.4,100.9,194,108.4c5.2,8.6,18.7,14.6,22.8,16.2l2.1,0.9l2.3-0.1
				c110.6-7.2,192.4,1.5,250,26.6c12.7,5.6,22.6,11.6,30.2,17.4h-55.5c23.8,25.5,35.3,33.7,35.3,33.7h43.6v48h-10.8
				c-3.1-7.3-11.9-12.3-16.6-12.3c-5.8,0-16.6,8.1-16.6,18.2s10.8,18.2,16.6,18.2c4.7,0,13.5-5.8,16.6-13.4h10.8v32.5h-65.1
				c-1.3,7.1-3.3,13.9-5.9,20.4h91.3v-123L1215.4,372.2z"/>
		</g>
	</g>
	<g>
		<path class="st0" d="M512.1,205.3l-39.5,93H574l-17.5-97.2C539.1,201.6,523.4,202.8,512.1,205.3z"/>
		<path class="st0" d="M791.9,263.9l-109.5-58.6c0,0-49.7-4.1-98.1-4.5l17.6,97.5h176C777.8,298.3,775.3,271.5,791.9,263.9z"/>
	</g>
</g>
</svg>
