<?xml version="1.0" encoding="utf-8"?>
<!-- Generator: Adobe Illustrator 19.2.1, SVG Export Plug-In . SVG Version: 6.00 Build 0)  -->
<svg version="1.1" id="Capa_1" xmlns="http://www.w3.org/2000/svg" xmlns:xlink="http://www.w3.org/1999/xlink" x="0px" y="0px"
	 viewBox="0 0 1266 735.7" style="enable-background:new 0 0 1266 735.7;" xml:space="preserve">
<style type="text/css">
	.st0{fill:#333333;}
</style>
<g>
	<g>
		<path class="st0" d="M820.3,277.5h-0.7c0,0,0,0-0.1,0s0,0-0.1,0l0,0c0,0,0,0-0.1,0c-1.8,0-8.4,0.2-15.5,6.1
			c-1.2,0.9-2.3,2-3.3,3.2c-0.1,0.1-0.1,0.1-0.2,0.2h0.1c-0.7,0.9-1.4,1.8-1.9,2.8c-2.4,4.7-3,11.2,0.4,20l4.2,14.3l-0.2,0.2
			c49.6,10.4,64.4,0,64.4,0v-24.1C841.2,282,827.5,277.8,820.3,277.5z"/>
		<path class="st0" d="M825.2,338.9L825.2,338.9L825.2,338.9z"/>
	</g>
	<polygon class="st0" points="588.5,346.6 523.7,346.6 531.5,325.2 596.3,325.2 	"/>
	<path class="st0" d="M539.2,210.6v96.5h247.1c0,0-2.6-27.8,14.5-35.7l-113.7-60.8C687.2,210.6,588.1,200,539.2,210.6z"/>
	<polygon class="st0" points="502.6,433.5 502.6,471.4 890.3,471.4 	"/>
	<g>
		<path class="st0" d="M262.1,369.1c-60.6,0-109.7,49.1-109.7,109.7s49.1,109.7,109.7,109.7s109.7-49.1,109.7-109.7
			C371.8,418.2,322.7,369.1,262.1,369.1z M262.1,553.3c-41.1,0-74.5-33.3-74.5-74.5c0-41.1,33.3-74.5,74.5-74.5s74.5,33.3,74.5,74.5
			C336.6,519.9,303.2,553.3,262.1,553.3z"/>
		<circle class="st0" cx="262.1" cy="478.8" r="22.8"/>
	</g>
	<g>
		<path class="st0" d="M1043.6,369.1c-60.6,0-109.7,49.1-109.7,109.7s49.1,109.7,109.7,109.7c60.6,0,109.7-49.1,109.7-109.7
			C1153.3,418.2,1104.2,369.1,1043.6,369.1z M1043.6,553.3c-41.1,0-74.5-33.3-74.5-74.5c0-41.1,33.3-74.5,74.5-74.5
			c41.1,0,74.5,33.3,74.5,74.5C1118.1,519.9,1084.7,553.3,1043.6,553.3z"/>
		<circle class="st0" cx="1043.6" cy="478.8" r="22.8"/>
	</g>
	<g>
		<path class="st0" d="M369.9,491.7c-1.3,7.3-3.4,14.4-6.1,21.1h579c-2.7-6.7-4.8-13.8-6.1-21.1H369.9z"/>
		<path class="st0" d="M1240.4,383.8c-0.5-1.4-12.7-35-67.9-59.1c-62.5-27.3-149.8-36.9-266.7-29.5c-5.1-2.3-10.2-5.5-11.3-7.2
			c-5.6-9.3-110.3-91.5-214.9-122.3l-192-0.4l-48.9,100.4L47.4,263L48,365.8c-1.3,0.9-4,2-8.7,2.1L29,368.2v92l49.6,52.6h81.7
			c-2.7-6.7-4.8-13.8-6.1-21.1H87.8l-37.6-39.9v-64.2c13.4-3.6,17.6-12.6,18.1-13.8l0.8-2v-10.7c101-12.1,81.9-68.6,81.9-68.6H68.8
			v-8.2l383.2,2.6l48.9-100.5h174.2c97.3,29.2,194.4,104.6,201.3,112.5c5.4,9,19.4,15.1,23.6,16.8l2.2,0.9l2.4-0.2
			c114.8-7.5,199.6,1.6,259.4,27.7c13.2,5.8,23.4,12,31.4,18.1h-57.5c24.7,26.5,36.7,35,36.7,35h45.3V447h-11.2
			c-3.3-7.5-12.3-12.8-17.2-12.8c-6,0-17.2,8.4-17.2,18.8s11.2,18.8,17.2,18.8c4.9,0,14-6,17.3-13.9h11.2v33.7h-67.5
			c-1.3,7.3-3.4,14.4-6.1,21.1h94.8V385.5L1240.4,383.8z"/>
	</g>
</g>
</svg>
