<?xml version="1.0" encoding="utf-8"?>
<!-- Generator: Adobe Illustrator 19.2.1, SVG Export Plug-In . SVG Version: 6.00 Build 0)  -->
<svg version="1.1" id="Capa_1" xmlns="http://www.w3.org/2000/svg" xmlns:xlink="http://www.w3.org/1999/xlink" x="0px" y="0px"
	 viewBox="0 0 1267 736.7" style="enable-background:new 0 0 1267 736.7;" xml:space="preserve">
<style type="text/css">
	.st0{fill:#333333;}
</style>
<g>
	<g>
		<g>
			<g>
				<path class="st0" d="M913.7,384.1H913c0,0,0,0-0.1,0s0,0-0.1,0l0,0c0,0,0,0-0.1,0c-1.8,0-8.4,0.2-15.4,6.1
					c-1.2,0.9-2.3,2-3.3,3.2c-0.1,0.1-0.1,0.1-0.2,0.2h0.1c-0.7,0.9-1.4,1.8-1.9,2.8c-2.4,4.7-3,11.1,0.4,19.9l4.2,14.3l-0.2,0.2
					c49.4,10.4,64.1,0,64.1,0v-24C934.6,388.6,920.9,384.4,913.7,384.1z"/>
				<path class="st0" d="M977.6,437.5L977.6,437.5L977.6,437.5z"/>
			</g>
			<polygon class="st0" points="787.5,446.1 723,446.1 730.7,424.8 795.3,424.8 			"/>
			<polygon class="st0" points="422.8,532.8 422.8,570.5 809,570.5 			"/>
			<g>
				<path class="st0" d="M289.6,468.6c-60.3,0-109.3,48.9-109.3,109.3c0,60.3,48.9,109.3,109.3,109.3s109.3-48.9,109.3-109.3
					C398.9,517.5,350,468.6,289.6,468.6z M289.6,652.1c-41,0-74.2-33.2-74.2-74.2s33.2-74.2,74.2-74.2s74.2,33.2,74.2,74.2
					C363.8,618.8,330.6,652.1,289.6,652.1z"/>
				<circle class="st0" cx="289.6" cy="577.9" r="22.7"/>
			</g>
			<g>
				<path class="st0" d="M974.5,468.6c-60.3,0-109.3,48.9-109.3,109.3c0,60.3,48.9,109.3,109.3,109.3c60.4,0,109.3-48.9,109.3-109.3
					C1083.7,517.5,1034.8,468.6,974.5,468.6z M974.5,652.1c-41,0-74.2-33.2-74.2-74.2s33.2-74.2,74.2-74.2s74.2,33.2,74.2,74.2
					C1048.7,618.8,1015.4,652.1,974.5,652.1z"/>
				<circle class="st0" cx="974.5" cy="577.9" r="22.7"/>
			</g>
			<g>
				<path class="st0" d="M395.5,589.8c-1.1,7.3-2.9,14.3-5.2,21.1H881c-2.3-6.7-4-13.8-5.2-21.1H395.5z"/>
				<path class="st0" d="M1075.5,587.9c-0.3,7.3-0.8,14.3-1.4,21.1h136.7c-0.6-6.7-1.1-13.8-1.4-21.1H1075.5z"/>
				<path class="st0" d="M1209.4,459.5c-0.5-1.4,6.5-59.8-59.9-64.8c-83.4-6.4-152.8-4.5-153.4-5.4c-2-4.8-85.4-65.1-163.5-124.2
					L560.4,268l-2,96.5l-233.9-1.6l0.2,21.1l252.8,1.7l2.6-99.9h248c76.1,56.4,146.2,115,153,122.8c5.7,0.5,121.4-2.5,178.2,7.4
					c22,3.9,22.5,23.2,22.8,23.5l-81.8-6c24.6,26.4,30.5,38,30.5,38l53.8,4.3l2.9,131.8l23.3,0.4L1209.4,459.5z"/>
				<g>
					<path class="st0" d="M75.6,361.4l0.5,102.4c-1.3,0.9-3.9,1.9-8.6,2.1l-10.2,0.3v91.7l49.4,52.4h81.4
						c-2.7-6.7-4.7-13.8-6.1-21.1h-66.2l-37.5-39.7v-63.9c13.3-3.6,17.5-12.6,18.1-13.8l0.8-2v-10.7c100.6-12.1,81.6-68.3,81.6-68.3
						h-82v-8.2l234.7,1.6v-21.1L75.6,361.4z"/>
				</g>
			</g>
		</g>
	</g>
	<path class="st0" d="M638.7,73.1H75.6v288.3l482.8,3l18.5-80.6l64.5-16.7L638.7,73.1z M558.4,364.4l-461.8-2.8L96,95.1h519.3
		l3.5,172.1L561,277.4L558.4,364.4z"/>
	<g>
		<path class="st0" d="M607.8,304.6l-2.6,103.1H707l-19.6-107C660.4,300.2,623.8,299.6,607.8,304.6z"/>
		<path class="st0" d="M911.8,375l-93.9-72.8c0,0-81-0.2-109.1-1l21,106.5l140.1,2.1c0,0-3.8-12.5,5.5-21.2
			C884,380.8,899.5,375.8,911.8,375z"/>
	</g>
	<path class="st0" d="M120.7,95.1v165.1c0,0-0.6,15.2-3.4,19.1c-1.8,2.5-8,6.8-13.2,10.2c-4.4,2.8-8.1,5-8.1,5V95.1H120.7z"/>
	<path class="st0" d="M615.9,119.8H450.8c0,0-15.2-0.6-19.1-3.4c-2.5-1.8-6.8-8-10.2-13.2c-2.8-4.4-5-8.1-5-8.1h199.4L615.9,119.8
		L615.9,119.8z"/>
	<path class="st0" d="M559.5,339.7H394.4c0,0-15.2,0.6-19.1,3.4c-2.5,1.8-6.8,8-10.2,13.2c-2.8,4.4-5,8.1-5,8.1h199.4V339.7z"/>
	<rect x="137.3" y="141.8" class="st0" width="461.9" height="37.7"/>
	<rect x="140.8" y="210.2" class="st0" width="458.4" height="37.7"/>
	<rect x="140.9" y="277.5" class="st0" width="399.4" height="37.7"/>
	<path class="st0" d="M1178.7,545.6c-3.4-7.5-13-12.7-18.2-12.7c-6.4,0-18.1,8.4-18.1,18.8s11.8,18.8,18.1,18.8
		c5.2,0,14.8-6,18.2-13.8h11.8v-11L1178.7,545.6L1178.7,545.6z"/>
</g>
</svg>
