<?xml version="1.0" encoding="utf-8"?>
<!-- Generator: Adobe Illustrator 19.2.1, SVG Export Plug-In . SVG Version: 6.00 Build 0)  -->
<svg version="1.1" id="Capa_1" xmlns="http://www.w3.org/2000/svg" xmlns:xlink="http://www.w3.org/1999/xlink" x="0px" y="0px"
	 viewBox="0 0 1266 735.7" style="enable-background:new 0 0 1266 735.7;" xml:space="preserve">
<style type="text/css">
	.st0{fill:#333333;}
</style>
<g>
	<g>
		<path class="st0" d="M822,296.9c0,0-0.7,0-0.7,0c0,0,0,0-0.1,0c-0.1,0,0,0-0.1,0c0,0,0,0,0,0c0,0,0,0-0.1,0
			c-1.8,0-8.6,0.3-15.8,6.3c-1.2,0.9-2.4,2-3.4,3.3c-0.1,0.1-0.1,0.1-0.2,0.2l0.1,0c-0.7,0.9-1.4,1.8-1.9,2.9
			c-2.5,4.8-3,11.4,0.4,20.4l4.3,14.6l-0.3,0.2c50.6,10.6,65.7,0,65.7,0v-24.6C843.3,301.4,829.3,297.1,822,296.9z"/>
		<polygon class="st0" points="826.9,359.5 827,359.5 826.9,359.5 		"/>
	</g>
	<polygon class="st0" points="585.6,367.3 519.5,367.3 527.5,345.4 593.5,345.4 	"/>
	<path class="st0" d="M535.3,228.6V327h252.1c0,0-2.7-28.3,14.8-36.4l-115.9-62C686.2,228.6,585.2,217.8,535.3,228.6z"/>
	<polygon class="st0" points="498,456 498,494.6 893.4,494.6 	"/>
	<g>
		<path class="st0" d="M252.7,390.3c-61.8,0-111.9,50.1-111.9,111.9c0,61.8,50.1,111.9,111.9,111.9s111.9-50.1,111.9-111.9
			C364.5,440.3,314.5,390.3,252.7,390.3z M252.7,578.1c-42,0-76-34-76-76c0-42,34-76,76-76s76,34,76,76
			C328.6,544.1,294.6,578.1,252.7,578.1z"/>
		<circle class="st0" cx="252.7" cy="502.1" r="23.2"/>
	</g>
	<g>
		<path class="st0" d="M1049.7,390.3c-61.8,0-111.9,50.1-111.9,111.9c0,61.8,50.1,111.9,111.9,111.9s111.9-50.1,111.9-111.9
			C1161.6,440.3,1111.5,390.3,1049.7,390.3z M1049.7,578.1c-42,0-76-34-76-76c0-42,34-76,76-76c42,0,76,34,76,76
			C1125.7,544.1,1091.7,578.1,1049.7,578.1z"/>
		<circle class="st0" cx="1049.7" cy="502.1" r="23.2"/>
	</g>
	<g>
		<path class="st0" d="M362.6,515.3c-1.4,7.5-3.5,14.7-6.2,21.6h590.5c-2.8-6.9-4.9-14.1-6.2-21.6H362.6z"/>
		<path class="st0" d="M1250.4,405.2c-0.5-1.5-13-35.7-69.2-60.3c-63.8-27.8-152.7-37.7-272-30.1c-5.2-2.4-10.4-5.7-11.5-7.3
			c-5.7-9.4-112.5-93.3-219.2-124.8l-195.8-0.4l-49.9,102.4l-399-2.7l0.5,104.9c-1.4,0.9-4,2-8.8,2.1L15,389.3v93.8l50.6,53.7H149
			c-2.8-6.9-4.9-14.1-6.2-21.6H74.9l-38.4-40.7v-65.5c13.6-3.6,17.9-12.9,18.5-14.1l0.9-2L55.8,382c103-12.4,83.5-69.9,83.5-69.9
			H55.5l0-8.4l390.8,2.7l49.9-102.5h177.7c99.3,29.7,198.3,106.7,205.3,114.7c5.5,9.1,19.8,15.4,24.1,17.2l2.3,0.9l2.4-0.2
			c117.1-7.6,203.6,1.6,264.6,28.2c13.5,5.9,23.9,12.3,32,18.5h-58.7c25.2,27,37.4,35.7,37.4,35.7h46.2v50.8H1218
			c-3.3-7.7-12.6-13-17.5-13c-6.1,0-17.5,8.6-17.5,19.2s11.4,19.2,17.5,19.2c5,0,14.3-6.1,17.6-14.2h11.4v34.4h-68.9
			c-1.4,7.5-3.5,14.7-6.2,21.6h96.7V407L1250.4,405.2z"/>
	</g>
</g>
</svg>
