<?xml version="1.0" encoding="utf-8"?>
<!-- Generator: Adobe Illustrator 19.2.1, SVG Export Plug-In . SVG Version: 6.00 Build 0)  -->
<svg version="1.1" id="Capa_1" xmlns="http://www.w3.org/2000/svg" xmlns:xlink="http://www.w3.org/1999/xlink" x="0px" y="0px"
	 viewBox="0 0 1266 735.7" style="enable-background:new 0 0 1266 735.7;" xml:space="preserve">
<style type="text/css">
	.st0{fill:#333333;}
</style>
<g>
	<g>
		<g>
			<path class="st0" d="M806.4,279.2c0,0-0.7,0-0.6,0c0,0,0,0-0.1,0c-0.1,0,0,0-0.1,0c0,0,0,0,0,0c0,0,0,0-0.1,0
				c-1.7,0-8,0.2-14.7,5.9c-1.1,0.9-2.2,1.9-3.2,3.1c-0.1,0.1-0.1,0.1-0.2,0.2l0.1,0c-0.7,0.8-1.3,1.7-1.8,2.7
				c-2.3,4.5-2.8,10.6,0.3,19l4,13.7l-0.2,0.2c47.2,9.9,61.3,0,61.3,0v-22.9C826.3,283.4,813.3,279.4,806.4,279.2z"/>
			<polygon class="st0" points="811.1,337.7 811.1,337.7 811.1,337.7 			"/>
		</g>
		<polygon class="st0" points="504,347.9 442.4,347.9 449.8,327.5 511.5,327.5 		"/>
		<polygon class="st0" points="681.5,349 619.8,349 627.2,328.6 688.9,328.6 		"/>
		<polygon class="st0" points="465.4,428.8 465.4,464.8 834.5,464.8 		"/>
		<g>
			<path class="st0" d="M236.4,367.4c-57.7,0-104.4,46.7-104.4,104.4c0,57.7,46.8,104.4,104.4,104.4s104.4-46.7,104.4-104.4
				C340.8,414.2,294.1,367.4,236.4,367.4z M236.4,542.8c-39.2,0-70.9-31.7-70.9-70.9c0-39.2,31.7-70.9,70.9-70.9
				s70.9,31.7,70.9,70.9C307.3,511,275.6,542.8,236.4,542.8z"/>
			<circle class="st0" cx="236.4" cy="471.9" r="21.7"/>
		</g>
		<g>
			<path class="st0" d="M1045.8,360.4c-57.7,0-104.4,46.7-104.4,104.4c0,57.7,46.8,104.4,104.4,104.4c57.7,0,104.4-46.7,104.4-104.4
				C1150.2,407.2,1103.4,360.4,1045.8,360.4z M1045.8,535.7c-39.2,0-70.9-31.7-70.9-70.9c0-39.2,31.7-70.9,70.9-70.9
				c39.2,0,70.9,31.7,70.9,70.9C1116.7,504,1084.9,535.7,1045.8,535.7z"/>
			<circle class="st0" cx="1045.8" cy="464.8" r="21.7"/>
		</g>
		<g>
			<path class="st0" d="M339.8,484.1c-1.4,7-3.6,13.7-6.5,20.1H954c-2.9-6.4-5.1-13.2-6.5-20.1H339.8z"/>
			<path class="st0" d="M1237,381.4c-0.5-1.4-12.8-33.4-68.5-56.3c-63.1-25.9-151.1-35.1-269.1-28.1c-5.1-2.2-10.3-5.3-11.4-6.8
				c-5.6-8.8-111.3-87.1-216.9-116.5l-233.8-0.4L413,268.8l-379.9-2.4l0.5,97.9c-1.4,0.8-4,1.9-8.7,2l-10.4,0.3v87.6l50.1,50.1h82.5
				c-2.7-6.4-4.8-13.2-6.2-20.1H73.8l-37.9-38V385c13.5-3.4,17.8-12,18.3-13.2L55,370l0-10.2c101.9-11.6,82.6-65.3,82.6-65.3h-83
				l0-7.9l379.4,0.5l24.3-94l208.2,0.3c98.2,27.8,196.2,99.6,203.1,107.1c5.4,8.5,19.6,14.4,23.8,16l2.3,0.9l2.4-0.1
				c115.8-7.1,201.4,1.5,261.8,26.3c13.3,5.5,23.7,11.5,31.7,17.2h-58.1c24.9,25.2,37,33.3,37,33.3h45.7v47.4h-11.3
				c-3.3-7.2-12.4-12.2-17.4-12.2c-6.1,0-17.3,8-17.3,17.9c0,9.9,11.3,17.9,17.3,17.9c5,0,14.2-5.7,17.4-13.2h11.3v32.1h-68.1
				c-1.4,7-3.4,13.7-6.2,20.1h95.6V383L1237,381.4z"/>
		</g>
	</g>
	<g>
		<path class="st0" d="M472.3,211.4l-22.6,97h148.5l-18.4-102.3C540,205.7,495.8,206.6,472.3,211.4z"/>
		<path class="st0" d="M793.4,274.4l-131.7-65.9c0,0-23.4-1.2-54.4-1.9l18.4,101.8h153.1C778.7,308.4,776.1,282,793.4,274.4z"/>
	</g>
</g>
</svg>
