<?xml version="1.0" encoding="utf-8"?>
<!-- Generator: Adobe Illustrator 19.2.1, SVG Export Plug-In . SVG Version: 6.00 Build 0)  -->
<svg version="1.1" id="Capa_1" xmlns="http://www.w3.org/2000/svg" xmlns:xlink="http://www.w3.org/1999/xlink" x="0px" y="0px"
	 viewBox="0 0 1266 735.7" style="enable-background:new 0 0 1266 735.7;" xml:space="preserve">
<style type="text/css">
	.st0{fill:#333333;}
</style>
<g>
	<g>
		<g>
			<g>
				<path class="st0" d="M928.3,376.8c0,0-0.7,0-0.7,0c0,0,0,0-0.1,0c-0.1,0,0,0-0.1,0c0,0,0,0,0,0c0,0-0.1,0-0.1,0
					c-1.9,0-8.8,0.3-16.2,6.4c-1.3,1-2.4,2.1-3.5,3.3c-0.1,0.1-0.1,0.1-0.2,0.2l0.1,0c-0.7,0.9-1.4,1.9-2,3
					c-2.5,4.9-3.1,11.6,0.4,20.8l4.4,15l-0.3,0.2c51.7,10.9,67.1,0,67.1,0v-25.1C950.1,381.5,935.8,377.1,928.3,376.8z"/>
				<polygon class="st0" points="995.1,432.7 995.1,432.7 995.1,432.7 				"/>
			</g>
			<polygon class="st0" points="838.9,441.7 771.4,441.7 779.5,419.4 847,419.4 			"/>
			<polygon class="st0" points="660.9,442.7 593.4,442.7 601.5,420.4 669,420.4 			"/>
			<polygon class="st0" points="414.5,532.3 414.5,571.8 818.7,571.8 			"/>
			<g>
				<path class="st0" d="M275.1,465.2c-63.1,0-114.3,51.2-114.3,114.3c0,63.2,51.2,114.3,114.3,114.3s114.3-51.2,114.3-114.3
					C389.5,516.4,338.3,465.2,275.1,465.2z M275.1,657.2c-42.9,0-77.7-34.8-77.7-77.7c0-42.9,34.8-77.7,77.7-77.7
					s77.7,34.8,77.7,77.7C352.8,622.4,318,657.2,275.1,657.2z"/>
				<circle class="st0" cx="275.1" cy="579.5" r="23.8"/>
			</g>
			<g>
				<path class="st0" d="M991.9,465.2c-63.1,0-114.3,51.2-114.3,114.3c0,63.2,51.2,114.3,114.3,114.3s114.3-51.2,114.3-114.3
					C1106.2,516.4,1055,465.2,991.9,465.2z M991.9,657.2c-42.9,0-77.7-34.8-77.7-77.7c0-42.9,34.8-77.7,77.7-77.7
					s77.7,34.8,77.7,77.7C1069.5,622.4,1034.7,657.2,991.9,657.2z"/>
				<circle class="st0" cx="991.9" cy="579.5" r="23.8"/>
			</g>
			<g>
				<path class="st0" d="M385.9,592.1c-1.2,7.6-3,15-5.4,22H894c-2.4-7-4.2-14.4-5.4-22H385.9z"/>
				<path class="st0" d="M1097.6,590c-0.3,7.6-0.8,15-1.5,22h143.1c-0.7-7-1.2-14.4-1.5-22H1097.6z"/>
				<path class="st0" d="M1237.8,455.7c-0.5-1.5,6.8-62.6-62.7-67.9c-87.3-6.7-159.9-4.7-160.5-5.7c-2.1-5-89.3-68.1-171.1-130
					l-284.9,3l-2.1,100.9l-244.8-1.7l0.2,22l264.6,1.8l2.7-104.6h259.5c79.7,59,153,120.3,160.2,128.5c6,0.6,127.1-2.6,186.5,7.8
					c23,4,23.6,24.3,23.9,24.6l-85.6-6.3c25.7,27.6,31.9,39.7,31.9,39.7l56.3,4.5l3,138l24.4,0.4L1237.8,455.7z"/>
				<g>
					<path class="st0" d="M51.2,353l0.5,107.2c-1.4,0.9-4.1,2-9,2.2l-10.7,0.3v95.9l51.7,54.9h85.2c-2.8-7-5-14.4-6.4-22H93.2
						L54,549.9V483c13.9-3.7,18.3-13.2,18.9-14.4l0.9-2.1l-0.1-11.2c105.3-12.7,85.4-71.5,85.4-71.5H73.4l0-8.6l245.6,1.7v-22
						L51.2,353z"/>
				</g>
			</g>
		</g>
	</g>
	<path class="st0" d="M640.5,51.3H51.2V353l505.3,3.1l19.4-84.4l67.5-17.5L640.5,51.3z M556.4,356.2l-483.3-3L72.4,74.3h543.4
		l3.7,180.1l-60.5,10.6L556.4,356.2z"/>
	<g>
		<path class="st0" d="M597.5,293.5l-4.1,107.9H744l-19.9-112C681.2,289,622.9,288.3,597.5,293.5z"/>
		<path class="st0" d="M926.3,367.2l-110.4-78.1c0,0-38.5,1.6-62.1,0.8l19.6,111.5l117.7,2.2c0,0-3.2-13.1,4.7-22.1
			C902.9,373.3,916,368,926.3,367.2z"/>
	</g>
	<path class="st0" d="M98.3,74.3v172.8c0,0-0.6,15.9-3.6,20c-1.9,2.6-8.4,7.1-13.8,10.6c-4.6,2.9-8.5,5.2-8.5,5.2V74.3H98.3z"/>
	<path class="st0" d="M616.6,100.2H443.8c0,0-15.9-0.6-20-3.6c-2.6-1.9-7.1-8.4-10.6-13.8c-2.9-4.6-5.2-8.5-5.2-8.5h208.6V100.2z"/>
	<path class="st0" d="M557.6,330.3H384.8c0,0-15.9,0.6-20,3.6c-2.6,1.9-7.1,8.4-10.6,13.8c-2.9,4.6-5.2,8.5-5.2,8.5h208.6V330.3z"/>
	<rect x="115.8" y="123.1" class="st0" width="483.4" height="39.5"/>
	<rect x="119.4" y="194.8" class="st0" width="479.8" height="39.5"/>
	<rect x="119.4" y="265.2" class="st0" width="417.9" height="39.5"/>
	<path class="st0" d="M1205.6,545.8c-3.6-7.9-13.6-13.3-19-13.3c-6.7,0-19,8.8-19,19.6s12.3,19.6,19,19.6c5.4,0,15.5-6.3,19.1-14.5
		h12.3v-11.5H1205.6z"/>
</g>
</svg>
