<?xml version="1.0" encoding="utf-8"?>
<!-- Generator: Adobe Illustrator 19.2.1, SVG Export Plug-In . SVG Version: 6.00 Build 0)  -->
<svg version="1.1" id="Capa_1" xmlns="http://www.w3.org/2000/svg" xmlns:xlink="http://www.w3.org/1999/xlink" x="0px" y="0px"
	 viewBox="0 0 1266 1266" style="enable-background:new 0 0 1266 1266;" xml:space="preserve">
<style type="text/css">
	.st0{fill:#404040;}
</style>
<g>
	<path class="st0" d="M218.6,702.6c-26.8,0-48.5,21.7-48.5,48.5s21.7,48.5,48.5,48.5c26.8,0,48.5-21.7,48.5-48.5
		S245.4,702.6,218.6,702.6z M218.6,776.9c-14.2,0-25.8-11.6-25.8-25.8s11.6-25.8,25.8-25.8c14.2,0,25.8,11.6,25.8,25.8
		C244.4,765.3,232.9,776.9,218.6,776.9z"/>
	<path class="st0" d="M915.3,697.3c-26.8,0-48.5,21.7-48.5,48.5s21.7,48.5,48.5,48.5s48.5-21.7,48.5-48.5S942.1,697.3,915.3,697.3z
		 M915.3,771.6c-14.2,0-25.8-11.6-25.8-25.8s11.6-25.8,25.8-25.8s25.8,11.6,25.8,25.8S929.6,771.6,915.3,771.6z"/>
	<path class="st0" d="M1242,686.4v-8.5l-956.8-0.3l-0.5,9.3l77.6-0.5l-0.5,27.6l-61.7,0.5l-23.9-36.9l-3.7-223.5l-145.6,4.3
		l-10.8,3.9l-67,139.3v101.1h-6.4v62.6l4.6,6.4h87.2l10.6-16.5h0.1c-0.1-1.3-0.1-2.7-0.1-4.1c0-40.6,32.9-73.5,73.5-73.5
		c40.6,0,73.5,32.9,73.5,73.5c0,6.5-0.8,12.8-2.4,18.8l11.5-0.9v-14.9l33.3,0.7v13.5l478-0.4l3.6-12.8h26.2
		c-0.4-3.1-0.6-6.2-0.6-9.4c0-12.7,2.9-22.8,8.1-30.8h-68.6v-28.7h305.5v28.7H979.2c6,8,9.5,18.1,9.5,30.8c0,3.2-0.2,6.3-0.6,9.4
		h65.3l111.3-21.3v20.6l14.2,0.4v-43.6h-16.3l0.4-25.2L1242,686.4z M219.8,600.8h-25.7c-3.5,0-6.4-2.9-6.4-6.4s2.9-6.4,6.4-6.4h25.7
		c3.5,0,6.4,2.9,6.4,6.4S223.3,600.8,219.8,600.8z M228.9,548.7c-5.1,5.9-29,8-33,9.1c-21.2,6.1-49,20.3-65.3,27
		c-13.5,5.6-49.7,17.5-57.4,10.6c-3.4-3,32-77.7,48.9-114.8c1.2-2.7,7.6-5.3,10.6-5.4c25.5-0.7,92-2,92-2s10.4,0.1,10.1,2.7
		C233.3,490.5,230.1,547.3,228.9,548.7z M706.8,715H438.4v-28.7h268.4V715z"/>
</g>
</svg>
