<?xml version="1.0" encoding="utf-8"?>
<!-- Generator: Adobe Illustrator 19.2.1, SVG Export Plug-In . SVG Version: 6.00 Build 0)  -->
<svg version="1.1" id="Capa_1" xmlns="http://www.w3.org/2000/svg" xmlns:xlink="http://www.w3.org/1999/xlink" x="0px" y="0px"
	 viewBox="0 0 1266 735.7" style="enable-background:new 0 0 1266 735.7;" xml:space="preserve">
<style type="text/css">
	.st0{fill:#333333;}
</style>
<g>
	<path class="st0" d="M995.9,324.8C995.9,324.8,995.8,324.8,995.9,324.8c-0.1,0-0.1,0-0.2,0c0,0,0,0,0,0c0,0,0,0-0.1,0
		c-1.7,0-7.8,0.2-14.4,5.9c-1.1,0.9-2.2,1.9-3.1,3.1c-0.1,0.1-0.1,0.1-0.2,0.2l0.1,0c-0.7,0.8-1.3,1.7-1.8,2.7
		c-2.2,4.5-2.8,10.7,0.3,19.2l3.9,13.7l-0.2,0.2c46,10,59.7,0,59.7,0v-23.1c-24.2-17.5-36.9-21.6-43.6-21.8
		C996.5,324.8,995.8,324.8,995.9,324.8z"/>
	<polygon class="st0" points="1001,383.7 1001,383.7 1001,383.7 	"/>
	<polygon class="st0" points="562.7,394 622.8,394 630,373.4 569.9,373.4 	"/>
	<polygon class="st0" points="792.5,394 852.6,394 859.9,373.4 799.8,373.4 	"/>
	<path class="st0" d="M279.4,519.3c-15.4-3.8-29,10.1-25.2,26.1c1.7,7.5,7.7,13.6,14.9,15.4c15.4,3.8,29-10.1,25.2-26.1
		C292.5,527.3,286.6,521.1,279.4,519.3z"/>
	<path class="st0" d="M1058,519.3c-15.4-3.8-29,10.1-25.2,26.1c1.7,7.5,7.7,13.6,14.9,15.4c15.4,3.8,29-10.1,25.2-26.1
		C1071.2,527.3,1065.2,521.1,1058,519.3z"/>
	<path class="st0" d="M984.5,306.9l-93.2-91.2h-77.3v119.1L911,369h56.4C963.7,317,984.5,306.9,984.5,306.9z"/>
	<rect x="416.6" y="174.9" class="st0" width="15.9" height="325.5"/>
	<rect x="657.8" y="174.9" class="st0" width="15.9" height="325.5"/>
	<rect x="133.2" y="385.7" class="st0" width="242.8" height="16.5"/>
	<path class="st0" d="M1246.4,482.9c-0.2-0.2-15.4-17.9-15.4-37.1c0-21.3,0.7-36.6,0.8-38.8c0.5-4.7-0.5-18.4-21.5-36.5
		c-20.4-17.5-130.3-58.7-142.7-63.4l-1.5-0.4c-0.2,0-19.8-4.2-39.3-22.8c-22.2-21.2-199.2-161-206.5-166.8
		c-2.6-2.2-18.9-13.2-83.6-14.9c-64-1.7-633.8,0-639,0c-1.2-0.1-12.2-0.4-19.1,10.1c-3.1,4.3-34.6,49.5-32.1,122.8
		c2.4,71.7,4.1,189.4,4.1,190c0,1.1-0.7,10.6-10.7,11.5l-9,0.8v82l1.2,2.3c0.6,1.2,15.8,29.3,50.3,45.7l2,0.9h94
		c11.9,43.1,50.2,74.8,95.8,74.8s83.9-31.6,95.8-74.8h587c11.9,43.1,50.2,74.8,95.8,74.8s83.9-31.6,95.8-74.8h73.1l1.4-0.4
		c1.1-0.3,26.9-8.5,25.9-44.3l0-37.7L1246.4,482.9z M287.5,608.7c-47.7,9.3-88.7-33-79.7-82.3c5.1-27.5,26.5-49.7,53.2-54.9
		c47.7-9.3,88.7,33,79.7,82.3C335.6,581.3,314.1,603.5,287.5,608.7z M1066.1,608.7c-47.7,9.3-88.7-33-79.7-82.3
		c5.1-27.5,26.5-49.7,53.2-54.9c47.7-9.3,88.7,33,79.7,82.3C1114.2,581.3,1092.7,603.5,1066.1,608.7z M1218.6,548h-66.4
		c0.2-2.6,0.4-5.2,0.4-7.9c0-56.9-44.6-102.9-99.7-102.9c-55,0-99.7,46.1-99.7,102.9c0,4.6,0.4,9.1,1,13.6c-0.4-1.9-0.8-3.7-1.1-5.7
		H373.5c0.2-2.6,0.4-5.2,0.4-7.9c0-56.9-44.6-102.9-99.7-102.9s-99.7,46.1-99.7,102.9c0,2.7,0.2,5.3,0.4,7.9H88.7
		c-22.2-11.2-34.5-28.3-38.2-34.1v-59.1c14.6-5.6,19.3-20.6,19.6-29.3c0-0.3-0.1-9.5-0.4-24.1c19.6-2.7,23.3-13.3,23.3-13.3V246.2
		H66.5c-0.1-4.1-0.3-8-0.4-11.9c-2.3-67.7,27.9-109.6,28.2-110l0.4-0.5c0.8-1.2,1.9-1.4,2.5-1.4c5.7,0,575.3-1.7,639,0
		c57.5,1.5,71.9,10.6,72,10.6c1.8,1.4,183.8,145.2,205.3,165.7c21.6,20.7,43.4,26.6,48.1,27.7c23.5,8.8,53.7,20.6,79.9,31.7v35.5
		c0,0,13.5,26.1,70.1,35.3c-0.1,5-0.1,10.6-0.1,16.8c0,21.7,12.5,40.3,18,47.6l0,18h-9.8c-4.1-6.8-13-11.7-19.3-11.7
		c-8.6,0-15.5,8.5-15.5,19c0,10.5,6.9,19,15.5,19c6.5,0,15.7-4.8,19.6-11.7h9.4C1229,541.2,1221.4,546.6,1218.6,548z"/>
</g>
</svg>
