<?xml version="1.0" encoding="utf-8"?>
<!-- Generator: Adobe Illustrator 19.2.1, SVG Export Plug-In . SVG Version: 6.00 Build 0)  -->
<svg version="1.1" id="Capa_1" xmlns="http://www.w3.org/2000/svg" xmlns:xlink="http://www.w3.org/1999/xlink" x="0px" y="0px"
	 viewBox="0 0 1267 736.7" style="enable-background:new 0 0 1267 736.7;" xml:space="preserve">
<style type="text/css">
	.st0{fill:#333333;}
</style>
<g>
	<g>
		<path class="st0" d="M988.2,328.6C988.2,328.6,988.2,328.6,988.2,328.6c-0.1,0-0.1,0-0.2,0c0,0,0,0,0,0c0,0,0,0-0.1,0
			c-1.7,0-7.8,0.2-14.3,5.7c-1.1,0.9-2.1,1.8-3.1,3c-0.1,0.1-0.1,0.1-0.2,0.2l0.1,0c-0.6,0.8-1.3,1.7-1.8,2.6
			c-2.2,4.3-2.8,10.3,0.3,18.4l3.9,13.2l-0.2,0.2c45.7,9.6,59.4,0,59.4,0v-22.2c-24.1-16.9-36.7-20.8-43.4-21
			C988.9,328.6,988.2,328.6,988.2,328.6z"/>
		<polygon class="st0" points="993.4,385.3 993.4,385.3 993.4,385.3 		"/>
		<polygon class="st0" points="695.8,376.7 755.5,376.7 762.7,357 703,357 		"/>
		<polygon class="st0" points="786,395.2 845.8,395.2 853,375.5 793.2,375.5 		"/>
		<path class="st0" d="M275.7,515.9c-15.3-3.7-28.8,9.8-25.1,25.1c1.7,7.2,7.6,13.1,14.9,14.9c15.3,3.7,28.8-9.8,25.1-25.1
			C288.8,523.5,282.9,517.6,275.7,515.9z"/>
		<path class="st0" d="M1050,515.9c-15.3-3.7-28.8,9.8-25.1,25.1c1.7,7.2,7.6,13.1,14.9,14.9c15.3,3.7,28.8-9.8,25.1-25.1
			C1063.1,523.5,1057.2,517.6,1050,515.9z"/>
		<path class="st0" d="M976.9,311.4l-92.7-87.8h-76.8v114.7l96.3,32.9h56.1C956.2,321.2,976.9,311.4,976.9,311.4z"/>
		<rect x="163.6" y="371.1" class="st0" width="313.4" height="15.9"/>
		<path class="st0" d="M1237.4,480.8c-0.2-0.2-15.3-17.2-15.3-35.7c0-20.5,0.7-35.2,0.8-37.4c0.4-4.5-0.5-17.7-21.4-35.1
			c-20.3-16.9-129.6-56.6-142-61l-1.5-0.4c-0.2,0-19.7-4-39.1-22c-22-20.4-198.1-155-205.3-160.6c-2.6-2.1-18.8-12.7-83.1-14.4
			c-63.6-1.6-630.3,0-635.4,0c-1.2-0.1-12.1-0.3-19,9.7c-3.1,4.1-34.4,47.7-31.9,118.2c2.4,69,4,182.4,4.1,183c0,1-0.7,10.2-10.6,11
			l-8.9,0.8v78.9l1.2,2.2c0.6,1.1,15.8,28.2,50,44l1.9,0.9h93.5c11.8,41.5,49.9,72,95.3,72s83.5-30.5,95.3-72h583.8
			c11.8,41.5,49.9,72,95.3,72c45.3,0,83.5-30.5,95.3-72h72.7l1.3-0.4c1.1-0.3,26.7-8.2,25.7-42.7l0-36.3L1237.4,480.8z M283.7,601.9
			c-47.4,9-88.2-31.8-79.2-79.2c5-26.5,26.4-47.9,52.9-52.9c47.4-9,88.2,31.8,79.2,79.2C331.6,575.6,310.2,596.9,283.7,601.9z
			 M1058.1,601.9c-47.4,9-88.2-31.8-79.2-79.2c5-26.5,26.4-47.9,52.9-52.9c47.4-9,88.2,31.8,79.2,79.2
			C1105.9,575.6,1084.5,596.9,1058.1,601.9z M1209.7,543.5h-66.1c0.2-2.5,0.4-5,0.4-7.6c0-54.7-44.4-99.1-99.1-99.1
			c-54.7,0-99.1,44.4-99.1,99.1c0,4.4,0.4,8.8,1,13.1c-0.4-1.8-0.8-3.6-1.1-5.5H369.3c0.2-2.5,0.4-5,0.4-7.6
			c0-54.7-44.4-99.1-99.1-99.1s-99.1,44.4-99.1,99.1c0,2.6,0.2,5.1,0.4,7.6H86.1c-22.1-10.8-34.3-27.3-38-32.8v-56.9
			c14.5-5.4,19.1-19.8,19.5-28.2c0-0.3-0.1-9.2-0.4-23.2c19.5-2.6,23.1-12.8,23.1-12.8V253H64c-0.1-3.9-0.3-7.7-0.4-11.4
			C61.3,176.3,91.4,136,91.7,135.6l0.4-0.5c0.8-1.2,1.9-1.3,2.5-1.4c5.7,0,572.1-1.6,635.4,0c57.2,1.5,71.5,10.2,71.6,10.2
			c1.8,1.4,182.8,139.8,204.2,159.6c21.5,19.9,43.2,25.6,47.9,26.6c23.4,8.5,53.4,19.8,79.5,30.6v34.2c0,0,13.4,25.2,69.7,34
			c-0.1,4.8-0.1,10.2-0.1,16.2c0,20.9,12.4,38.8,17.9,45.8l0,17.3h-9.7c-4.1-6.6-12.9-11.3-19.2-11.3c-8.5,0-15.4,8.2-15.4,18.3
			c0,10.1,6.9,18.3,15.4,18.3c6.5,0,15.6-4.6,19.5-11.3h9.3C1220.1,537,1212.5,542.1,1209.7,543.5z"/>
	</g>
	<g>
		<path class="st0" d="M168.5,195.6c0,0-34.7-5.8-34.1,13.4c0.7,23.2,0,91.5,0,91.5l58.5,37.8h144.4l-20.6-143.1
			C232.3,195.4,168.5,195.6,168.5,195.6z"/>
		<path class="st0" d="M347,195.1l20.6,143.2H547l-20.6-143.7C467.7,194.7,404.1,194.9,347,195.1z"/>
		<path class="st0" d="M724.5,193.5c-14.1,0.3-83.1,0.6-167.9,0.9l20.7,143.8h164.3c0,0,18.3-2.5,18.3-14.7c0-12.2,0-12.2,0-12.2
			v-92.7C759.9,218.7,766,192.7,724.5,193.5z"/>
	</g>
</g>
</svg>
