<?xml version="1.0" encoding="utf-8"?>
<!-- Generator: Adobe Illustrator 19.2.1, SVG Export Plug-In . SVG Version: 6.00 Build 0)  -->
<svg version="1.1" id="Capa_1" xmlns="http://www.w3.org/2000/svg" xmlns:xlink="http://www.w3.org/1999/xlink" x="0px" y="0px"
	 viewBox="0 0 1266 1266" style="enable-background:new 0 0 1266 1266;" xml:space="preserve">
<style type="text/css">
	.st0{fill:#404040;}
</style>
<g>
	<path class="st0" d="M288.2,707c-45.6,0-82.6,37-82.6,82.6c0,45.6,37,82.6,82.6,82.6c45.6,0,82.6-37,82.6-82.6
		C370.8,744,333.8,707,288.2,707z M288.2,833.6c-24.3,0-43.9-19.7-43.9-43.9c0-24.2,19.7-43.9,43.9-43.9c24.3,0,43.9,19.7,43.9,43.9
		S312.4,833.6,288.2,833.6z"/>
	<path class="st0" d="M1012.7,707c-45.6,0-82.6,37-82.6,82.6c0,45.6,37,82.6,82.6,82.6c45.6,0,82.6-37,82.6-82.6
		C1095.3,744,1058.3,707,1012.7,707z M1012.7,833.6c-24.3,0-43.9-19.7-43.9-43.9c0-24.2,19.7-43.9,43.9-43.9
		c24.2,0,43.9,19.7,43.9,43.9S1037,833.6,1012.7,833.6z"/>
	<path class="st0" d="M1209,499.4h-32c-2.4,0-4.7,0.7-6.6,2c-0.4-25.8-0.8-48.4-1.3-64.4c-0.5-16.2-16.1-28.1-41.6-28.1
		c-100,0.1-349.9,0.5-382.5,1.9c-154.6,6.6-186.9,27.1-186.9,27.1s-71.6,41.1-94.4,56.6c-19.1,12.9-73.4,55.7-73.4,55.7
		s-99.4,0.2-157.1,10.1c-79.5,13.5-137.4,34.6-137.4,34.6s-16.9,11.4-20.5,16.9c-9.2,13.9-18.7,64-18.7,64v82.1
		c0,0,3.4,16.3,19.9,22.9c12.4,5,25.2,5.3,36.9,8.9c26.2,7.9,51.1,19.5,51.1,19.5c-1-6.4-1.5-12.9-1.5-19.5
		c0-69.2,56.1-125.2,125.2-125.2s125.2,56.1,125.2,125.2c0,10.6-1.3,20.9-3.8,30.7l376.6-2.6L888,817l2.8-0.2
		c-1.8-8.4-2.8-17.3-2.8-26.3c0-69.2,56.1-125.2,125.2-125.2c69.2,0,125.2,56.1,125.2,125.2c0,0.9,0,1.7,0,2.6l32.3-0.4l3.6-16.8
		l21.6-5.8v-27.4l-23.1-2.9c0,0-0.3-35.8-0.7-83.8c1.5,0.6,3.1,1,4.8,1h32c6.6,0,12-5.4,12-12V511.4
		C1221,504.8,1215.6,499.4,1209,499.4z M701.2,631.1h-33.7c-4.5,0-8.3-3.8-8.3-8.3c0-4.5,3.8-8.3,8.3-8.3h33.7
		c4.5,0,8.3,3.8,8.3,8.3C709.6,627.3,705.8,631.1,701.2,631.1z M793.9,567.6l-80.9,0.5L467,568.9c0,0-28.3,3.8-32.2-10.8
		c-3.2-12.1,37.4-45.7,64.8-65.6C526.2,473.1,562,457,562,457s8.4-9.6,72.5-16.5c18.8-2.1,78.5-6.1,78.5-6.1l80.9-3.2V567.6z
		 M1031.3,567.7l-210.9-1.5V431.1l210.9,1.7V567.7z"/>
</g>
</svg>
