<svg id="Calculator" xmlns="http://www.w3.org/2000/svg" width="30.852" height="38.565" viewBox="0 0 30.852 38.565">
  <path id="Trazado_909" data-name="Trazado 909" d="M34.353,40.565H12.5a4.5,4.5,0,0,1-4.5-4.5V6.5A4.5,4.5,0,0,1,12.5,2H34.353a4.5,4.5,0,0,1,4.5,4.5V36.066A4.5,4.5,0,0,1,34.353,40.565ZM12.5,3.286A3.218,3.218,0,0,0,9.286,6.5V36.066A3.218,3.218,0,0,0,12.5,39.28H34.353a3.218,3.218,0,0,0,3.214-3.214V6.5a3.218,3.218,0,0,0-3.214-3.214Z" transform="translate(-8 -2)" fill="#0050ba"/>
  <path id="Trazado_910" data-name="Trazado 910" d="M31.785,54.428H27.928A1.928,1.928,0,0,1,26,52.5V49.928A1.928,1.928,0,0,1,27.928,48h3.857a1.928,1.928,0,0,1,1.928,1.928V52.5A1.928,1.928,0,0,1,31.785,54.428Zm-3.857-5.142a.643.643,0,0,0-.643.643V52.5a.643.643,0,0,0,.643.643h3.857a.643.643,0,0,0,.643-.643V49.928a.643.643,0,0,0-.643-.643Z" transform="translate(-14.43 -18.433)" fill="#0050ba"/>
  <path id="Trazado_911" data-name="Trazado 911" d="M17.785,54.428H13.928A1.928,1.928,0,0,1,12,52.5V49.928A1.928,1.928,0,0,1,13.928,48h3.857a1.928,1.928,0,0,1,1.928,1.928V52.5A1.928,1.928,0,0,1,17.785,54.428Zm-3.857-5.142a.643.643,0,0,0-.643.643V52.5a.643.643,0,0,0,.643.643h3.857a.643.643,0,0,0,.643-.643V49.928a.643.643,0,0,0-.643-.643Z" transform="translate(-9.429 -18.433)" fill="#0050ba"/>
  <path id="Trazado_912" data-name="Trazado 912" d="M45.785,50.141H41.928A1.928,1.928,0,0,1,40,48.212V37.928A1.928,1.928,0,0,1,41.928,36h3.857a1.928,1.928,0,0,1,1.928,1.928V48.212A1.928,1.928,0,0,1,45.785,50.141ZM41.928,37.286a.643.643,0,0,0-.643.643V48.212a.643.643,0,0,0,.643.643h3.857a.643.643,0,0,0,.643-.643V37.928a.643.643,0,0,0-.643-.643Z" transform="translate(-19.432 -14.146)" fill="#0050ba"/>
  <path id="Trazado_913" data-name="Trazado 913" d="M31.785,42.428H27.928A1.928,1.928,0,0,1,26,40.5V37.928A1.928,1.928,0,0,1,27.928,36h3.857a1.928,1.928,0,0,1,1.928,1.928V40.5A1.928,1.928,0,0,1,31.785,42.428Zm-3.857-5.142a.643.643,0,0,0-.643.643V40.5a.643.643,0,0,0,.643.643h3.857a.643.643,0,0,0,.643-.643V37.928a.643.643,0,0,0-.643-.643Z" transform="translate(-14.43 -14.146)" fill="#0050ba"/>
  <path id="Trazado_914" data-name="Trazado 914" d="M17.785,42.428H13.928A1.928,1.928,0,0,1,12,40.5V37.928A1.928,1.928,0,0,1,13.928,36h3.857a1.928,1.928,0,0,1,1.928,1.928V40.5A1.928,1.928,0,0,1,17.785,42.428Zm-3.857-5.142a.643.643,0,0,0-.643.643V40.5a.643.643,0,0,0,.643.643h3.857a.643.643,0,0,0,.643-.643V37.928a.643.643,0,0,0-.643-.643Z" transform="translate(-9.429 -14.146)" fill="#0050ba"/>
  <path id="Trazado_915" data-name="Trazado 915" d="M31.785,30.428H27.928A1.928,1.928,0,0,1,26,28.5V25.928A1.928,1.928,0,0,1,27.928,24h3.857a1.928,1.928,0,0,1,1.928,1.928V28.5A1.928,1.928,0,0,1,31.785,30.428Zm-3.857-5.142a.643.643,0,0,0-.643.643V28.5a.643.643,0,0,0,.643.643h3.857a.643.643,0,0,0,.643-.643V25.928a.643.643,0,0,0-.643-.643Z" transform="translate(-14.43 -9.859)" fill="#0050ba"/>
  <path id="Trazado_916" data-name="Trazado 916" d="M17.785,30.428H13.928A1.928,1.928,0,0,1,12,28.5V25.928A1.928,1.928,0,0,1,13.928,24h3.857a1.928,1.928,0,0,1,1.928,1.928V28.5A1.928,1.928,0,0,1,17.785,30.428Zm-3.857-5.142a.643.643,0,0,0-.643.643V28.5a.643.643,0,0,0,.643.643h3.857a.643.643,0,0,0,.643-.643V25.928a.643.643,0,0,0-.643-.643Z" transform="translate(-9.429 -9.859)" fill="#0050ba"/>
  <path id="Trazado_917" data-name="Trazado 917" d="M45.785,30.428H41.928A1.928,1.928,0,0,1,40,28.5V25.928A1.928,1.928,0,0,1,41.928,24h3.857a1.928,1.928,0,0,1,1.928,1.928V28.5A1.928,1.928,0,0,1,45.785,30.428Zm-3.857-5.142a.643.643,0,0,0-.643.643V28.5a.643.643,0,0,0,.643.643h3.857a.643.643,0,0,0,.643-.643V25.928a.643.643,0,0,0-.643-.643Z" transform="translate(-19.432 -9.859)" fill="#0050ba"/>
  <path id="Trazado_918" data-name="Trazado 918" d="M35.782,15H13.928A1.928,1.928,0,0,1,12,13.07V7.928A1.928,1.928,0,0,1,13.928,6H35.782A1.928,1.928,0,0,1,37.71,7.928V13.07A1.928,1.928,0,0,1,35.782,15ZM13.928,7.286a.643.643,0,0,0-.643.643V13.07a.643.643,0,0,0,.643.643H35.782a.643.643,0,0,0,.643-.643V7.928a.643.643,0,0,0-.643-.643Z" transform="translate(-9.429 -3.429)" fill="#0050ba"/>
  <path id="Trazado_919" data-name="Trazado 919" d="M44.928,14.142A1.928,1.928,0,0,1,43,12.214V10.928a1.928,1.928,0,1,1,3.857,0v1.286A1.928,1.928,0,0,1,44.928,14.142Zm0-3.857a.643.643,0,0,0-.643.643v1.286a.643.643,0,0,0,1.286,0V10.928A.643.643,0,0,0,44.928,10.286Z" transform="translate(-20.503 -4.501)" fill="#0050ba"/>
</svg>
