<svg id="_007-gear" data-name="007-gear" xmlns="http://www.w3.org/2000/svg" width="18.741" height="18.741" viewBox="0 0 18.741 18.741">
  <path id="Trazado_940" data-name="Trazado 940" d="M17.381,6.977l-.914-.155c-.081-.226-.173-.449-.275-.665L16.73,5.4a1.63,1.63,0,0,0-.177-2.111l-1.1-1.1a1.633,1.633,0,0,0-2.107-.177l-.756.538a7.532,7.532,0,0,0-.71-.293l-.151-.9A1.635,1.635,0,0,0,10.113,0H8.561A1.635,1.635,0,0,0,6.944,1.367L6.785,2.3q-.337.123-.662.279l-.742-.534a1.638,1.638,0,0,0-2.114.176l-1.1,1.1a1.636,1.636,0,0,0-.177,2.111l.547.768c-.1.217-.191.44-.272.668l-.9.151A1.635,1.635,0,0,0,0,8.632v1.552A1.635,1.635,0,0,0,1.367,11.8l.931.159c.082.224.175.446.279.662l-.532.741a1.63,1.63,0,0,0,.177,2.111l1.1,1.1a1.633,1.633,0,0,0,2.107.177l.768-.547c.2.094.411.18.626.257l.152.914a1.635,1.635,0,0,0,1.618,1.369h1.555a1.635,1.635,0,0,0,1.618-1.368l.155-.914c.226-.081.449-.173.665-.275l.751.536a1.638,1.638,0,0,0,2.113-.175l1.1-1.1a1.635,1.635,0,0,0,.177-2.111l-.539-.757c.1-.221.2-.443.276-.664l.913-.152a1.635,1.635,0,0,0,1.369-1.618V8.6A1.619,1.619,0,0,0,17.381,6.977Zm.262,3.169a.54.54,0,0,1-.452.535l-1.211.2a.592.592,0,0,0-.471.411,6.42,6.42,0,0,1-.439,1.058.592.592,0,0,0,.043.62l.713,1a.541.541,0,0,1-.059.7l-1.1,1.1a.54.54,0,0,1-.7.059l-1-.713a.591.591,0,0,0-.622-.043,6.466,6.466,0,0,1-1.06.439.592.592,0,0,0-.408.468l-.206,1.212a.54.54,0,0,1-.535.452H8.591a.54.54,0,0,1-.535-.452l-.2-1.211a.592.592,0,0,0-.408-.47,6.427,6.427,0,0,1-1.026-.422.593.593,0,0,0-.619.043l-1.015.723a.519.519,0,0,1-.309.1A.53.53,0,0,1,4.1,15.8L3,14.7A.536.536,0,0,1,2.937,14l.709-.986a.591.591,0,0,0,.042-.627,6.279,6.279,0,0,1-.444-1.054.593.593,0,0,0-.467-.406L1.55,10.718a.541.541,0,0,1-.452-.535V8.632A.541.541,0,0,1,1.551,8.1l1.2-.2a.591.591,0,0,0,.47-.413,6.33,6.33,0,0,1,.431-1.061A.592.592,0,0,0,3.6,5.8L2.883,4.79a.54.54,0,0,1,.058-.7l1.1-1.1,0,0a.526.526,0,0,1,.379-.156.532.532,0,0,1,.313.1l.991.713a.591.591,0,0,0,.627.042,6.277,6.277,0,0,1,1.054-.444.593.593,0,0,0,.407-.467L8.027,1.55A.54.54,0,0,1,8.562,1.1h1.552a.541.541,0,0,1,.535.453l.2,1.2a.592.592,0,0,0,.414.47,6.391,6.391,0,0,1,1.1.452.592.592,0,0,0,.62-.043l1-.715a.518.518,0,0,1,.309-.1.53.53,0,0,1,.382.16l1.1,1.1a.536.536,0,0,1,.058.695l-.714,1a.592.592,0,0,0-.043.621,6.463,6.463,0,0,1,.439,1.06.592.592,0,0,0,.468.408L17.2,8.06h0a.527.527,0,0,1,.445.527Zm0,0" fill="#343434"/>
  <path id="Trazado_941" data-name="Trazado 941" d="M160.1,156.453a3.644,3.644,0,1,0,3.644,3.644A3.648,3.648,0,0,0,160.1,156.453Zm0,6.19a2.546,2.546,0,1,1,2.546-2.546A2.549,2.549,0,0,1,160.1,162.643Zm0,0" transform="translate(-150.726 -150.726)" fill="#343434"/>
</svg>
