<svg id="_001-comment" data-name="001-comment" xmlns="http://www.w3.org/2000/svg" width="17.391" height="16" viewBox="0 0 17.391 16">
  <path id="Trazado_926" data-name="Trazado 926" d="M15-1.332H2.391A2.394,2.394,0,0,0,0,1.059V8.775a2.394,2.394,0,0,0,2.382,2.391v3.5l5.032-3.5H15a2.394,2.394,0,0,0,2.391-2.391V1.059A2.394,2.394,0,0,0,15-1.332ZM16.372,8.775A1.374,1.374,0,0,1,15,10.147H7.1L3.4,12.718v-2.57H2.391A1.374,1.374,0,0,1,1.019,8.775V1.059A1.373,1.373,0,0,1,2.391-.313H15a1.373,1.373,0,0,1,1.372,1.372Zm0,0" transform="translate(0 1.332)" fill="#343434"/>
  <path id="Trazado_927" data-name="Trazado 927" d="M171.293,131.172h8.082v1.019h-8.082Zm0,0" transform="translate(-166.638 -127.571)" fill="#343434"/>
  <path id="Trazado_928" data-name="Trazado 928" d="M171.293,211.172h8.082v1.019h-8.082Zm0,0" transform="translate(-166.638 -205.397)" fill="#343434"/>
  <path id="Trazado_929" data-name="Trazado 929" d="M171.293,291.172h8.082v1.019h-8.082Zm0,0" transform="translate(-166.638 -283.224)" fill="#343434"/>
</svg>
