<svg id="outline" xmlns="http://www.w3.org/2000/svg" width="38.565" height="38.565" viewBox="0 0 38.565 38.565">
  <path id="Trazado_922" data-name="Trazado 922" d="M39.923,2H2.643A.643.643,0,0,0,2,2.643V4.571a.647.647,0,0,0,.108.357L3.286,6.692V39.923a.643.643,0,0,0,.643.643H38.637a.643.643,0,0,0,.643-.643V6.692l1.178-1.766a.647.647,0,0,0,.108-.355V2.643A.643.643,0,0,0,39.923,2ZM14.212,39.28V32.852H20.64V39.28Zm0-7.713V30.281H28.353v1.286ZM12.284,29V27.71h18V29Zm17.354,1.286h1.928V26.425H11v3.857h1.928v6.428H7.142V25.139H35.423v11.57H29.639Zm-7.713,9V32.852h6.428V39.28Zm16.069,0H29.639V37.994h7.07V23.854H5.857V37.994h7.07V39.28H4.571V7.142H37.994Zm1.286-34.9-.987,1.478H4.272L3.286,4.378V3.286H5.214V4.571H6.5V3.286H8.428V4.571H9.713V3.286H23.854V4.571h1.286V3.286h6.428V4.571h1.286V3.286H39.28Z" transform="translate(-2 -2)" fill="#0050ba"/>
  <path id="Trazado_923" data-name="Trazado 923" d="M38.852,12H8V26.141H38.852ZM26.64,24.855H10.194L12.954,22.1l-.909-.909L9.286,23.946V21.907L13.6,17.6l-.909-.909-3.4,3.4v-6.8H32.8l-3.4,3.4.909.909,4.311-4.311h2.039L33.9,16.045l.909.909,2.759-2.759V24.855Z" transform="translate(-4.143 -5.572)" fill="#0050ba"/>
  <path id="Trazado_924" data-name="Trazado 924" d="M32.745,26.07h3.966v-4.4l-4.23-.707L30.009,19H23.072L20,22.141v3.93h2.681a1.928,1.928,0,0,0,3.637,0h2.791a1.928,1.928,0,0,0,3.637,0Zm-1.176-.643a.643.643,0,0,1-1.286,0v-.643H25.142v.643a.643.643,0,0,1-1.286,0v-.643H21.286V22.664l2.327-2.378h5.948l2.382,1.892,3.483.578v2.029H31.57Z" transform="translate(-8.43 -8.073)" fill="#0050ba"/>
  <rect id="Rect치ngulo_114" data-name="Rect치ngulo 114" width="1" height="1" transform="translate(15.971 34.172)" fill="#0050ba"/>
  <rect id="Rect치ngulo_115" data-name="Rect치ngulo 115" width="1" height="1" transform="translate(21.971 34.172)" fill="#0050ba"/>
</svg>
