<svg xmlns="http://www.w3.org/2000/svg" width="17.949" height="15.969" viewBox="0 0 17.949 15.969">
  <path id="_008-heart" data-name="008-heart" d="M8.975,15.969a1.053,1.053,0,0,1-.694-.261c-.725-.634-1.424-1.23-2.041-1.755l0,0A37.96,37.96,0,0,1,1.78,9.767,6.681,6.681,0,0,1,0,5.394,5.61,5.61,0,0,1,1.424,1.563,4.827,4.827,0,0,1,5.014,0a4.515,4.515,0,0,1,2.82.974,5.77,5.77,0,0,1,1.14,1.191A5.771,5.771,0,0,1,10.115.974,4.515,4.515,0,0,1,12.935,0a4.827,4.827,0,0,1,3.59,1.563,5.61,5.61,0,0,1,1.424,3.831,6.68,6.68,0,0,1-1.78,4.373,37.951,37.951,0,0,1-4.456,4.183c-.618.526-1.318,1.123-2.045,1.759A1.053,1.053,0,0,1,8.975,15.969ZM5.014,1.051A3.787,3.787,0,0,0,2.2,2.275,4.564,4.564,0,0,0,1.051,5.394,5.621,5.621,0,0,0,2.59,9.1,37.354,37.354,0,0,0,6.918,13.15l0,0c.619.528,1.321,1.126,2.051,1.764.735-.64,1.438-1.239,2.058-1.768A37.36,37.36,0,0,0,15.36,9.1a5.622,5.622,0,0,0,1.538-3.7,4.564,4.564,0,0,0-1.146-3.119,3.786,3.786,0,0,0-2.817-1.224,3.487,3.487,0,0,0-2.177.754,5.1,5.1,0,0,0-1.213,1.4.664.664,0,0,1-1.14,0,5.1,5.1,0,0,0-1.213-1.4A3.487,3.487,0,0,0,5.014,1.051Zm0,0" fill="#343434"/>
</svg>
