<svg xmlns="http://www.w3.org/2000/svg" width="19.748" height="12.821" viewBox="0 0 19.748 12.821">
  <g id="Grupo_197" data-name="Grupo 197" transform="translate(-357.273 -141.348)">
    <path id="Trazado_942" data-name="Trazado 942" d="M359.934,149.549a2.166,2.166,0,0,0-.132.266c-.048.147-.067.22-.083.261a.505.505,0,0,0-.254-.033c-.075.029-.088.1-.176.125a1.258,1.258,0,0,1-.361-.051c-.22-.037-.449-.066-.669-.117a.646.646,0,0,1-.456-.742c.023-.309.338-.411.587-.449s.589-.156.823-.015C359.556,149,359.42,149.643,359.934,149.549Z" transform="translate(-0.097 -4.416)" fill="none" stroke="#000" stroke-linecap="round" stroke-linejoin="round" stroke-width="0.75"/>
    <path id="Trazado_943" data-name="Trazado 943" d="M376.524,147.59c-.018-.31-.738-.975-.945-1.178a9.154,9.154,0,0,0-.775-.646c-.1-.059-.114-.059-.14-.118s-.033-.118-.081-.262a1.906,1.906,0,0,0-.133-.266c-.414-.75-1.621-2.614-1.721-2.718a1.484,1.484,0,0,0-.76-.421c-.373-.063-4.121-.258-4.826-.258s-4.457.2-4.83.27a1.455,1.455,0,0,0-.757.417c-.1.1-1.307,1.972-1.717,2.721a2.434,2.434,0,0,0-.133.266c-.048.148-.066.222-.081.262a.46.46,0,0,1-.151.126l-.011.011a5.218,5.218,0,0,0-.75.594c-.343.362-.93.9-.945,1.215a5.474,5.474,0,0,0-.114,1.148c.011.3.1,1.207.178,2.071.081.908.17,1.769.177,1.835.015.133-.03.281.03.4s.207.151.44.148l1.927.026c2.555.03,6.746.085,6.746.085l6.868-.1,1.806-.026c.233,0,.38-.03.443-.148s.011-.262.026-.4c.011-.092.162-1.647.262-2.791.044-.506.077-.93.089-1.119A5.594,5.594,0,0,0,376.524,147.59Zm-1.444-.229c.333,0,.4-.044.465.262a1.568,1.568,0,0,1,0,.642c-.133.639-.945.639-1.477.639-.971,0-1.813.244-2.577-1.122a16.86,16.86,0,0,1,2.093-.284A8.166,8.166,0,0,1,375.08,147.361Zm-12.51-4.189h8.995a17.338,17.338,0,0,1,1.163,2.347c-.141,0-3.4-.273-5.587-.225-2.182-.044-5.989.225-6.126.225A21.513,21.513,0,0,1,362.57,143.172Zm-3.825,4.466c.066-.306.133-.262.462-.266a8.584,8.584,0,0,1,1.5.137,16.783,16.783,0,0,1,2.094.281c-.765,1.37-1.606,1.13-2.578,1.13-.528,0-1.344,0-1.477-.639A1.581,1.581,0,0,1,358.745,147.638ZM370.69,150.9c-.188.528-.923.458-1,.458l-5.088,0c-.07,0-.809.074-1-.454s-.487-.385-.591-.809c-.11-.447-.473-1.215,1.691-1.167,1.115.022,1.92.022,2.437.015s1.326.007,2.441-.018c2.16-.052,1.8.716,1.691,1.163C371.173,150.515,370.882,150.371,370.69,150.9Z" fill="none" stroke="#000" stroke-linecap="round" stroke-linejoin="round" stroke-width="0.75"/>
    <path id="Trazado_944" data-name="Trazado 944" d="M360.721,174.539a.176.176,0,0,1-.173.177l-2.219,0a.177.177,0,0,1-.177-.177Z" transform="translate(-0.318 -20.926)" fill="none" stroke="#000" stroke-linecap="round" stroke-linejoin="round" stroke-width="0.75"/>
    <path id="Trazado_945" data-name="Trazado 945" d="M404.555,174.228a.175.175,0,0,1-.177.177l-2.219,0a.18.18,0,0,1-.177-.177Z" transform="translate(-27.964 -20.629)" fill="none" stroke="#000" stroke-linecap="round" stroke-linejoin="round" stroke-width="0.75"/>
    <path id="Trazado_946" data-name="Trazado 946" d="M404.827,149.959c-.22.051-.45.081-.67.119a1.254,1.254,0,0,1-.36.052c-.088-.023-.1-.1-.176-.125a.5.5,0,0,0-.254.034c-.016-.041-.035-.115-.083-.261a2.022,2.022,0,0,0-.133-.266c.513.093.377-.545.72-.756.233-.141.573-.03.823.014s.565.139.587.448A.647.647,0,0,1,404.827,149.959Z" transform="translate(-28.702 -4.392)" fill="none" stroke="#000" stroke-linecap="round" stroke-linejoin="round" stroke-width="0.75"/>
  </g>
</svg>
