<svg id="_002-pay" data-name="002-pay" xmlns="http://www.w3.org/2000/svg" width="38" height="38" viewBox="0 0 38 38">
  <path id="Trazado_920" data-name="Trazado 920" d="M93.025,322.028l-1.616-.956a3.208,3.208,0,0,0-1.63-.445H87.348a5.805,5.805,0,0,0-1.475.188l-7.327,1.943a2.543,2.543,0,0,0-1.725,1.58l-6.444-3.444a2.552,2.552,0,0,0-1.725-.282,2.4,2.4,0,0,0-.642.208,2.494,2.494,0,0,0-.171,4.417l11.55,6.827a3.2,3.2,0,0,0,1.67.469H90a3.2,3.2,0,0,0,1.166-.219l1.861-.726v.946h6.344V320H93.025ZM90.7,331.149a1.93,1.93,0,0,1-.7.132H81.059a1.926,1.926,0,0,1-1.011-.287l-11.566-6.835a1.244,1.244,0,0,1-.631-1.088,1.261,1.261,0,0,1,.17-.627,1.242,1.242,0,0,1,.545-.5,1.205,1.205,0,0,1,.317-.1,1.349,1.349,0,0,1,.243-.022,1.256,1.256,0,0,1,.622.163l6.988,3.73c.008.038.008.076.018.114a2.539,2.539,0,0,0,2.453,1.855,6.305,6.305,0,0,0,1.045-.184l6.591-1.742-.327-1.211-6.57,1.735c-.289.066-.663.141-.74.148a1.266,1.266,0,0,1-1.226-.923,1.132,1.132,0,0,1-.037-.232s0-.152,0-.205a1.271,1.271,0,0,1,.933-1.105l7.324-1.935a4.485,4.485,0,0,1,1.146-.149h2.432a1.92,1.92,0,0,1,.978.267l2.268,1.341v6.751Zm3.6-9.9H98.1V331.28H94.294Zm0,0" transform="translate(-61.369 -294.534)" fill="#0050ba"/>
  <path id="Trazado_921" data-name="Trazado 921" d="M26.121,5.013l-3.4-3.361A5.691,5.691,0,0,0,18.694,0H10.731A3.216,3.216,0,0,0,9.315.331l-1.419.7a1.894,1.894,0,0,1-.919.2l-.644-.022V0H0V13.787H6.333v-1.88H7.41l.383.251A7.033,7.033,0,0,0,11.4,13.306v8H38V5.013ZM5.067,12.533h-3.8V1.253h3.8Zm3.428-1.419-.7-.461H6.333V2.461l.6.021a3.208,3.208,0,0,0,1.531-.328l1.418-.7a1.92,1.92,0,0,1,.851-.2h7.962a4.427,4.427,0,0,1,3.135,1.285l2.5,2.476H19.1L17.567,3.492l-.9.886,4.474,4.427a1.248,1.248,0,0,1,0,1.777,1.28,1.28,0,0,1-1.8,0l-3.737-3.7-.443.376a3.384,3.384,0,0,1-4.269.062l-.367-.294-.8.974.371.3a4.63,4.63,0,0,0,1.29.719v3.028A5.753,5.753,0,0,1,8.494,11.115Zm9.009-.587.956.946a2.571,2.571,0,0,0,3.578,0,3.15,3.15,0,0,0,.833,4.3,3.228,3.228,0,0,0,4.383-.627,3.148,3.148,0,0,0-.434-4.361,3.23,3.23,0,0,0-4.422.23A2.442,2.442,0,0,0,22.6,8.773h8.481A3.791,3.791,0,0,0,34.2,11.855v2.611a3.791,3.791,0,0,0-3.114,3.081H18.314A3.791,3.791,0,0,0,15.2,14.466V11.855A3.789,3.789,0,0,0,17.5,10.528Zm5.3,2.632a1.9,1.9,0,1,1,1.9,1.88A1.89,1.89,0,0,1,22.8,13.16Zm13.933,6.894H12.667V9.287a4.643,4.643,0,0,0,2.85-.721L16.6,9.635a2.536,2.536,0,0,1-2.031,1.018h-.633v5.014h.633A2.52,2.52,0,0,1,17.1,18.174V18.8H32.3v-.627a2.52,2.52,0,0,1,2.533-2.507h.633V10.653h-.633A2.52,2.52,0,0,1,32.3,8.147V7.52H21.637L20.371,6.267H36.733Zm0,0" transform="translate(0 0)" fill="#0050ba"/>
</svg>
