<svg xmlns="http://www.w3.org/2000/svg" width="29" height="29" viewBox="0 0 29 29">
  <g id="Grupo_187" data-name="Grupo 187" transform="translate(-962 -1747)">
    <g id="Grupo_169" data-name="Grupo 169" transform="translate(698 629)">
      <circle id="Elipse_36" data-name="Elipse 36" cx="14.5" cy="14.5" r="14.5" transform="translate(264 1118)" fill="#0050ba"/>
    </g>
    <g id="user" transform="translate(971 1754.361)">
      <path id="Trazado_907" data-name="Trazado 907" d="M90.269,6.475a3.132,3.132,0,0,0,2.289-.948,3.132,3.132,0,0,0,.948-2.289A3.133,3.133,0,0,0,92.558.948a3.237,3.237,0,0,0-4.578,0,3.133,3.133,0,0,0-.948,2.289,3.132,3.132,0,0,0,.949,2.289A3.133,3.133,0,0,0,90.269,6.475Zm0,0" transform="translate(-84.746)" fill="#fff"/>
      <path id="Trazado_908" data-name="Trazado 908" d="M11.187,251.159a8,8,0,0,0-.109-.849,6.692,6.692,0,0,0-.209-.854,4.217,4.217,0,0,0-.351-.8,3.005,3.005,0,0,0-.529-.69,2.334,2.334,0,0,0-.76-.478,2.628,2.628,0,0,0-.971-.176.985.985,0,0,0-.526.223c-.158.1-.342.222-.548.353a3.142,3.142,0,0,1-.709.312,2.754,2.754,0,0,1-1.735,0,3.135,3.135,0,0,1-.709-.312c-.2-.13-.389-.249-.549-.354a.984.984,0,0,0-.526-.223,2.625,2.625,0,0,0-.971.176,2.332,2.332,0,0,0-.761.478,3.006,3.006,0,0,0-.529.69,4.225,4.225,0,0,0-.351.8,6.706,6.706,0,0,0-.209.854,7.968,7.968,0,0,0-.109.85c-.018.257-.027.524-.027.794a2.232,2.232,0,0,0,.663,1.689,2.386,2.386,0,0,0,1.708.623H8.843a2.386,2.386,0,0,0,1.708-.623,2.231,2.231,0,0,0,.663-1.689C11.214,251.683,11.2,251.415,11.187,251.159Zm0,0" transform="translate(0 -240.824)" fill="#fff"/>
    </g>
  </g>
</svg>
