<svg xmlns="http://www.w3.org/2000/svg" width="15.758" height="17" viewBox="0 0 15.758 17">
  <g id="logout" transform="translate(-0.621)">
    <g id="Grupo_239" data-name="Grupo 239">
      <path id="Trazado_948" data-name="Trazado 948" d="M8.212,16.026H3.778A2.186,2.186,0,0,1,1.6,13.843V3.157A2.186,2.186,0,0,1,3.778.974H8.284a.487.487,0,1,0,0-.974H3.778A3.16,3.16,0,0,0,.621,3.157V13.843A3.16,3.16,0,0,0,3.778,17H8.212a.487.487,0,1,0,0-.974Z" fill="#343434"/>
      <path id="Trazado_949" data-name="Trazado 949" d="M16.236,8.157l-3.1-3.1a.487.487,0,0,0-.689.689l2.266,2.266H4.835a.487.487,0,1,0,0,.974h9.882l-2.266,2.266a.489.489,0,0,0,.343.833.475.475,0,0,0,.343-.144l3.1-3.1A.487.487,0,0,0,16.236,8.157Z" fill="#343434"/>
    </g>
  </g>
</svg>
